<?xml version="1.0" encoding="UTF-8"?>
<svg width="79px" height="79px" viewBox="0 0 79 79" version="1.1" xmlns="http://www.w3.org/2000/svg" xmlns:xlink="http://www.w3.org/1999/xlink">
    <!-- Generator: Sketch 47.1 (45422) - http://www.bohemiancoding.com/sketch -->
    <title>computer</title>
    <desc>Created with Sketch.</desc>
    <defs></defs>
    <g id="Page-1" stroke="none" stroke-width="1" fill="none" fill-rule="evenodd">
        <g id="Desktop-HD-Copy-21" transform="translate(-561.000000, -2971.000000)" fill-rule="nonzero">
            <g id="computer" transform="translate(561.000000, 2971.000000)">
                <g id="Group" transform="translate(6.000000, 23.000000)" fill="#333333">
                    <rect id="Rectangle-path" x="0" y="3.81818182" width="2.53846154" height="12.7272727"></rect>
                    <rect id="Rectangle-path" x="25.3846154" y="0" width="25.3846154" height="2.54545455"></rect>
                    <path d="M63.4615385,12.7272727 L63.4615385,38.1818182 L2.53846154,38.1818182 L2.53846154,31.8181818 L0,31.8181818 L0,42 C0,45.5089091 2.84688462,48.3636364 6.34615385,48.3636364 L13.9615385,48.3636364 L13.9615385,53.4545455 L8.88461538,53.4545455 L8.88461538,56 L57.1153846,56 L57.1153846,53.4545455 L52.0384615,53.4545455 L52.0384615,48.3636364 L59.6538462,48.3636364 C63.1531154,48.3636364 66,45.5089091 66,42 L66,12.7272727 L63.4615385,12.7272727 Z M49.5,53.4545455 L16.5,53.4545455 L16.5,48.3636364 L49.5,48.3636364 L49.5,53.4545455 Z M59.6538462,45.8181818 L6.34615385,45.8181818 C4.24684615,45.8181818 2.53846154,44.1050909 2.53846154,42 L2.53846154,40.7272727 L63.4615385,40.7272727 L63.4615385,42 C63.4615385,44.1050909 61.7531538,45.8181818 59.6538462,45.8181818 Z" id="Shape"></path>
                </g>
                <g id="Group" fill="#0C9CC2">
                    <polygon id="Shape" points="79 36.9090909 56.0645161 36.9090909 56.0645161 19.0909091 79 19.0909091"></polygon>
                    <polygon id="Shape" points="22.9354839 56 0 56 0 38.1818182 22.9354839 38.1818182"></polygon>
                    <polygon id="Shape" points="53.516129 56 30.5806452 56 30.5806452 33.0909091 53.516129 33.0909091"></polygon>
                    <polygon id="Shape" points="33.1290323 28 0 28 0 0 33.1290323 0"></polygon>
                </g>
                <g id="Group" transform="translate(5.000000, 5.000000)" fill="#333333">
                    <rect id="Rectangle-path" x="0" y="0" width="2.55555556" height="2.5"></rect>
                    <rect id="Rectangle-path" x="5.11111111" y="0" width="17.8888889" height="2.5"></rect>
                    <rect id="Rectangle-path" x="20.4444444" y="15" width="2.55555556" height="2.5"></rect>
                    <rect id="Rectangle-path" x="0" y="15" width="17.8888889" height="2.5"></rect>
                    <rect id="Rectangle-path" x="0" y="10" width="23" height="2.5"></rect>
                    <rect id="Rectangle-path" x="0" y="5" width="23" height="2.5"></rect>
                    <rect id="Rectangle-path" x="56.2222222" y="18.75" width="2.55555556" height="2.5"></rect>
                    <rect id="Rectangle-path" x="61.3333333" y="18.75" width="7.66666667" height="2.5"></rect>
                    <rect id="Rectangle-path" x="66.4444444" y="23.75" width="2.55555556" height="2.5"></rect>
                    <rect id="Rectangle-path" x="56.2222222" y="23.75" width="7.66666667" height="2.5"></rect>
                    <rect id="Rectangle-path" x="0" y="37.5" width="2.55555556" height="2.5"></rect>
                    <rect id="Rectangle-path" x="5.11111111" y="37.5" width="7.66666667" height="2.5"></rect>
                    <rect id="Rectangle-path" x="10.2222222" y="42.5" width="2.55555556" height="2.5"></rect>
                    <rect id="Rectangle-path" x="0" y="42.5" width="7.66666667" height="2.5"></rect>
                    <rect id="Rectangle-path" x="30.6666667" y="32.5" width="12.7777778" height="2.5"></rect>
                    <rect id="Rectangle-path" x="30.6666667" y="37.5" width="12.7777778" height="2.5"></rect>
                    <rect id="Rectangle-path" x="30.6666667" y="42.5" width="12.7777778" height="2.5"></rect>
                </g>
                <polygon id="Shape" fill="#0C9CC2" points="68 13 47 13 47 0 68 0"></polygon>
                <rect id="Rectangle-path" fill="#333333" x="52" y="5" width="10" height="2"></rect>
            </g>
        </g>
    </g>
</svg>