<?xml version="1.0" encoding="UTF-8"?>
<svg width="78px" height="77px" viewBox="0 0 78 77" version="1.1" xmlns="http://www.w3.org/2000/svg" xmlns:xlink="http://www.w3.org/1999/xlink">
    <!-- Generator: Sketch 47.1 (45422) - http://www.bohemiancoding.com/sketch -->
    <title>network</title>
    <desc>Created with Sketch.</desc>
    <defs></defs>
    <g id="Page-1" stroke="none" stroke-width="1" fill="none" fill-rule="evenodd">
        <g id="Desktop-HD-Copy-21" transform="translate(-320.000000, -2971.000000)" fill-rule="nonzero">
            <g id="network" transform="translate(320.000000, 2971.000000)">
                <path d="M21.5,43.0617165 L56.5,43.0617165 C57.2813333,43.0617165 57.9688,43.4315726 58.4274667,44 C58.7874667,42.4778897 59,40.8974237 59,39.2623844 C59,28.0713344 50.0461333,19 39,19 C27.9538667,19 19,28.0713344 19,39.2623844 C19,40.8974237 19.2112,42.4778897 19.5725333,44 C20.0312,43.4315726 20.7186667,43.0617165 21.5,43.0617165 Z" id="Shape" fill="#0C9CC2"></path>
                <path d="M57.2057236,41 L21.7940066,41 C19.7022036,41 18,42.6707788 18,44.7242292 L18,67.0688103 C18,69.1219959 19.7022036,70.7930395 21.7940066,70.7930395 L30.6468684,70.7930395 L30.6468684,74.5172688 L28.1174407,74.5172688 L28.1174407,77 L30.6468684,77 L48.3528618,77 L50.8822895,77 L50.8822895,74.5172688 L48.3528618,74.5172688 L48.3528618,70.7930395 L57.2057236,70.7930395 C59.2975266,70.7930395 61,69.1222607 61,67.0688103 L61,44.7239644 C61,42.6707788 59.2977964,41 57.2057236,41 Z M45.8234342,74.5167391 L33.176296,74.5167391 L33.176296,70.7925099 L45.8234342,70.7925099 L45.8234342,74.5167391 Z M58.4705724,67.0685455 C58.4705724,67.7525876 57.9039806,68.3100435 57.2057236,68.3100435 L48.3528618,68.3100435 L30.6468684,68.3100435 L21.7940066,68.3100435 C21.0957496,68.3100435 20.5294276,67.7525876 20.5294276,67.0685455 L20.5294276,44.7239644 C20.5294276,44.0399223 21.0960194,43.4824664 21.7940066,43.4824664 L57.2059934,43.4824664 C57.9042504,43.4824664 58.4708422,44.0399223 58.4708422,44.7239644 L58.4708422,67.0685455 L58.4705724,67.0685455 Z" id="Shape" fill="#333333"></path>
                <path d="M21,68 L56,68 L56,45 L21,45 L21,68 Z M23.5,47.5555556 L53.5,47.5555556 L53.5,65.4444444 L23.5,65.4444444 L23.5,47.5555556 Z" id="Shape" fill="#333333"></path>
                <path d="M20,24.1817194 L20,3.81828055 C20,1.71297248 18.3176,0 16.2501333,0 L3.75013333,0 C1.6824,0 0,1.71297248 0,3.81828055 L0,24.1817194 C0,26.286756 1.6824,28 3.74986667,28 L16.2498667,28 C18.3176,27.9997285 20,26.286756 20,24.1817194 Z M3.75013333,2.54542986 L16.2501333,2.54542986 C16.9402667,2.54542986 17.5,3.11696371 17.5,3.81828055 L17.5,20.3634389 L2.5,20.3634389 L2.5,3.81828055 C2.5,3.11696371 3.06,2.54542986 3.75013333,2.54542986 Z M16.2501333,25.4542986 L10,25.4542986 L3.75013333,25.4542986 C3.06,25.4542986 2.50026667,24.8827648 2.50026667,24.1814479 L2.50026667,22.9085972 L10,22.9085972 L17.5,22.9085972 L17.5,24.1814479 C17.5,24.8827648 16.94,25.4542986 16.2501333,25.4542986 Z" id="Shape" fill="#333333"></path>
                <circle id="Oval" fill="#333333" cx="10.5" cy="24.5" r="1.5"></circle>
                <path d="M75.5,15.3333333 L75.5,3.83346963 C75.5,1.71978667 73.8176,0 71.7498667,0 L54.2498667,0 C52.1824,0 50.5,1.71978667 50.5,3.83346963 L50.5,15.3333333 L48,15.3333333 L48,20.4444444 C48,21.8537481 49.1213333,23 50.5,23 L75.5,23 C76.8786667,23 78,21.8537481 78,20.4444444 L78,15.3333333 L75.5,15.3333333 Z M53,3.83346963 C53,3.12936296 53.56,2.55555556 54.2501333,2.55555556 L71.7501333,2.55555556 C72.44,2.55555556 73,3.12936296 73,3.83346963 L73,15.3333333 L64.2501333,15.3333333 L64.2501333,16.6112474 L61.7501333,16.6112474 L61.7501333,15.3333333 L53.0002667,15.3333333 L53.0002667,3.83346963 L53,3.83346963 Z M75.5,20.4444444 L50.5,20.4444444 L50.5,17.8888889 L59.2498667,17.8888889 L59.2498667,19.166803 L66.7498667,19.166803 L66.7498667,17.8888889 L75.4997333,17.8888889 L75.5,20.4444444 L75.5,20.4444444 Z" id="Shape" fill="#333333"></path>
                <path d="M9.81580756,30.6951065 L7.34158076,30 C6.45250859,32.9430145 6,35.9829467 6,39.0363839 C6,46.7161847 8.85580756,54.1611058 14.0412371,60 L16,58.3862938 C11.2140206,52.9967694 8.57731959,46.1238216 8.57731959,39.0363839 C8.5775945,36.2175617 8.99381443,33.4111853 9.81580756,30.6951065 Z" id="Shape" fill="#333333"></path>
                <path d="M47.3013692,9.76994139 L48,7.324574 C45.0364186,6.44587199 41.9752423,6 38.9004666,6 C32.9245064,6 27.0797395,7.66855568 22,10.8257967 L23.3012666,13 C30.3998359,8.58774211 39.2431157,7.38054574 47.3013692,9.76994139 Z" id="Shape" fill="#333333"></path>
                <path d="M66.27189,26.1209591 C68.3620619,30.3206925 69.4226804,34.8357041 69.4226804,39.5385814 C69.4226804,46.7945887 66.7859794,53.8304706 62,59.3479747 L63.9587629,61 C69.1444674,55.0224553 72,47.4004759 72,39.5385814 C72,34.442894 70.8505842,29.5518799 68.5850172,25 L66.27189,26.1209591 Z" id="Shape" fill="#333333"></path>
            </g>
        </g>
    </g>
</svg>