<?xml version="1.0" encoding="UTF-8"?>
<svg width="372px" height="60px" viewBox="0 0 372 60" version="1.1" xmlns="http://www.w3.org/2000/svg" xmlns:xlink="http://www.w3.org/1999/xlink">
    <!-- Generator: Sketch 47.1 (45422) - http://www.bohemiancoding.com/sketch -->
    <title>Group 2</title>
    <desc>Created with Sketch.</desc>
    <defs></defs>
    <g id="Page-1" stroke="none" stroke-width="1" fill="none" fill-rule="evenodd">
        <g id="Desktop-HD-Copy-21" transform="translate(-533.000000, -98.000000)">
            <g id="Group-2" transform="translate(533.000000, 98.000000)">
                <path d="M41.12,5.36 C45.7066896,7.6533448 49.2533208,10.9199788 51.76,15.16 C54.2666792,19.4000212 55.52,24.319972 55.52,29.92 C55.52,35.5733616 54.2400128,40.5066456 51.68,44.72 C49.1199872,48.9333544 45.4800236,52.1999884 40.76,54.52 C36.0399764,56.8400116 30.5600312,58 24.32,58 L0,58 L0,1.92 L25.04,1.92 C31.173364,1.92 36.5333104,3.0666552 41.12,5.36 Z M33.56,39.92 C35.56001,37.4666544 36.56,34.1866872 36.56,30.08 C36.56,25.9199792 35.4800108,22.5866792 33.32,20.08 C31.1599892,17.5733208 28.2666848,16.32 24.64,16.32 L18.56,16.32 L18.56,43.6 L25.52,43.6 C28.8800168,43.6 31.55999,42.3733456 33.56,39.92 Z M105.973333,4.48 C110.66669,6.9866792 114.33332,10.4533112 116.973333,14.88 C119.613346,19.3066888 120.933333,24.2933056 120.933333,29.84 C120.933333,35.440028 119.613346,40.4799776 116.973333,44.96 C114.33332,49.4400224 110.66669,52.946654 105.973333,55.48 C101.279976,58.013346 96.0000287,59.28 90.1333327,59.28 C84.2666367,59.28 78.9866895,58.013346 74.2933327,55.48 C69.5999759,52.946654 65.9333459,49.4400224 63.2933327,44.96 C60.6533195,40.4799776 59.3333327,35.440028 59.3333327,29.84 C59.3333327,24.239972 60.6533195,19.2266888 63.2933327,14.8 C65.9333459,10.3733112 69.5999759,6.9200124 74.2933327,4.44 C78.9866895,1.9599876 84.2666367,0.72 90.1333327,0.72 C96.0000287,0.72 101.279976,1.9733208 105.973333,4.48 Z M84.4133327,17.96 C82.5733235,19.160006 81.1066715,20.7999896 80.0133327,22.88 C78.9199939,24.9600104 78.3733327,27.3066536 78.3733327,29.92 C78.3733327,32.5333464 78.9199939,34.8933228 80.0133327,37 C81.1066715,39.1066772 82.5733235,40.7733272 84.4133327,42 C86.2533419,43.2266728 88.2399887,43.84 90.3733327,43.84 C92.5066767,43.84 94.4533239,43.240006 96.2133327,42.04 C97.9733415,40.839994 99.3599943,39.173344 100.373333,37.04 C101.386671,34.906656 101.893333,32.5333464 101.893333,29.92 C101.893333,27.3066536 101.386671,24.9466772 100.373333,22.84 C99.3599943,20.7333228 97.9733415,19.0933392 96.2133327,17.92 C94.4533239,16.7466608 92.5066767,16.16 90.3733327,16.16 C88.2399887,16.16 86.2533419,16.759994 84.4133327,17.96 Z M162.146665,18.28 C159.826654,16.8666596 157.573343,16.16 155.386665,16.16 C153.199988,16.16 151.213341,16.7333276 149.426665,17.88 C147.63999,19.0266724 146.253337,20.6133232 145.266665,22.64 C144.279994,24.6666768 143.786665,26.9599872 143.786665,29.52 C143.786665,32.0800128 144.279994,34.3866564 145.266665,36.44 C146.253337,38.4933436 147.63999,40.1066608 149.426665,41.28 C151.213341,42.4533392 153.199988,43.04 155.386665,43.04 C157.413342,43.04 159.586654,42.440006 161.906665,41.24 C164.226677,40.039994 166.293323,38.4533432 168.106665,36.48 L178.826665,47.92 C175.679983,51.386684 171.906687,54.1466564 167.506665,56.2 C163.106643,58.2533436 158.746687,59.28 154.426665,59.28 C148.773304,59.28 143.693355,58.013346 139.186665,55.48 C134.679976,52.946654 131.146678,49.4266892 128.586665,44.92 C126.026653,40.4133108 124.746665,35.360028 124.746665,29.76 C124.746665,24.2133056 126.053319,19.240022 128.666665,14.84 C131.280012,10.439978 134.893309,6.9866792 139.506665,4.48 C144.120022,1.9733208 149.333303,0.72 155.146665,0.72 C159.413353,0.72 163.706644,1.6666572 168.026665,3.56 C172.346687,5.4533428 175.946651,7.9733176 178.826665,11.12 L168.106665,23.84 C166.453324,21.5466552 164.466677,19.6933404 162.146665,18.28 Z" id="DOCSITE-Copy" fill="#FFFFFF"></path>
                <path d="M215.839998,16.72 C212.106646,15.38666 209.066677,14.72 206.719998,14.72 C204.426653,14.72 203.279998,15.5466584 203.279998,17.2 C203.279998,18.4800064 204.013324,19.4666632 205.479998,20.16 C206.946672,20.8533368 209.279982,21.6266624 212.479998,22.48 C216.480018,23.6000056 219.799985,24.7199944 222.439998,25.84 C225.080011,26.9600056 227.386655,28.7333212 229.359998,31.16 C231.333341,33.5866788 232.319998,36.7733136 232.319998,40.72 C232.319998,44.7733536 231.266675,48.1733196 229.159998,50.92 C227.053321,53.6666804 224.213349,55.70666 220.639998,57.04 C217.066647,58.37334 213.093353,59.04 208.719998,59.04 C203.759973,59.04 198.760023,58.2266748 193.719998,56.6 C188.679973,54.9733252 184.320017,52.7466808 180.639998,49.92 L187.519998,35.92 C190.346679,38.3733456 193.89331,40.466658 198.159998,42.2 C202.426686,43.933342 205.999984,44.8 208.879998,44.8 C210.266672,44.8 211.359994,44.5466692 212.159998,44.04 C212.960002,43.5333308 213.359998,42.746672 213.359998,41.68 C213.359998,40.3999936 212.600006,39.4000036 211.079998,38.68 C209.559991,37.9599964 207.173348,37.200004 203.919998,36.4 C199.973312,35.3866616 196.680011,34.3333388 194.039998,33.24 C191.399985,32.1466612 189.120008,30.4533448 187.199998,28.16 C185.279989,25.8666552 184.319998,22.8000192 184.319998,18.96 C184.319998,15.226648 185.306655,11.960014 187.279998,9.16 C189.253341,6.359986 192.053313,4.2133408 195.679998,2.72 C199.306683,1.2266592 203.519974,0.48 208.319998,0.48 C212.693353,0.48 217.05331,1.0933272 221.399998,2.32 C225.746687,3.5466728 229.519982,5.1733232 232.719998,7.2 L225.999998,21.36 C222.959983,19.5999912 219.57335,18.05334 215.839998,16.72 Z M240.019142,1.92 L258.579142,1.92 L258.579142,58 L240.019142,58 L240.019142,1.92 Z M265.878286,1.92 L316.358286,1.92 L316.358286,16.56 L300.358286,16.56 L300.358286,58 L281.798286,58 L281.798286,16.56 L265.878286,16.56 L265.878286,1.92 Z M323.65743,1.92 L371.09743,1.92 L371.09743,16 L342.21743,16 L342.21743,22.88 L368.45743,22.88 L368.45743,36.96 L342.21743,36.96 L342.21743,43.92 L371.81743,43.92 L371.81743,58 L323.65743,58 L323.65743,1.92 Z" id="DOCSITE-Copy" fill="#2B2B2B"></path>
            </g>
        </g>
    </g>
</svg>