<?xml version="1.0" encoding="UTF-8"?>
<svg width="77px" height="78px" viewBox="0 0 77 78" version="1.1" xmlns="http://www.w3.org/2000/svg" xmlns:xlink="http://www.w3.org/1999/xlink">
    <!-- Generator: Sketch 47.1 (45422) - http://www.bohemiancoding.com/sketch -->
    <title>statistics</title>
    <desc>Created with Sketch.</desc>
    <defs></defs>
    <g id="Page-1" stroke="none" stroke-width="1" fill="none" fill-rule="evenodd">
        <g id="Desktop-HD-Copy-21" transform="translate(-1043.000000, -2971.000000)" fill-rule="nonzero">
            <g id="statistics" transform="translate(1043.000000, 2971.000000)">
                <g id="Group" transform="translate(11.223729, 11.369492)" fill="#0C9CC2">
                    <rect id="Rectangle-path" x="0" y="10.1062147" width="7.46910039" height="12.6327684"></rect>
                    <rect id="Rectangle-path" x="12.4485007" y="3.78983051" width="7.46910039" height="18.9491525"></rect>
                    <rect id="Rectangle-path" x="24.8970013" y="0" width="7.46910039" height="22.7389831"></rect>
                </g>
                <g id="Group" fill="#333333">
                    <path d="M18.6290323,45.2903226 C11.0966935,45.2903226 4.96774194,51.498871 4.96774194,59.1290323 C4.96774194,66.7591935 11.0966935,72.9677419 18.6290323,72.9677419 C26.161371,72.9677419 32.2903226,66.7591935 32.2903226,59.1290323 C32.2903226,51.498871 26.161371,45.2903226 18.6290323,45.2903226 Z M18.6290323,70.4516129 C12.4653065,70.4516129 7.4516129,65.3728065 7.4516129,59.1290323 C7.4516129,53.3104839 11.8070806,48.5084516 17.3870968,47.8806774 L17.3870968,59.7580645 L26.7575,66.8774516 C24.7182419,69.0715161 21.8332258,70.4516129 18.6290323,70.4516129 Z M28.2490645,64.8658065 L19.8709677,58.5 L19.8709677,47.8806774 C25.4509839,48.5084516 29.8064516,53.3104839 29.8064516,59.1290323 C29.8064516,61.2237097 29.2314355,63.1812581 28.2490645,64.8658065 Z" id="Shape"></path>
                    <path d="M77,25.1612903 L77,5.03225806 L59.6129032,5.03225806 L59.6129032,0 L0,0 L0,78 L59.6129032,78 L59.6129032,72.9677419 L77,72.9677419 L77,52.8387097 L59.6129032,52.8387097 L59.6129032,49.0645161 L77,49.0645161 L77,28.9354839 L59.6129032,28.9354839 L59.6129032,25.1612903 L77,25.1612903 Z M74.516129,22.6451613 L54.6451613,22.6451613 L54.6451613,7.5483871 L74.516129,7.5483871 L74.516129,22.6451613 Z M57.1290323,75.483871 L2.48387097,75.483871 L2.48387097,2.51612903 L57.1290323,2.51612903 L57.1290323,5.03225806 L54.6451613,5.03225806 L52.1612903,5.03225806 L4.96774194,5.03225806 L4.96774194,40.2580645 L42.2258065,40.2580645 L42.2258065,37.7419355 L7.4516129,37.7419355 L7.4516129,7.5483871 L52.1612903,7.5483871 L52.1612903,13.8387097 L47.1935484,13.8387097 L47.1935484,37.7419355 L44.7096774,37.7419355 L44.7096774,40.2580645 L47.1935484,40.2580645 L47.1935484,64.1612903 L52.1612903,64.1612903 L52.1612903,72.9677419 L57.1290323,72.9677419 L57.1290323,75.483871 Z M52.1612903,28.9354839 L52.1612903,37.7419355 L49.6774194,37.7419355 L49.6774194,16.3548387 L52.1612903,16.3548387 L52.1612903,25.1612903 L52.1612903,28.9354839 Z M74.516129,70.4516129 L54.6451613,70.4516129 L54.6451613,55.3548387 L74.516129,55.3548387 L74.516129,70.4516129 Z M57.1290323,52.8387097 L52.1612903,52.8387097 L52.1612903,61.6451613 L49.6774194,61.6451613 L49.6774194,40.2580645 L52.1612903,40.2580645 L52.1612903,49.0645161 L57.1290323,49.0645161 L57.1290323,52.8387097 Z M74.516129,46.5483871 L54.6451613,46.5483871 L54.6451613,40.2580645 L54.6451613,31.4516129 L74.516129,31.4516129 L74.516129,46.5483871 Z M57.1290323,28.9354839 L54.6451613,28.9354839 L54.6451613,25.1612903 L57.1290323,25.1612903 L57.1290323,28.9354839 Z" id="Shape"></path>
                    <rect id="Rectangle-path" x="33.5322581" y="45.2903226" width="11.1774194" height="2.51612903"></rect>
                    <rect id="Rectangle-path" x="33.5322581" y="50.3225806" width="11.1774194" height="2.51612903"></rect>
                    <rect id="Rectangle-path" x="33.5322581" y="55.3548387" width="11.1774194" height="2.51612903"></rect>
                    <rect id="Rectangle-path" x="33.5322581" y="60.3870968" width="11.1774194" height="2.51612903"></rect>
                    <rect id="Rectangle-path" x="33.5322581" y="65.4193548" width="11.1774194" height="2.51612903"></rect>
                    <rect id="Rectangle-path" x="42.2258065" y="70.4516129" width="2.48387097" height="2.51612903"></rect>
                    <rect id="Rectangle-path" x="33.5322581" y="70.4516129" width="6.20967742" height="2.51612903"></rect>
                </g>
                <g id="Group" transform="translate(57.162712, 10.047458)" fill="#0C9CC2">
                    <rect id="Rectangle-path" x="0" y="0" width="14.8779661" height="10.0704495"></rect>
                    <rect id="Rectangle-path" x="0" y="47.8346352" width="14.8779661" height="10.0704495"></rect>
                    <rect id="Rectangle-path" x="0" y="23.9173176" width="14.8779661" height="10.0704495"></rect>
                </g>
            </g>
        </g>
    </g>
</svg>