<?xml version="1.0" encoding="UTF-8"?>
<svg width="78px" height="78px" viewBox="0 0 78 78" version="1.1" xmlns="http://www.w3.org/2000/svg" xmlns:xlink="http://www.w3.org/1999/xlink">
    <!-- Generator: Sketch 46.2 (44496) - http://www.bohemiancoding.com/sketch -->
    <title>analysis</title>
    <desc>Created with Sketch.</desc>
    <defs></defs>
    <g id="Page-1" stroke="none" stroke-width="1" fill="none" fill-rule="evenodd">
        <g id="Desktop-HD-Copy-21" transform="translate(-802.000000, -2513.000000)" fill-rule="nonzero">
            <g id="analysis" transform="translate(802.000000, 2513.000000)">
                <rect id="Rectangle-path" fill="#333333" x="46.3783784" y="26.3513514" width="5.00675676" height="2.63513514"></rect>
                <polygon id="Shape" fill="#333333" points="56.6074451 33.8716216 64.1535505 33.8716216 64.1535505 61.5202703 13.8464495 61.5202703 13.8464495 33.8716216 41.5155026 33.8716216 41.5155026 31.3581081 11.3310811 31.3581081 11.3310811 64.0337838 66.6689189 64.0337838 66.6689189 31.3581081 56.6074451 31.3581081"></polygon>
                <rect id="Rectangle-path" fill="#333333" x="46.3783784" y="31.3581081" width="5.00675676" height="2.63513514"></rect>
                <path d="M78,31.4516389 C78,24.6821344 73.1929187,19.0132817 66.6496413,17.838287 C66.1112568,7.91068246 57.8658684,0 47.8064516,0 C41.0103535,0 34.7011097,3.73513037 31.3787458,9.61922884 C30.2262916,9.08594551 28.9683613,8.8065555 27.6774194,8.8065555 C24.59392,8.8065555 21.7506271,10.4332441 20.164191,13.0285384 C18.9212903,12.7317033 17.6429626,12.5806019 16.3547045,12.5806019 C7.33716645,12.5806019 0,19.9177431 0,28.9355185 C0,33.942531 2.35133935,38.681694 6.29018839,41.7753814 L6.29018839,64.1612037 C6.29018839,66.9365852 8.54705548,69.1934445 11.3224465,69.1934445 L27.677151,69.1934445 L27.677151,75.4838796 L22.6448929,75.4838796 L22.6448929,78 L27.677151,78 L50.3225806,78 L55.3548387,78 L55.3548387,75.4838796 L50.3225806,75.4838796 L50.3225806,69.1934445 L66.6772852,69.1934445 C69.4526761,69.1934445 71.7095432,66.9365852 71.7095432,64.1612037 L71.7095432,43.0032482 C75.5957884,40.4568001 78,36.1127015 78,31.4516389 Z M47.8064516,75.4836112 L30.1935484,75.4836112 L30.1935484,69.1931761 L47.8064516,69.1931761 L47.8064516,75.4836112 Z M71.7098116,39.8427326 L71.7098116,31.4513705 C71.7098116,28.6759891 69.4529445,26.4191297 66.6775535,26.4191297 L56.6130374,26.4191297 L56.6130374,28.9352501 L66.6775535,28.9352501 C68.0651148,28.9352501 69.1936826,30.063814 69.1936826,31.4513705 L69.1936826,64.1609354 C69.1936826,65.5484919 68.0651148,66.6770557 66.6775535,66.6770557 L50.3225806,66.6770557 L27.6774194,66.6770557 L11.3227148,66.6770557 C9.93515355,66.6770557 8.80658581,65.5484919 8.80658581,64.1609354 L8.80658581,31.4516389 C8.80658581,30.0640824 9.93515355,28.9355185 11.3227148,28.9355185 L41.5162632,28.9355185 L41.5162632,26.4193981 L11.3227148,26.4193981 C8.54732387,26.4193981 6.29045677,28.6762575 6.29045677,31.4516389 L6.29045677,38.3773441 C3.90395871,35.832238 2.51639742,32.4645283 2.51639742,28.9355185 C2.51639742,21.3052996 8.72499613,15.0967222 16.3549729,15.0967222 C17.7425342,15.0967222 19.1139923,15.3031112 20.4323097,15.7094479 L21.4916335,16.0366106 L21.9495019,15.0250631 C22.9672258,12.7757186 25.2155045,11.3226759 27.6774194,11.3226759 C28.9366916,11.3226759 30.1532903,11.693854 31.1924852,12.3970257 L32.4064,13.2161403 L33.0328155,11.8913862 C35.7301058,6.19623158 41.528609,2.51638876 47.8061832,2.51638876 C56.8239897,2.51638876 64.1608877,9.85326158 64.1622297,18.8082346 L64.1571303,20.0750174 L65.290529,20.1869344 C71.10272,20.7618176 75.4833342,25.6053829 75.4833342,31.4516389 C75.483871,34.6784458 74.0686658,37.7165773 71.7098116,39.8427326 Z" id="Shape" fill="#333333"></path>
                <polygon id="Shape" fill="#E86726" points="27.6689189 56.3918919 20.027027 56.3918919 20.027027 36.3648649 27.6689189 36.3648649"></polygon>
                <polygon id="Shape" fill="#E86726" points="37.6824324 56.3918919 30.0405405 56.3918919 30.0405405 41.3716216 37.6824324 41.3716216"></polygon>
                <polygon id="Shape" fill="#E86726" points="47.9594595 56.6554054 40.3175676 56.6554054 40.3175676 22.6621622 47.9594595 22.6621622"></polygon>
                <polygon id="Shape" fill="#E86726" points="57.972973 56.6554054 50.3310811 56.6554054 50.3310811 16.3378378 57.972973 16.3378378"></polygon>
                <rect id="Rectangle-path" fill="#333333" x="17.6554054" y="54.0202703" width="42.6891892" height="2.63513514"></rect>
            </g>
        </g>
    </g>
</svg>