<?xml version="1.0" encoding="UTF-8"?>
<svg width="78px" height="78px" viewBox="0 0 78 78" version="1.1" xmlns="http://www.w3.org/2000/svg" xmlns:xlink="http://www.w3.org/1999/xlink">
    <!-- Generator: Sketch 46.2 (44496) - http://www.bohemiancoding.com/sketch -->
    <title>website</title>
    <desc>Created with Sketch.</desc>
    <defs></defs>
    <g id="Page-1" stroke="none" stroke-width="1" fill="none" fill-rule="evenodd">
        <g id="Desktop-HD-Copy-21" transform="translate(-322.000000, -2513.000000)" fill-rule="nonzero">
            <g id="website" transform="translate(322.000000, 2513.000000)">
                <rect id="Rectangle-path" fill="#E86726" x="5.01940541" y="15.0579527" width="40.1544527" height="27.6062027"></rect>
                <path d="M0,0 L0,77.7992027 L77.7992027,77.7992027 L77.7992027,0 L0,0 Z M75.2895,2.5097027 L75.2895,10.0385473 L2.5097027,10.0385473 L2.5097027,2.5097027 L75.2895,2.5097027 Z M2.5097027,75.2895 L2.5097027,12.54825 L75.2895,12.54825 L75.2895,75.2895 L2.5097027,75.2895 Z" id="Shape" fill="#333333"></path>
                <circle id="Oval" fill="#333333" cx="6.27425676" cy="6.27425676" r="1.25485135"></circle>
                <circle id="Oval" fill="#333333" cx="10.0385473" cy="6.27425676" r="1.25485135"></circle>
                <circle id="Oval" fill="#333333" cx="13.8031014" cy="6.27425676" r="1.25485135"></circle>
                <path d="M20.0770946,21.6784662 L20.0770946,36.0425878 L32.6453716,28.8613176 L20.0770946,21.6784662 Z M22.5867973,26.0050946 L27.5859122,28.8610541 L22.5867973,31.7170135 L22.5867973,26.0050946 Z" id="Shape" fill="#333333"></path>
                <rect id="Rectangle-path" fill="#333333" x="47.6832973" y="15.0579527" width="25.0965" height="2.5097027"></rect>
                <rect id="Rectangle-path" fill="#333333" x="47.6832973" y="21.3319459" width="25.0965" height="2.5097027"></rect>
                <rect id="Rectangle-path" fill="#333333" x="47.6832973" y="27.6062027" width="25.0965" height="2.5097027"></rect>
                <rect id="Rectangle-path" fill="#333333" x="47.6832973" y="33.8801959" width="25.0965" height="2.5097027"></rect>
                <rect id="Rectangle-path" fill="#333333" x="47.6832973" y="40.1544527" width="25.0965" height="2.5097027"></rect>
                <rect id="Rectangle-path" fill="#333333" x="5.01940541" y="46.4284459" width="67.7606554" height="2.5097027"></rect>
                <path d="M25.0965,52.7027027 L5.01940541,52.7027027 L5.01940541,66.5058041 L25.0965,66.5058041 L25.0965,52.7027027 Z M22.5867973,63.9961014 L7.52884459,63.9961014 L7.52884459,55.2124054 L22.5867973,55.2124054 C22.5867973,55.2124054 22.5867973,63.9961014 22.5867973,63.9961014 Z" id="Shape" fill="#333333"></path>
                <rect id="Rectangle-path" fill="#333333" x="5.01940541" y="70.2703581" width="67.7606554" height="2.5097027"></rect>
                <path d="M28.8610541,52.7027027 L28.8610541,66.5058041 L48.9381486,66.5058041 L48.9381486,52.7027027 L28.8610541,52.7027027 Z M46.4284459,63.9961014 L31.3704932,63.9961014 L31.3704932,55.2124054 L46.4284459,55.2124054 L46.4284459,63.9961014 Z" id="Shape" fill="#333333"></path>
                <path d="M52.7027027,66.5058041 L72.7797973,66.5058041 L72.7797973,52.7027027 L52.7027027,52.7027027 L52.7027027,66.5058041 Z M55.2124054,55.2124054 L70.2703581,55.2124054 L70.2703581,63.9961014 L55.2124054,63.9961014 L55.2124054,55.2124054 L55.2124054,55.2124054 Z" id="Shape" fill="#333333"></path>
            </g>
        </g>
    </g>
</svg>