<?xml version="1.0" encoding="UTF-8"?>
<svg width="53px" height="38px" viewBox="0 0 53 38" version="1.1" xmlns="http://www.w3.org/2000/svg" xmlns:xlink="http://www.w3.org/1999/xlink">
    <!-- Generator: Sketch 42 (36781) - http://www.bohemiancoding.com/sketch -->
    <title>Group</title>
    <desc>Created with Sketch.</desc>
    <defs></defs>
    <g id="Page-1" stroke="none" stroke-width="1" fill="none" fill-rule="evenodd">
        <g id="Desktop-HD-Copy" transform="translate(-816.000000, -4495.000000)" fill-rule="nonzero" fill="#FFFFFF">
            <g id="Group" transform="translate(816.000000, 4495.000000)">
                <path d="M50.0586082,0.011700565 L2.94128367,0.011700565 C1.31948367,0.011700565 0,1.3210904 0,2.93061582 L0,35.0691695 C0,36.6786949 1.31948367,37.9881921 2.94128367,37.9881921 L50.0586082,37.9881921 C51.6805163,37.9881921 53,36.6786949 53,35.0691695 L53,2.93061582 C53,1.3210904 51.6805163,0.011700565 50.0586082,0.011700565 Z M2.94128367,2.15859322 L50.0586082,2.15859322 C50.4876918,2.15859322 50.8367347,2.50499435 50.8367347,2.93061582 L50.8367347,6.23672316 L2.16326531,6.23672316 L2.16326531,2.93061582 C2.16326531,2.50488701 2.5122,2.15859322 2.94128367,2.15859322 Z M50.0586082,35.8414068 L2.94128367,35.8414068 C2.51230816,35.8414068 2.16326531,35.4950056 2.16326531,35.0692768 L2.16326531,8.38361582 L50.8367347,8.38361582 L50.8367347,35.0692768 C50.8367347,35.495113 50.4875837,35.8414068 50.0586082,35.8414068 Z" id="Shape"></path>
                <path d="M20.3467,15.289096 C19.9243224,14.8699153 19.2394327,14.8700226 18.8170551,15.2892034 L13.9332673,20.1360282 C13.7304612,20.3372994 13.6164571,20.6103842 13.6164571,20.8950621 C13.6164571,21.1797401 13.7304612,21.4527175 13.9332673,21.654096 L18.8170551,26.5008136 C19.028298,26.7104576 19.3050878,26.815226 19.5818776,26.815226 C19.8586673,26.815226 20.1355653,26.7103503 20.3467,26.5008136 C20.7690776,26.0816328 20.7690776,25.4019266 20.3465918,24.9826384 L16.2276265,20.8949548 L20.3467,16.8070565 C20.7691857,16.3880904 20.7691857,15.7082768 20.3467,15.289096 Z" id="Shape"></path>
                <path d="M33.4129306,15.2892034 C32.9905531,14.8700226 32.3058796,14.8700226 31.8831776,15.289096 C31.4608,15.7082768 31.4608,16.3879831 31.8831776,16.8072712 L36.0021429,20.8951695 L31.8831776,24.9828531 C31.4608,25.4020339 31.4608,26.0817401 31.8831776,26.5010282 C32.0944204,26.7106723 32.3712102,26.8154407 32.648,26.8154407 C32.9247898,26.8154407 33.2015796,26.710565 33.4128224,26.5010282 L38.2966102,21.6543107 C38.4994163,21.4529322 38.6134204,21.1799548 38.6134204,20.8952768 C38.6134204,20.6105989 38.4994163,20.3375141 38.2966102,20.1362429 L33.4129306,15.2892034 Z" id="Shape"></path>
                <path d="M29.1598429,15.0900791 C28.6264898,14.8226836 27.9759959,15.0350113 27.7065612,15.5642203 L22.5922776,25.6107119 C22.322951,26.1398136 22.5367898,26.7854915 23.0700347,27.052887 C23.2264388,27.1312486 23.392902,27.1683898 23.5568776,27.1683898 C23.951998,27.1683898 24.3327327,26.9527345 24.5232082,26.5788531 L29.6374918,16.5323616 C29.9068184,16.0031525 29.6929796,15.3574746 29.1598429,15.0900791 Z" id="Shape"></path>
            </g>
        </g>
    </g>
</svg>