<?xml version="1.0" encoding="UTF-8"?>
<svg width="46px" height="41px" viewBox="0 0 46 41" version="1.1" xmlns="http://www.w3.org/2000/svg" xmlns:xlink="http://www.w3.org/1999/xlink">
    <!-- Generator: Sketch 42 (36781) - http://www.bohemiancoding.com/sketch -->
    <title>Shape</title>
    <desc>Created with Sketch.</desc>
    <defs></defs>
    <g id="Page-1" stroke="none" stroke-width="1" fill="none" fill-rule="evenodd">
        <g id="Desktop-HD-Copy" transform="translate(-576.000000, -4494.000000)" fill-rule="nonzero" fill="#FFFFFF">
            <path d="M621.99982,4514.46701 C621.99982,4513.49482 621.459682,4512.62064 620.589818,4512.18517 L617.164808,4510.47266 L620.589818,4508.76025 C620.589908,4508.76016 620.590177,4508.76007 620.590177,4508.76007 C621.459861,4508.32478 622,4507.45051 622,4506.47832 C622,4505.5063 621.459772,4504.63203 620.589998,4504.19656 L601.254081,4494.52887 C599.842462,4493.82369 598.157179,4493.82369 596.74529,4494.52896 L577.409733,4504.19701 C576.540229,4504.63212 576,4505.5063 576,4506.47841 C576,4507.4506 576.540139,4508.32478 577.410002,4508.76025 L580.834923,4510.47266 L577.409553,4512.18535 C576.540139,4512.62064 576,4513.49482 576,4514.46701 C576,4515.43921 576.540139,4516.31338 577.410002,4516.74876 L580.834923,4518.46127 L577.410272,4520.17359 C576.540857,4520.60799 576.00036,4521.48189 576,4522.45418 C575.999641,4523.427 576.539779,4524.30172 577.410002,4524.73728 L596.74565,4534.40515 C597.451459,4534.75778 598.22546,4534.93397 598.99982,4534.93397 C599.774181,4534.93397 600.548541,4534.7576 601.25444,4534.40506 L620.590088,4524.73719 C621.459951,4524.3019 622.00018,4523.42709 621.99982,4522.45427 C621.999461,4521.48198 621.458963,4520.60808 620.589818,4520.17395 L617.164808,4518.46145 L620.590177,4516.74876 C621.459682,4516.31338 621.99982,4515.43921 621.99982,4514.46701 Z M578.356143,4506.86896 C578.146,4506.76375 578.114734,4506.57912 578.114734,4506.4785 C578.114734,4506.37787 578.146179,4506.19324 578.355784,4506.08831 L597.690802,4496.4208 C598.100758,4496.21595 598.550424,4496.11371 599.00009,4496.11371 C599.449576,4496.11371 599.899153,4496.21604 600.308839,4496.42071 L619.643767,4506.08813 C619.853731,4506.19324 619.885176,4506.37787 619.885176,4506.4785 C619.885176,4506.57912 619.853911,4506.76375 619.643767,4506.86896 L600.309108,4516.53619 C599.489287,4516.9457 598.510533,4516.9457 597.691161,4516.53628 L578.356143,4506.86896 Z M619.644396,4522.06543 C619.853731,4522.17 619.885086,4522.35427 619.885086,4522.45499 C619.885176,4522.55588 619.853821,4522.74087 619.644037,4522.84581 L600.309018,4532.51332 C599.489197,4532.92282 598.510443,4532.92291 597.691072,4532.51341 L578.356143,4522.8459 C578.146,4522.74069 578.114644,4522.55579 578.114734,4522.4549 C578.114734,4522.35436 578.146,4522.17 578.355784,4522.06525 L583.199421,4519.64343 L596.74565,4526.41645 C597.451459,4526.76909 598.22546,4526.94527 598.999731,4526.94527 C599.774091,4526.94527 600.548451,4526.76891 601.254351,4526.41636 L614.80022,4519.64343 L619.644396,4522.06543 Z M619.643947,4514.85729 L600.309018,4524.5248 C599.489197,4524.93431 598.510443,4524.9344 597.691072,4524.52489 L578.356143,4514.85747 C578.146,4514.75235 578.114734,4514.56773 578.114734,4514.4671 C578.114734,4514.3663 578.146,4514.18185 578.355784,4514.07682 L583.199421,4511.655 L596.74565,4518.42803 C597.451369,4518.78066 598.22555,4518.95685 598.999731,4518.95685 C599.773911,4518.95685 600.548361,4518.78057 601.254261,4518.42785 L614.800309,4511.65491 L619.643587,4514.07655 C619.853731,4514.18176 619.884997,4514.3663 619.884997,4514.46701 C619.885086,4514.56764 619.853731,4514.75226 619.643947,4514.85729 Z" id="Shape"></path>
        </g>
    </g>
</svg>