<?xml version="1.0" encoding="UTF-8"?>
<svg width="55px" height="55px" viewBox="0 0 55 55" version="1.1" xmlns="http://www.w3.org/2000/svg" xmlns:xlink="http://www.w3.org/1999/xlink">
    <!-- Generator: Sketch 42 (36781) - http://www.bohemiancoding.com/sketch -->
    <title>think</title>
    <desc>Created with Sketch.</desc>
    <defs></defs>
    <g id="Page-1" stroke="none" stroke-width="1" fill="none" fill-rule="evenodd">
        <g id="Desktop-HD-Copy" transform="translate(-328.000000, -4488.000000)" fill-rule="nonzero" fill="#FFFFFF">
            <g id="think" transform="translate(328.000000, 4488.000000)">
                <path d="M36.6666309,0 C31.2675,0 26.2510059,2.32600586 22.75625,6.41899414 C20.508125,5.21586914 18.0102441,4.58336914 15.46875,4.58336914 C6.93913086,4.58336914 0,11.5225 0,20.0521191 C0,28.5817383 6.93913086,35.5208691 15.46875,35.5208691 L15.6016309,35.5208691 C16.9903809,38.98125 20.288125,41.25 24.0625,41.25 C27.555,41.25 30.724375,39.2310059 32.2528809,36.1303809 C33.694375,36.485625 35.1747559,36.6666309 36.6666309,36.6666309 C46.7751367,36.6666309 55,28.441875 55,18.3332617 C55,8.22464844 46.7752441,0 36.6666309,0 Z M36.664375,34.375 C35.0533691,34.375 33.460625,34.1366309 31.9275,33.6622559 C31.3453809,33.48125 30.7175,33.7975 30.51125,34.375 C29.5396191,37.1158691 26.9477441,38.9583691 24.0625,38.9583691 C21.0053809,38.9583691 18.3677441,36.966875 17.4991309,34.0061133 C17.3547559,33.5157324 16.7428809,33.1948633 16.2203809,33.1948633 L16.1332617,33.1948633 C15.9110059,33.2108691 15.6910059,33.2269824 15.4663867,33.2269824 C8.19951172,33.2269824 2.28926758,27.3144824 2.28926758,20.0498633 C2.28926758,12.7852441 8.19961914,6.87274414 15.4664941,6.87274414 C17.91625,6.87274414 20.3202441,7.56486328 22.419375,8.87336914 C22.9189941,9.185 23.574375,9.068125 23.9341309,8.59836914 C27.0072559,4.59024414 31.6478809,2.29173828 36.664375,2.29173828 C45.5078809,2.29173828 52.7060059,9.48760742 52.7060059,18.3333691 C52.7060059,27.1791309 45.5078809,34.375 36.664375,34.375 Z" id="Shape"></path>
                <path d="M16.0416309,41.25 C13.5138867,41.25 11.4582617,43.305625 11.4582617,45.8333691 C11.4582617,48.3611133 13.5138867,50.4167383 16.0416309,50.4167383 C18.569375,50.4167383 20.625,48.3611133 20.625,45.8333691 C20.625,43.305625 18.569375,41.25 16.0416309,41.25 Z M16.0416309,48.125 C14.7766309,48.125 13.75,47.0960059 13.75,45.8333691 C13.75,44.5707324 14.7766309,43.5417383 16.0416309,43.5417383 C17.3066309,43.5417383 18.3332617,44.5707324 18.3332617,45.8333691 C18.3332617,47.0960059 17.3066309,48.125 16.0416309,48.125 Z" id="Shape"></path>
                <path d="M5.72913086,48.125 C3.83388672,48.125 2.29163086,49.6672559 2.29163086,51.5625 C2.29163086,53.4577441 3.83388672,55 5.72913086,55 C7.624375,55 9.16663086,53.4577441 9.16663086,51.5625 C9.16663086,49.6672559 7.624375,48.125 5.72913086,48.125 Z M5.72913086,52.7083691 C5.09888672,52.7083691 4.58326172,52.195 4.58326172,51.5625 C4.58326172,50.93 5.09888672,50.4166309 5.72913086,50.4166309 C6.359375,50.4166309 6.875,50.93 6.875,51.5625 C6.875,52.195 6.359375,52.7083691 5.72913086,52.7083691 Z" id="Shape"></path>
            </g>
        </g>
    </g>
</svg>