<?xml version="1.0" encoding="UTF-8"?>
<svg width="49px" height="57px" viewBox="0 0 49 57" version="1.1" xmlns="http://www.w3.org/2000/svg" xmlns:xlink="http://www.w3.org/1999/xlink">
    <!-- Generator: Sketch 42 (36781) - http://www.bohemiancoding.com/sketch -->
    <title>Group</title>
    <desc>Created with Sketch.</desc>
    <defs></defs>
    <g id="Page-1" stroke="none" stroke-width="1" fill="none" fill-rule="evenodd">
        <g id="Desktop-HD-Copy" transform="translate(-1062.000000, -4488.000000)" fill-rule="nonzero" fill="#FFFFFF">
            <g id="Group" transform="translate(1062.000000, 4488.000000)">
                <path d="M19.29032,6.30865236 C19.92536,6.51781545 20.526345,6.78544635 21.0767375,7.10420601 C21.2219,7.1882382 21.380415,7.22823605 21.5368475,7.22823605 C21.8536325,7.22823605 22.161965,7.06433047 22.332485,6.77101288 C22.58704,6.33274893 22.43759,5.77143348 21.9986725,5.51713519 C21.3386425,5.1348927 20.6210375,4.81503219 19.8657025,4.5662382 C19.3840325,4.40771459 18.8643875,4.66886266 18.7053825,5.15006009 C18.5466225,5.63125751 18.8085275,6.15000644 19.29032,6.30865236 Z" id="Shape"></path>
                <path d="M25.51969,16.1292876 C25.51969,17.4977768 25.3605625,18.8966009 25.0467175,20.286618 C24.93512,20.7809034 25.2459025,21.2718863 25.740925,21.3833176 C25.8089125,21.3986073 25.8769,21.4059464 25.943785,21.4059464 C26.3638375,21.4059464 26.742975,21.1164206 26.83926,20.6901438 C27.182995,19.1679013 27.3573125,17.633427 27.3573125,16.1292876 C27.3573125,12.9257897 26.5742925,10.257309 25.0300575,8.19833691 C24.7260125,7.79285408 24.1500175,7.71016738 23.74393,8.01388197 C23.3378425,8.31759657 23.2550325,8.89261159 23.5592,9.29809442 C24.8600275,11.0326803 25.51969,13.3310279 25.51969,16.1292876 L25.51969,16.1292876 Z" id="Shape"></path>
                <path d="M12.251715,30.1374657 C9.9684375,28.5824421 7.9268525,25.6003391 6.7902975,22.1606459 C6.6312925,21.6794485 6.111525,21.4181781 5.629855,21.5769464 C5.14794,21.7357146 4.88628,22.2544635 5.045285,22.7356609 C6.3228375,26.6019979 8.5721825,29.8523433 11.216345,31.6533476 C11.3747375,31.7612318 11.554935,31.8129721 11.7331725,31.8129721 C12.0266825,31.8129721 12.31517,31.6727961 12.49304,31.4125043 C12.7788325,30.9936888 12.67091,30.4229549 12.251715,30.1374657 L12.251715,30.1374657 Z" id="Shape"></path>
                <path d="M44.333975,14.9821931 C41.53681,12.2619721 37.6176675,10.7639485 33.29844,10.7639485 C32.387285,10.7639485 31.4865425,10.8314678 30.61079,10.9628369 C29.8815475,8.31943133 28.562345,6.03527253 26.693975,4.21824464 C23.89681,1.49802361 19.9776675,0 15.65844,0 C11.3392125,0 7.42007,1.49802361 4.622905,4.21824464 C1.6244725,7.13417382 0.0395675,11.2529742 0.0395675,16.1292876 C0.0395675,21.0955043 1.6695525,26.2647682 4.511675,30.3116459 C6.93448,33.7617361 9.9238475,35.9816781 13.1161975,36.75497 C12.9017,37.1570279 12.7795675,37.6153519 12.7795675,38.101809 L12.7795675,40.0588906 C12.7795675,40.56553 13.1909225,40.9762725 13.6983175,40.9762725 L14.685055,40.9762725 C14.6102075,41.5405236 14.466515,41.923133 14.3081225,42.3448841 C14.050995,43.0291288 13.7595675,43.804867 13.7595675,45.2753691 C13.7595675,46.7467275 14.0508725,47.5227103 14.308,48.2074442 C14.5396475,48.8241695 14.7395675,49.3567403 14.7395675,50.4955172 C14.7395675,51.634294 14.5396475,52.1668648 14.308,52.7835901 C14.0508725,53.468324 13.7595675,54.2443069 13.7595675,55.7156652 C13.7595675,56.2223047 14.1709225,56.6330472 14.6783175,56.6330472 C15.1857125,56.6330472 15.5970675,56.2223047 15.5970675,55.7156652 C15.5970675,54.5770107 15.7969875,54.0444399 16.0285125,53.4277146 C16.28564,52.7429807 16.5770675,51.9669979 16.5770675,50.4956395 C16.5770675,49.0242811 16.28564,48.248176 16.0285125,47.5635644 C15.7969875,46.9468391 15.5970675,46.4142682 15.5970675,45.2756137 C15.5970675,44.1379378 15.7969875,43.6057339 16.0285125,42.9896202 C16.2259825,42.4640215 16.443175,41.8832575 16.53358,40.9765172 L17.6183175,40.9765172 C18.1257125,40.9765172 18.5370675,40.5657747 18.5370675,40.0591352 L18.5370675,38.1020536 C18.5370675,37.6155966 18.414935,37.1572725 18.2004375,36.7552146 C18.6637325,36.6430494 19.12274,36.500427 19.57648,36.3278369 C21.990465,42.255103 26.176045,46.3807532 30.7596275,47.5124356 C30.542925,47.9160837 30.4195675,48.3768541 30.4195675,48.8661245 L30.4195675,50.823206 C30.4195675,51.3298455 30.8309225,51.740588 31.3383175,51.740588 L32.325055,51.740588 C32.2502075,52.3048391 32.106515,52.6874485 31.9481225,53.1091996 C31.690995,53.7934442 31.3995675,54.5691824 31.3995675,56.0396845 C31.3995675,56.546324 31.8109225,56.9570665 32.3183175,56.9570665 C32.8257125,56.9570665 33.2370675,56.546324 33.2370675,56.0396845 C33.2370675,54.9020086 33.4369875,54.3698047 33.6685125,53.753691 C33.8659825,53.2280923 34.083175,52.6473283 34.17358,51.740588 L35.2583175,51.740588 C35.7657125,51.740588 36.1770675,51.3298455 36.1770675,50.823206 L36.1770675,48.8661245 C36.1770675,48.3796674 36.054935,47.9213433 35.8404375,47.5192854 C39.0327875,46.7459936 42.022155,44.5259292 44.44496,41.0759614 C47.28696,37.0290837 48.916945,31.8598197 48.916945,26.893603 C48.91719,22.0169227 47.332285,17.8981223 44.333975,14.9821931 L44.333975,14.9821931 Z M6.01622,29.2582468 C3.3857775,25.5126373 1.87719,20.7273283 1.87719,16.1292876 C1.87719,11.7593691 3.270015,8.09510086 5.90499,5.53266953 C8.3570725,3.14796567 11.8208825,1.83476395 15.65844,1.83476395 C19.4959975,1.83476395 22.95993,3.14796567 25.41189,5.53254721 C28.046865,8.09510086 29.43969,11.7593691 29.43969,16.1291652 C29.43969,20.7273283 27.9311025,25.5126373 25.30066,29.2581245 C22.59733,33.1075815 19.1730875,35.2274678 15.65844,35.2274678 C12.1437925,35.2274678 8.7194275,33.1075815 6.01622,29.2582468 L6.01622,29.2582468 Z M16.69969,38.1019313 L16.69969,39.1416309 L14.61719,39.1416309 L14.61719,38.1019313 C14.61719,37.5286288 15.0842825,37.0622318 15.65844,37.0622318 C16.2325975,37.0622318 16.69969,37.5286288 16.69969,38.1019313 Z M34.33969,48.8658798 L34.33969,49.9055794 L32.25719,49.9055794 L32.25719,48.8658798 C32.25719,48.2925773 32.7242825,47.8261803 33.29844,47.8261803 C33.8725975,47.8261803 34.33969,48.2925773 34.33969,48.8658798 Z M42.94066,40.0221953 C40.23733,43.87153 36.8130875,45.9914163 33.29844,45.9914163 C30.821245,45.9914163 28.3422125,44.9134313 26.1293725,42.8741524 C24.1407075,41.0414678 22.4188475,38.454206 21.2435825,35.5465944 C21.8418725,35.2111996 22.4276675,34.821985 22.997905,34.3802961 C24.312085,37.8569292 26.4155325,40.7547554 28.856345,42.4170515 C29.0147375,42.5249356 29.194935,42.576676 29.3731725,42.576676 C29.6666825,42.576676 29.95517,42.4365 30.13304,42.1762082 C30.418955,41.7576373 30.31091,41.1869034 29.891715,40.9014142 C27.6422475,39.3693863 25.62798,36.4519893 24.4819925,33.0766352 C25.30066,32.2688498 26.0786575,31.3462082 26.805205,30.3116459 C29.647205,26.2647682 31.27719,21.0955043 31.27719,16.1292876 C31.27719,14.959809 31.18507,13.8346094 31.0051175,12.7583369 C31.752245,12.6522876 32.5206875,12.5987124 33.29844,12.5987124 C37.1359975,12.5987124 40.59993,13.9119142 43.05189,16.2964957 C45.686865,18.8590494 47.07969,22.5233176 47.07969,26.8931137 C47.07969,31.4913991 45.5711025,36.2767082 42.94066,40.0221953 L42.94066,40.0221953 Z" id="Shape"></path>
                <path d="M42.669935,18.9621631 C42.36589,18.5566803 41.789895,18.4739936 41.3838075,18.7777082 C40.97772,19.0814227 40.89491,19.6564378 41.1990775,20.0619206 C42.5000275,21.7965064 43.15969,24.0948541 43.15969,26.8931137 C43.15969,28.261603 43.0005625,29.660427 42.6867175,31.0504442 C42.57512,31.5447296 42.8859025,32.0357124 43.380925,32.1471438 C43.4489125,32.1624335 43.5169,32.1697725 43.583785,32.1697725 C44.0038375,32.1697725 44.382975,31.8802468 44.47926,31.45397 C44.822995,29.9317275 44.9973125,28.3972532 44.9973125,26.8931137 C44.99719,23.6896159 44.21417,21.0212575 42.669935,18.9621631 L42.669935,18.9621631 Z" id="Shape"></path>
                <path d="M39.638795,16.2810837 C38.978765,15.8988412 38.26116,15.5789807 37.505825,15.3301867 C37.0240325,15.1716631 36.50451,15.4328112 36.345505,15.9140086 C36.1866225,16.395206 36.448405,16.9138326 36.9301975,17.0726009 C37.5652375,17.2817639 38.1662225,17.5493948 38.716615,17.8681545 C38.8617775,17.9521867 39.0202925,17.9921845 39.176725,17.9921845 C39.49351,17.9921845 39.8018425,17.828279 39.9723625,17.5349614 C40.2271625,17.0966974 40.0777125,16.535382 39.638795,16.2810837 L39.638795,16.2810837 Z" id="Shape"></path>
            </g>
        </g>
    </g>
</svg>