<?xml version="1.0" encoding="UTF-8"?>
<svg width="77px" height="78px" viewBox="0 0 77 78" version="1.1" xmlns="http://www.w3.org/2000/svg" xmlns:xlink="http://www.w3.org/1999/xlink">
    <!-- Generator: Sketch 46.2 (44496) - http://www.bohemiancoding.com/sketch -->
    <title>diagram</title>
    <desc>Created with Sketch.</desc>
    <defs></defs>
    <g id="Page-1" stroke="none" stroke-width="1" fill="none" fill-rule="evenodd">
        <g id="Desktop-HD-Copy-21" transform="translate(-563.000000, -2513.000000)" fill-rule="nonzero">
            <g id="diagram" transform="translate(563.000000, 2513.000000)">
                <path d="M69.5483871,30.3238962 L69.5483871,22.6796264 L39.7419355,22.6796264 L39.7419355,16.3932203 L37.2580645,16.3932203 L37.2580645,22.6796264 L7.4516129,22.6796264 L7.4516129,30.3238962 C3.24641935,30.9374495 0,34.5999097 0,39.0242823 C0,43.8761305 3.90091935,47.8252508 8.69354839,47.8252508 C13.4861774,47.8252508 17.3870968,43.8761305 17.3870968,39.0242823 C17.3870968,34.5999097 14.1406774,30.9374495 9.93548387,30.3238962 L9.93548387,25.1941889 L22.3548387,25.1941889 L22.3548387,60.4986455 C18.1496452,61.1121987 14.9032258,64.7746589 14.9032258,69.1990315 C14.9032258,74.0508797 18.8041452,78 23.5967742,78 C28.3894032,78 32.2903226,74.0508797 32.2903226,69.1990315 C32.2903226,64.7746589 29.0439032,61.1121987 24.8387097,60.4986455 L24.8387097,25.1941889 L37.2580645,25.1941889 L37.2580645,30.3238962 C33.052871,30.9374495 29.8064516,34.5999097 29.8064516,39.0242823 C29.8064516,43.4486549 33.052871,47.111115 37.2580645,47.7246683 L37.2580645,55.3689381 L52.1612903,55.3689381 L52.1612903,60.4986455 C47.9560968,61.1121987 44.7096774,64.7746589 44.7096774,69.1990315 C44.7096774,74.0508797 48.6105968,78 53.4032258,78 C58.1958548,78 62.0967742,74.0508797 62.0967742,69.1990315 C62.0967742,64.7746589 58.8503548,61.1121987 54.6451613,60.4986455 L54.6451613,52.8543756 L39.7419355,52.8543756 L39.7419355,47.7246683 C43.947129,47.111115 47.1935484,43.4486549 47.1935484,39.0242823 C47.1935484,34.5999097 43.947129,30.9374495 39.7419355,30.3238962 L39.7419355,25.1941889 L67.0645161,25.1941889 L67.0645161,30.3238962 C62.8593226,30.9374495 59.6129032,34.5999097 59.6129032,39.0242823 C59.6129032,43.8761305 63.5138226,47.8252508 68.3064516,47.8252508 C73.0990806,47.8252508 77,43.8761305 77,39.0242823 C77,34.5999097 73.7535806,30.9374495 69.5483871,30.3238962 Z M14.9032258,39.0242823 C14.9032258,42.4906066 12.1175645,45.3106883 8.69354839,45.3106883 C5.26953226,45.3106883 2.48387097,42.4906066 2.48387097,39.0242823 C2.48387097,35.5579579 5.26953226,32.7378762 8.69354839,32.7378762 C12.1175645,32.7378762 14.9032258,35.5579579 14.9032258,39.0242823 Z M29.8064516,69.1990315 C29.8064516,72.6653558 27.0207903,75.4854376 23.5967742,75.4854376 C20.1727581,75.4854376 17.3870968,72.6653558 17.3870968,69.1990315 C17.3870968,65.7327072 20.1727581,62.9126254 23.5967742,62.9126254 C27.0207903,62.9126254 29.8064516,65.7327072 29.8064516,69.1990315 Z M59.6129032,69.1990315 C59.6129032,72.6653558 56.8272419,75.4854376 53.4032258,75.4854376 C49.9792097,75.4854376 47.1935484,72.6653558 47.1935484,69.1990315 C47.1935484,65.7327072 49.9792097,62.9126254 53.4032258,62.9126254 C56.8272419,62.9126254 59.6129032,65.7327072 59.6129032,69.1990315 Z M44.7096774,39.0242823 C44.7096774,42.4906066 41.9240161,45.3106883 38.5,45.3106883 C35.0759839,45.3106883 32.2903226,42.4906066 32.2903226,39.0242823 C32.2903226,35.5579579 35.0759839,32.7378762 38.5,32.7378762 C41.9240161,32.7378762 44.7096774,35.5579579 44.7096774,39.0242823 Z M68.3064516,45.3106883 C64.8824355,45.3106883 62.0967742,42.4906066 62.0967742,39.0242823 C62.0967742,35.5579579 64.8824355,32.7378762 68.3064516,32.7378762 C71.7304677,32.7378762 74.516129,35.5579579 74.516129,39.0242823 C74.516129,42.4906066 71.7304677,45.3106883 68.3064516,45.3106883 Z" id="Shape" fill="#333333"></path>
                <path d="M38.5,17.7152542 C33.6795203,17.7152542 29.7559322,13.7407104 29.7559322,8.85762712 C29.7559322,3.97454383 33.6795203,0 38.5,0 C43.3204797,0 47.2440678,3.97454383 47.2440678,8.85762712 C47.2440678,13.7407104 43.3204797,17.7152542 38.5,17.7152542 Z" id="Shape" fill="#E86726"></path>
            </g>
        </g>
    </g>
</svg>