<?xml version="1.0" encoding="UTF-8"?>
<svg width="188px" height="31px" viewBox="0 0 188 31" version="1.1" xmlns="http://www.w3.org/2000/svg" xmlns:xlink="http://www.w3.org/1999/xlink">
    <!-- Generator: Sketch 42 (36781) - http://www.bohemiancoding.com/sketch -->
    <title>Group 9</title>
    <desc>Created with Sketch.</desc>
    <defs>
        <polygon id="path-1" points="9.36763636 0.0845102273 9.36763636 17.3335443 0.263253409 17.3335443 0.263253409 0.0845102273 9.36763636 0.0845102273"></polygon>
        <polygon id="path-3" points="2.17362627e-16 10.5209067 2.17362627e-16 0.469528889 6.47366549 0.469528889 6.47366549 10.5209067 0 10.5209067"></polygon>
        <polygon id="path-5" points="9.31872478 0.3136 0.0690610619 0.3136 0.0690610619 10.5775289 9.31872478 10.5775289 9.31872478 0.3136"></polygon>
        <polygon id="path-7" points="0 10.8864622 137.780788 10.8864622 137.780788 0.622284444 0 0.622284444"></polygon>
    </defs>
    <g id="Page-1" stroke="none" stroke-width="1" fill="none" fill-rule="evenodd">
        <g id="Desktop-HD-Copy" transform="translate(-50.000000, -11.000000)">
            <g id="Group-9" transform="translate(50.000000, 11.000000)">
                <g id="Page-1">
                    <g id="Group-3" transform="translate(21.488636, 12.167817)">
                        <mask id="mask-2" fill="white">
                            <use xlink:href="#path-1"></use>
                        </mask>
                        <g id="Clip-2"></g>
                        <path d="M5.44307159,0.301157955 C5.20775341,0.257828409 4.88331023,0.184907955 4.47115114,0.0845102273 L0.263253409,17.3335443 C5.37261705,15.0324989 9.0454125,10.024942 9.34942386,4.04405568 C9.38288977,3.38424886 9.36950341,2.73324886 9.32159432,2.09140795 C8.61246932,1.34318068 7.65781023,0.820760227 6.45374205,0.527317045 C6.01481023,0.420226136 5.67838977,0.345192045 5.44307159,0.301157955" id="Fill-1" fill="#E6332A" mask="url(#mask-2)"></path>
                    </g>
                    <path d="M5.27243068,24.465517 C5.64020341,24.022358 5.90158977,23.566517 6.05729432,23.0990511 C6.21194205,22.631233 6.34615795,22.1651761 6.45958977,21.7008807 L10.8344648,3.76597159 L17.180658,5.31385795 L12.8244534,23.1716193 C12.4721807,24.6162898 11.9733625,25.8196534 11.3283511,26.7834716 C10.6833398,27.746233 9.91538523,28.5430739 9.02343068,29.1729375 C8.93853295,29.2328239 8.85222614,29.2902443 8.76591932,29.3476648 C10.5554648,30.2050966 12.5405216,30.7310398 14.6460557,30.8377784 C14.6513398,30.8381307 14.6562716,30.8381307 14.6608511,30.8381307 L20.6607602,6.24491477 C20.8404193,6.28894886 21.2617375,6.38511932 21.9226011,6.53236932 C22.583817,6.68032386 23.3397943,6.85751705 24.1912375,7.06500568 C25.0423284,7.27284659 25.9275898,7.48244886 26.846317,7.69240341 C27.6657034,7.88016477 28.4033625,8.05348295 29.066692,8.21411932 C26.6064193,3.57363068 21.8387602,0.305948864 16.211908,0.0202556818 C7.70170341,-0.412335227 0.452282955,6.1360625 0.0203965909,14.646267 C-0.192728409,18.8319716 1.28646477,22.7108466 3.85418068,25.6251989 C4.4519875,25.2694034 4.92579432,24.8829602 5.27243068,24.465517" id="Fill-4" fill="#E6332A"></path>
                </g>
                <g id="Page-1" transform="translate(50.000000, 10.000000)">
                    <g id="Group-3" transform="translate(0.000000, 0.308684)">
                        <mask id="mask-4" fill="white">
                            <use xlink:href="#path-3"></use>
                        </mask>
                        <g id="Clip-2"></g>
                        <path d="M5.60170088,9.65352889 C5.02039115,10.2315733 4.21803717,10.5209067 3.19524956,10.5209067 C1.93004602,10.5209067 0.865125664,10.00384 -0.000122123894,8.97095111 L1.01839115,7.37930667 C1.35362124,7.73895111 1.70411681,8.01397333 2.07232035,8.20312889 C2.43930265,8.39352889 2.7763646,8.48748444 3.08350619,8.48748444 C3.45537345,8.48748444 3.74358584,8.37361778 3.94814336,8.14650667 C4.15270088,7.91939556 4.25528496,7.59708444 4.25528496,7.17957333 L4.25528496,2.37477333 L0.893214159,2.37477333 L0.893214159,0.469528889 L6.47366549,0.469528889 L6.47366549,7.23681778 C6.47366549,8.26970667 6.1824,9.07548444 5.60170088,9.65352889" id="Fill-1" fill="#1D1C1B" mask="url(#mask-4)"></path>
                    </g>
                    <path d="M12.7449106,8.30579556 C13.1393708,8.71832889 13.6675566,8.92428444 14.3282469,8.92428444 C14.970008,8.92428444 15.4810965,8.72081778 15.8627336,8.31326222 C16.2437602,7.90570667 16.4348841,7.34135111 16.4348841,6.62144 L16.4348841,0.778151111 L18.6386097,0.778151111 L18.6386097,6.62144 C18.6386097,7.49317333 18.4645832,8.24917333 18.1159195,8.88881778 C17.7672558,9.52846222 17.2671584,10.0212622 16.6162381,10.3672178 C15.9647071,10.7131733 15.197769,10.8861511 14.3142027,10.8861511 C13.4306363,10.8861511 12.6582027,10.7131733 11.998123,10.3672178 C11.3374327,10.0212622 10.8306186,9.52846222 10.4776805,8.88881778 C10.1241319,8.24917333 9.94766283,7.49317333 9.94766283,6.62144 L9.94766283,0.778151111 L12.1513885,0.778151111 L12.1513885,6.62144 C12.1513885,7.33264 12.3492292,7.89388444 12.7449106,8.30579556" id="Fill-4" fill="#1D1C1B"></path>
                    <polygon id="Fill-6" fill="#1D1C1B" points="29.0461912 0.7784 31.1393947 0.7784 31.1393947 10.7296 29.129846 10.7296 24.4005982 4.33253333 24.4005982 10.7296 22.2933504 10.7296 22.2933504 0.7784 24.3028991 0.7784 29.0461912 7.20408889"></polygon>
                    <g id="Group-10" transform="translate(34.194690, 0.308684)">
                        <mask id="mask-6" fill="white">
                            <use xlink:href="#path-5"></use>
                        </mask>
                        <g id="Clip-9"></g>
                        <path d="M7.32383097,5.40250667 L9.23506991,5.40250667 L9.23506991,9.26961778 C8.71360088,9.65850667 8.09076903,9.97335111 7.3653531,10.2147733 C6.63993717,10.4568178 5.94199912,10.5775289 5.27276018,10.5775289 C4.29637965,10.5775289 3.41281327,10.3522844 2.62206106,9.90179556 C1.83130885,9.45255111 1.20786637,8.83655111 0.752344248,8.05441778 C0.296822124,7.27228444 0.0690610619,6.39806222 0.0690610619,5.43112889 C0.0690610619,4.47415111 0.30109646,3.60428444 0.766388496,2.82277333 C1.23106991,2.04064 1.8703885,1.42712889 2.68434425,0.981617778 C3.4983,0.536106667 4.40323805,0.313351111 5.39854779,0.313351111 C6.12396372,0.313351111 6.83289292,0.445884444 7.52594602,0.711573333 C8.21899912,0.977262222 8.81618496,1.33690667 9.31872478,1.79175111 L8.07672478,3.39832889 C7.71462743,3.04801778 7.29574248,2.77237333 6.82129115,2.57388444 C6.34683982,2.37477333 5.8723885,2.27521778 5.39854779,2.27521778 C4.83067168,2.27521778 4.31225575,2.41521778 3.84268938,2.69459556 C3.37312301,2.97459556 3.00369823,3.35352889 2.73319381,3.83201778 C2.46391062,4.31050667 2.32896372,4.84375111 2.32896372,5.43112889 C2.32896372,6.01912889 2.4663531,6.55672889 2.74052124,7.04517333 C3.01468938,7.53299556 3.38716726,7.91690667 3.85673363,8.19628444 C4.3263,8.47566222 4.84471593,8.61566222 5.41198142,8.61566222 C5.70080442,8.61566222 6.01222035,8.56588444 6.34683982,8.46632889 C6.68145929,8.36739556 7.00691947,8.23175111 7.32383097,8.06126222 L7.32383097,5.40250667 Z" id="Fill-8" fill="#1D1C1B" mask="url(#mask-6)"></path>
                    </g>
                    <polygon id="Fill-11" fill="#1D1C1B" points="47.0290566 0.7784 54.4657912 0.7784 54.4657912 2.64071111 49.2333929 2.64071111 49.2333929 4.80168889 53.9351628 4.80168889 53.9351628 6.664 49.2333929 6.664 49.2333929 8.86728889 54.6190566 8.86728889 54.6190566 10.7296 47.0290566 10.7296"></polygon>
                    <path d="M68.6189735,8.44803556 C69.051292,8.18732444 69.388354,7.82519111 69.6301593,7.36039111 C69.8719646,6.89621333 69.9928673,6.36545778 69.9928673,5.76812444 C69.9928673,5.17079111 69.8646372,4.63568 69.6093982,4.16154667 C69.3529381,3.68865778 69.004885,3.32092444 68.5627965,3.06021333 C68.1213186,2.79950222 67.6212212,2.66945778 67.063115,2.66945778 L65.1659204,2.66945778 L65.1659204,8.83941333 L67.1608142,8.83941333 C67.6999912,8.83941333 68.1860442,8.70874667 68.6189735,8.44803556 M69.7699912,1.41070222 C70.5509735,1.83256889 71.1579292,2.41994667 71.5902478,3.17345778 C72.0225664,3.92696889 72.2393363,4.78750222 72.2393363,5.75443556 C72.2393363,6.72136889 72.0176814,7.58065778 71.5762035,8.33416889 C71.134115,9.08768 70.518,9.67568 69.7278584,10.0969244 C68.9371062,10.5187911 68.0352212,10.7297244 67.0215929,10.7297244 L62.9609735,10.7297244 L62.9609735,0.778524444 L67.1052478,0.778524444 C68.0999469,0.778524444 68.9883982,0.989457778 69.7699912,1.41070222" id="Fill-13" fill="#1D1C1B"></path>
                    <mask id="mask-8" fill="white">
                        <use xlink:href="#path-7"></use>
                    </mask>
                    <g id="Clip-16"></g>
                    <polygon id="Fill-15" fill="#1D1C1B" mask="url(#mask-8)" points="75.3638761 10.7296622 77.5682124 10.7296622 77.5682124 0.778462222 75.3638761 0.778462222"></polygon>
                    <path d="M87.9619938,5.71119111 L89.8732327,5.71119111 L89.8732327,9.57830222 C89.3517637,9.96719111 88.7289319,10.2820356 88.0035159,10.5234578 C87.2781,10.7655022 86.5801619,10.8862133 85.910923,10.8862133 C84.9345425,10.8862133 84.0509761,10.6609689 83.2602239,10.21048 C82.4694717,9.76123556 81.8460292,9.14523556 81.3905071,8.36310222 C80.934985,7.58096889 80.7072239,6.70674667 80.7072239,5.73981333 C80.7072239,4.78283556 80.9392593,3.91296889 81.4045513,3.13145778 C81.8692327,2.34932444 82.5085513,1.73581333 83.3225071,1.29030222 C84.1364628,0.844791111 85.0414009,0.622035556 86.0367106,0.622035556 C86.7621265,0.622035556 87.4710558,0.754568889 88.1641088,1.02025778 C88.8571619,1.28594667 89.4543478,1.64559111 89.9568876,2.10043556 L88.7148876,3.70701333 C88.3527903,3.35670222 87.9339053,3.08105778 87.459454,2.88256889 C86.9850027,2.68345778 86.5105513,2.58390222 86.0367106,2.58390222 C85.4688345,2.58390222 84.9504186,2.72390222 84.4808522,3.00328 C84.0112858,3.28328 83.6418611,3.66221333 83.3713566,4.14070222 C83.1020735,4.61919111 82.9671265,5.15243556 82.9671265,5.73981333 C82.9671265,6.32781333 83.1045159,6.86541333 83.3786841,7.35385778 C83.6528522,7.84168 84.0253301,8.22559111 84.4948965,8.50496889 C84.9644628,8.78434667 85.4828788,8.92434667 86.0501442,8.92434667 C86.3389673,8.92434667 86.6503832,8.87456889 86.9850027,8.77501333 C87.3196221,8.67608 87.6450823,8.54043556 87.9619938,8.36994667 L87.9619938,5.71119111 Z" id="Fill-17" fill="#1D1C1B" mask="url(#mask-8)"></path>
                    <polygon id="Fill-18" fill="#1D1C1B" mask="url(#mask-8)" points="93.4717965 10.7296622 95.6761327 10.7296622 95.6761327 0.778462222 93.4717965 0.778462222"></polygon>
                    <polygon id="Fill-19" fill="#1D1C1B" mask="url(#mask-8)" points="98.5500743 0.7784 106.711614 0.7784 106.711614 2.68364444 103.726296 2.68364444 103.726296 10.7296 101.521959 10.7296 101.521959 2.68364444 98.5500743 2.68364444"></polygon>
                    <path d="M111.204308,6.99091556 L114.287326,6.99091556 L112.752839,3.12380444 L111.204308,6.99091556 Z M115.766246,10.7298489 L114.998697,8.79598222 L110.478892,8.79598222 L109.711343,10.7298489 L107.437396,10.7298489 L111.678149,0.778648889 L113.952706,0.778648889 L118.123848,10.7298489 L115.766246,10.7298489 Z" id="Fill-20" fill="#1D1C1B" mask="url(#mask-8)"></path>
                    <polygon id="Fill-21" fill="#1D1C1B" mask="url(#mask-8)" points="120.816191 0.7784 123.020527 0.7784 123.020527 8.76835556 127.206324 8.76835556 127.206324 10.7296 120.816191 10.7296"></polygon>
                    <polygon id="Fill-22" fill="#1D1C1B" mask="url(#mask-8)" points="130.190727 0.7784 137.627461 0.7784 137.627461 2.64071111 132.395063 2.64071111 132.395063 4.80168889 137.096833 4.80168889 137.096833 6.664 132.395063 6.664 132.395063 8.86728889 137.780727 8.86728889 137.780727 10.7296 130.190727 10.7296"></polygon>
                </g>
            </g>
        </g>
    </g>
</svg>