<?xml version="1.0" encoding="UTF-8"?>
<svg width="18px" height="961px" viewBox="0 0 18 961" version="1.1" xmlns="http://www.w3.org/2000/svg" xmlns:xlink="http://www.w3.org/1999/xlink">
    <!-- Generator: Sketch 42 (36781) - http://www.bohemiancoding.com/sketch -->
    <title>Group 12</title>
    <desc>Created with Sketch.</desc>
    <defs></defs>
    <g id="Page-1" stroke="none" stroke-width="1" fill="none" fill-rule="evenodd" stroke-linecap="square">
        <g id="Desktop-HD-Copy" transform="translate(-1259.000000, -883.000000)" stroke="#FFFFFF">
            <g id="Group-12" transform="translate(1259.775391, 882.000000)">
                <g id="Group-11" transform="translate(-0.000000, 0.000000)">
                    <path d="M0.5,1.5 L16.5799999,1.5" id="Line"></path>
                    <path d="M0.5,121.5 L16.5799999,121.5" id="Line-Copy-19"></path>
                    <path d="M0.5,61.5 L16.5799999,61.5" id="Line-Copy-9"></path>
                    <path d="M0.5,181.5 L16.5799999,181.5" id="Line-Copy-20"></path>
                    <path d="M11.1202543,7.5 L16.5768096,7.5" id="Line"></path>
                    <path d="M11.1202543,127.5 L16.5768096,127.5" id="Line-Copy-21"></path>
                    <path d="M11.1202543,67.5 L16.5768096,67.5" id="Line-Copy-10"></path>
                    <path d="M11.1202543,187.5 L16.5768096,187.5" id="Line-Copy-22"></path>
                    <path d="M11.1202543,13.5 L16.5768096,13.5" id="Line"></path>
                    <path d="M11.1202543,133.5 L16.5768096,133.5" id="Line-Copy-23"></path>
                    <path d="M11.1202543,73.5 L16.5768096,73.5" id="Line-Copy-11"></path>
                    <path d="M11.1202543,193.5 L16.5768096,193.5" id="Line-Copy-24"></path>
                    <path d="M11.1202543,19.5 L16.5768096,19.5" id="Line"></path>
                    <path d="M11.1202543,139.5 L16.5768096,139.5" id="Line-Copy-25"></path>
                    <path d="M11.1202543,79.5 L16.5768096,79.5" id="Line-Copy-12"></path>
                    <path d="M11.1202543,199.5 L16.5768096,199.5" id="Line-Copy-26"></path>
                    <path d="M11.1202543,25.5 L16.5768096,25.5" id="Line"></path>
                    <path d="M11.1202543,145.5 L16.5768096,145.5" id="Line-Copy-27"></path>
                    <path d="M11.1202543,85.5 L16.5768096,85.5" id="Line-Copy-13"></path>
                    <path d="M11.1202543,205.5 L16.5768096,205.5" id="Line-Copy-28"></path>
                    <path d="M11.1202543,37.5 L16.5768096,37.5" id="Line"></path>
                    <path d="M11.1202543,157.5 L16.5768096,157.5" id="Line-Copy-29"></path>
                    <path d="M11.1202543,97.5 L16.5768096,97.5" id="Line-Copy-14"></path>
                    <path d="M11.1202543,217.5 L16.5768096,217.5" id="Line-Copy-30"></path>
                    <path d="M11.1202543,43.5 L16.5768096,43.5" id="Line"></path>
                    <path d="M11.1202543,163.5 L16.5768096,163.5" id="Line-Copy-31"></path>
                    <path d="M11.1202543,103.5 L16.5768096,103.5" id="Line-Copy-15"></path>
                    <path d="M11.1202543,223.5 L16.5768096,223.5" id="Line-Copy-32"></path>
                    <path d="M11.1202543,49.5 L16.5768096,49.5" id="Line"></path>
                    <path d="M11.1202543,169.5 L16.5768096,169.5" id="Line-Copy-33"></path>
                    <path d="M11.1202543,109.5 L16.5768096,109.5" id="Line-Copy-16"></path>
                    <path d="M11.1202543,229.5 L16.5768096,229.5" id="Line-Copy-34"></path>
                    <path d="M11.1202543,55.5 L16.5768096,55.5" id="Line"></path>
                    <path d="M11.1202543,175.5 L16.5768096,175.5" id="Line-Copy-35"></path>
                    <path d="M11.1202543,115.5 L16.5768096,115.5" id="Line-Copy-17"></path>
                    <path d="M11.1202543,235.5 L16.5768096,235.5" id="Line-Copy-36"></path>
                    <path d="M7.44508071,31.5 L16.5768096,31.5" id="Line"></path>
                    <path d="M7.44508071,151.5 L16.5768096,151.5" id="Line-Copy-37"></path>
                    <path d="M7.44508071,91.5 L16.5768096,91.5" id="Line-Copy-18"></path>
                    <path d="M7.44508071,211.5 L16.5768096,211.5" id="Line-Copy-38"></path>
                    <path d="M0.5,241.5 L16.5799999,241.5" id="Line"></path>
                    <path d="M0.5,361.5 L16.5799999,361.5" id="Line-Copy-19"></path>
                    <path d="M0.5,301.5 L16.5799999,301.5" id="Line-Copy-9"></path>
                    <path d="M0.5,421.5 L16.5799999,421.5" id="Line-Copy-20"></path>
                    <path d="M11.1202543,247.5 L16.5768096,247.5" id="Line"></path>
                    <path d="M11.1202543,367.5 L16.5768096,367.5" id="Line-Copy-21"></path>
                    <path d="M11.1202543,307.5 L16.5768096,307.5" id="Line-Copy-10"></path>
                    <path d="M11.1202543,427.5 L16.5768096,427.5" id="Line-Copy-22"></path>
                    <path d="M11.1202543,253.5 L16.5768096,253.5" id="Line"></path>
                    <path d="M11.1202543,373.5 L16.5768096,373.5" id="Line-Copy-23"></path>
                    <path d="M11.1202543,313.5 L16.5768096,313.5" id="Line-Copy-11"></path>
                    <path d="M11.1202543,433.5 L16.5768096,433.5" id="Line-Copy-24"></path>
                    <path d="M11.1202543,259.5 L16.5768096,259.5" id="Line"></path>
                    <path d="M11.1202543,379.5 L16.5768096,379.5" id="Line-Copy-25"></path>
                    <path d="M11.1202543,319.5 L16.5768096,319.5" id="Line-Copy-12"></path>
                    <path d="M11.1202543,439.5 L16.5768096,439.5" id="Line-Copy-26"></path>
                    <path d="M11.1202543,265.5 L16.5768096,265.5" id="Line"></path>
                    <path d="M11.1202543,385.5 L16.5768096,385.5" id="Line-Copy-27"></path>
                    <path d="M11.1202543,325.5 L16.5768096,325.5" id="Line-Copy-13"></path>
                    <path d="M11.1202543,445.5 L16.5768096,445.5" id="Line-Copy-28"></path>
                    <path d="M11.1202543,277.5 L16.5768096,277.5" id="Line"></path>
                    <path d="M11.1202543,397.5 L16.5768096,397.5" id="Line-Copy-29"></path>
                    <path d="M11.1202543,337.5 L16.5768096,337.5" id="Line-Copy-14"></path>
                    <path d="M11.1202543,457.5 L16.5768096,457.5" id="Line-Copy-30"></path>
                    <path d="M11.1202543,283.5 L16.5768096,283.5" id="Line"></path>
                    <path d="M11.1202543,403.5 L16.5768096,403.5" id="Line-Copy-31"></path>
                    <path d="M11.1202543,343.5 L16.5768096,343.5" id="Line-Copy-15"></path>
                    <path d="M11.1202543,463.5 L16.5768096,463.5" id="Line-Copy-32"></path>
                    <path d="M11.1202543,289.5 L16.5768096,289.5" id="Line"></path>
                    <path d="M11.1202543,409.5 L16.5768096,409.5" id="Line-Copy-33"></path>
                    <path d="M11.1202543,349.5 L16.5768096,349.5" id="Line-Copy-16"></path>
                    <path d="M11.1202543,469.5 L16.5768096,469.5" id="Line-Copy-34"></path>
                    <path d="M11.1202543,295.5 L16.5768096,295.5" id="Line"></path>
                    <path d="M11.1202543,415.5 L16.5768096,415.5" id="Line-Copy-35"></path>
                    <path d="M11.1202543,355.5 L16.5768096,355.5" id="Line-Copy-17"></path>
                    <path d="M11.1202543,475.5 L16.5768096,475.5" id="Line-Copy-36"></path>
                    <path d="M7.44508071,271.5 L16.5768096,271.5" id="Line"></path>
                    <path d="M7.44508071,391.5 L16.5768096,391.5" id="Line-Copy-37"></path>
                    <path d="M7.44508071,331.5 L16.5768096,331.5" id="Line-Copy-18"></path>
                    <path d="M7.44508071,451.5 L16.5768096,451.5" id="Line-Copy-38"></path>
                </g>
                <g id="Group-11-Copy" transform="translate(-0.000000, 480.000000)">
                    <path d="M0.5,1.5 L16.5799999,1.5" id="Line"></path>
                    <path d="M0.5,121.5 L16.5799999,121.5" id="Line-Copy-19"></path>
                    <path d="M0.5,61.5 L16.5799999,61.5" id="Line-Copy-9"></path>
                    <path d="M0.5,181.5 L16.5799999,181.5" id="Line-Copy-20"></path>
                    <path d="M11.1202543,7.5 L16.5768096,7.5" id="Line"></path>
                    <path d="M11.1202543,127.5 L16.5768096,127.5" id="Line-Copy-21"></path>
                    <path d="M11.1202543,67.5 L16.5768096,67.5" id="Line-Copy-10"></path>
                    <path d="M11.1202543,187.5 L16.5768096,187.5" id="Line-Copy-22"></path>
                    <path d="M11.1202543,13.5 L16.5768096,13.5" id="Line"></path>
                    <path d="M11.1202543,133.5 L16.5768096,133.5" id="Line-Copy-23"></path>
                    <path d="M11.1202543,73.5 L16.5768096,73.5" id="Line-Copy-11"></path>
                    <path d="M11.1202543,193.5 L16.5768096,193.5" id="Line-Copy-24"></path>
                    <path d="M11.1202543,19.5 L16.5768096,19.5" id="Line"></path>
                    <path d="M11.1202543,139.5 L16.5768096,139.5" id="Line-Copy-25"></path>
                    <path d="M11.1202543,79.5 L16.5768096,79.5" id="Line-Copy-12"></path>
                    <path d="M11.1202543,199.5 L16.5768096,199.5" id="Line-Copy-26"></path>
                    <path d="M11.1202543,25.5 L16.5768096,25.5" id="Line"></path>
                    <path d="M11.1202543,145.5 L16.5768096,145.5" id="Line-Copy-27"></path>
                    <path d="M11.1202543,85.5 L16.5768096,85.5" id="Line-Copy-13"></path>
                    <path d="M11.1202543,205.5 L16.5768096,205.5" id="Line-Copy-28"></path>
                    <path d="M11.1202543,37.5 L16.5768096,37.5" id="Line"></path>
                    <path d="M11.1202543,157.5 L16.5768096,157.5" id="Line-Copy-29"></path>
                    <path d="M11.1202543,97.5 L16.5768096,97.5" id="Line-Copy-14"></path>
                    <path d="M11.1202543,217.5 L16.5768096,217.5" id="Line-Copy-30"></path>
                    <path d="M11.1202543,43.5 L16.5768096,43.5" id="Line"></path>
                    <path d="M11.1202543,163.5 L16.5768096,163.5" id="Line-Copy-31"></path>
                    <path d="M11.1202543,103.5 L16.5768096,103.5" id="Line-Copy-15"></path>
                    <path d="M11.1202543,223.5 L16.5768096,223.5" id="Line-Copy-32"></path>
                    <path d="M11.1202543,49.5 L16.5768096,49.5" id="Line"></path>
                    <path d="M11.1202543,169.5 L16.5768096,169.5" id="Line-Copy-33"></path>
                    <path d="M11.1202543,109.5 L16.5768096,109.5" id="Line-Copy-16"></path>
                    <path d="M11.1202543,229.5 L16.5768096,229.5" id="Line-Copy-34"></path>
                    <path d="M11.1202543,55.5 L16.5768096,55.5" id="Line"></path>
                    <path d="M11.1202543,175.5 L16.5768096,175.5" id="Line-Copy-35"></path>
                    <path d="M11.1202543,115.5 L16.5768096,115.5" id="Line-Copy-17"></path>
                    <path d="M11.1202543,235.5 L16.5768096,235.5" id="Line-Copy-36"></path>
                    <path d="M7.44508071,31.5 L16.5768096,31.5" id="Line"></path>
                    <path d="M7.44508071,151.5 L16.5768096,151.5" id="Line-Copy-37"></path>
                    <path d="M7.44508071,91.5 L16.5768096,91.5" id="Line-Copy-18"></path>
                    <path d="M7.44508071,211.5 L16.5768096,211.5" id="Line-Copy-38"></path>
                    <path d="M0.5,241.5 L16.5799999,241.5" id="Line"></path>
                    <path d="M0.5,361.5 L16.5799999,361.5" id="Line-Copy-19"></path>
                    <path d="M0.5,301.5 L16.5799999,301.5" id="Line-Copy-9"></path>
                    <path d="M0.5,421.5 L16.5799999,421.5" id="Line-Copy-20"></path>
                    <path d="M11.1202543,247.5 L16.5768096,247.5" id="Line"></path>
                    <path d="M11.1202543,367.5 L16.5768096,367.5" id="Line-Copy-21"></path>
                    <path d="M11.1202543,307.5 L16.5768096,307.5" id="Line-Copy-10"></path>
                    <path d="M11.1202543,427.5 L16.5768096,427.5" id="Line-Copy-22"></path>
                    <path d="M11.1202543,253.5 L16.5768096,253.5" id="Line"></path>
                    <path d="M11.1202543,373.5 L16.5768096,373.5" id="Line-Copy-23"></path>
                    <path d="M11.1202543,313.5 L16.5768096,313.5" id="Line-Copy-11"></path>
                    <path d="M11.1202543,433.5 L16.5768096,433.5" id="Line-Copy-24"></path>
                    <path d="M11.1202543,259.5 L16.5768096,259.5" id="Line"></path>
                    <path d="M11.1202543,379.5 L16.5768096,379.5" id="Line-Copy-25"></path>
                    <path d="M11.1202543,319.5 L16.5768096,319.5" id="Line-Copy-12"></path>
                    <path d="M11.1202543,439.5 L16.5768096,439.5" id="Line-Copy-26"></path>
                    <path d="M11.1202543,265.5 L16.5768096,265.5" id="Line"></path>
                    <path d="M11.1202543,385.5 L16.5768096,385.5" id="Line-Copy-27"></path>
                    <path d="M11.1202543,325.5 L16.5768096,325.5" id="Line-Copy-13"></path>
                    <path d="M11.1202543,445.5 L16.5768096,445.5" id="Line-Copy-28"></path>
                    <path d="M11.1202543,277.5 L16.5768096,277.5" id="Line"></path>
                    <path d="M11.1202543,397.5 L16.5768096,397.5" id="Line-Copy-29"></path>
                    <path d="M11.1202543,337.5 L16.5768096,337.5" id="Line-Copy-14"></path>
                    <path d="M11.1202543,457.5 L16.5768096,457.5" id="Line-Copy-30"></path>
                    <path d="M11.1202543,283.5 L16.5768096,283.5" id="Line"></path>
                    <path d="M11.1202543,403.5 L16.5768096,403.5" id="Line-Copy-31"></path>
                    <path d="M11.1202543,343.5 L16.5768096,343.5" id="Line-Copy-15"></path>
                    <path d="M11.1202543,463.5 L16.5768096,463.5" id="Line-Copy-32"></path>
                    <path d="M11.1202543,289.5 L16.5768096,289.5" id="Line"></path>
                    <path d="M11.1202543,409.5 L16.5768096,409.5" id="Line-Copy-33"></path>
                    <path d="M11.1202543,349.5 L16.5768096,349.5" id="Line-Copy-16"></path>
                    <path d="M11.1202543,469.5 L16.5768096,469.5" id="Line-Copy-34"></path>
                    <path d="M11.1202543,295.5 L16.5768096,295.5" id="Line"></path>
                    <path d="M11.1202543,415.5 L16.5768096,415.5" id="Line-Copy-35"></path>
                    <path d="M11.1202543,355.5 L16.5768096,355.5" id="Line-Copy-17"></path>
                    <path d="M11.1202543,475.5 L16.5768096,475.5" id="Line-Copy-36"></path>
                    <path d="M11.1202543,481.5 L16.5768096,481.5" id="Line-Copy-36" opacity="0.01"></path>
                    <path d="M7.44508071,271.5 L16.5768096,271.5" id="Line"></path>
                    <path d="M7.44508071,391.5 L16.5768096,391.5" id="Line-Copy-37"></path>
                    <path d="M7.44508071,331.5 L16.5768096,331.5" id="Line-Copy-18"></path>
                    <path d="M7.44508071,451.5 L16.5768096,451.5" id="Line-Copy-38"></path>
                </g>
            </g>
        </g>
    </g>
</svg>