<?xml version="1.0" encoding="UTF-8"?>
<svg width="18px" height="12px" viewBox="0 0 18 12" version="1.1" xmlns="http://www.w3.org/2000/svg" xmlns:xlink="http://www.w3.org/1999/xlink">
    <!-- Generator: Sketch 46.1 (44463) - http://www.bohemiancoding.com/sketch -->
    <title>Behance</title>
    <desc>Created with Sketch.</desc>
    <defs></defs>
    <g id="Page-1" stroke="none" stroke-width="1" fill="none" fill-rule="evenodd">
        <g id="Desktop-HD-Copy-6" transform="translate(-15.000000, -6311.000000)" fill-rule="nonzero" fill="#000000">
            <path d="M31.255291,6312.58493 L26.7451541,6312.58493 L26.7451541,6311.46464 L31.2556676,6311.46464 L31.2556676,6312.58493 L31.255291,6312.58493 L31.255291,6312.58493 Z M23.7426508,6317.17885 C24.0336652,6317.6296 24.1790887,6318.17689 24.1790887,6318.81943 C24.1790887,6319.4839 24.0151263,6320.07999 23.681552,6320.60653 C23.4693384,6320.95496 23.2058603,6321.24928 22.8892765,6321.48623 C22.5327274,6321.76025 22.1106017,6321.94815 21.6253267,6322.04854 C21.1385033,6322.14911 20.611589,6322.19991 20.043998,6322.19991 L15,6322.19991 L15,6311 L20.4089168,6311 C21.7722986,6311.02218 22.7388731,6311.41719 23.3096446,6312.19293 C23.6521326,6312.66871 23.8218282,6313.23961 23.8218282,6313.9032 C23.8218282,6314.58792 23.650082,6315.1358 23.3042461,6315.55207 C23.1118686,6315.78546 22.8276755,6315.99776 22.4514577,6316.18938 C23.0213085,6316.39799 23.453687,6316.7265 23.7426508,6317.17885 Z M17.5829722,6315.41556 L19.9529357,6315.41556 C20.4399683,6315.41556 20.8336789,6315.32299 21.136913,6315.13794 C21.4399379,6314.95318 21.5911365,6314.62475 21.5911365,6314.1532 C21.5911365,6313.63223 21.3909333,6313.28643 20.9895645,6313.12 C20.6445656,6313.00438 20.2031478,6312.94482 19.667529,6312.94482 L17.5829722,6312.94482 L17.5829722,6315.41556 Z M21.8193363,6318.65944 C21.8193363,6318.07767 21.5815532,6317.67546 21.1069495,6317.45965 C20.8415464,6317.33699 20.4670862,6317.2743 19.9869585,6317.26982 L17.5829722,6317.26982 L17.5829722,6320.25454 L19.9497552,6320.25454 C20.4359927,6320.25454 20.8123362,6320.19089 21.0839328,6320.0581 C21.5737275,6319.81396 21.8193363,6319.34932 21.8193363,6318.65944 Z M32.9286864,6316.8374 C32.9831731,6317.20383 33.0078219,6317.73547 32.9978201,6318.43037 L27.1566921,6318.43037 C27.1889155,6319.23662 27.4672498,6319.80044 27.9951265,6320.1231 C28.313468,6320.32543 28.6994366,6320.42424 29.1514002,6320.42424 C29.6279708,6320.42424 30.0164084,6320.30376 30.3154158,6320.0561 C30.478332,6319.92482 30.6220397,6319.73951 30.7462878,6319.5057 L32.8872564,6319.5057 C32.8311794,6319.9819 32.5733927,6320.46487 32.11013,6320.95567 C31.3923866,6321.73577 30.3857631,6322.12693 29.0929797,6322.12693 C28.0250064,6322.12693 27.0837921,6321.79703 26.2668259,6321.13964 C25.45258,6320.47994 25.0436366,6319.41004 25.0436366,6317.92588 C25.0436366,6316.53413 25.4107733,6315.46887 26.1475159,6314.7274 C26.8869786,6313.98455 27.8412915,6313.61482 29.0176106,6313.61482 C29.7148482,6313.61482 30.3433706,6313.73944 30.9040985,6313.98999 C31.4630687,6314.24079 31.9250341,6314.6355 32.2888649,6315.17799 C32.6181288,6315.65573 32.8298821,6316.20813 32.9286864,6316.8374 Z M30.8213222,6317.04639 C30.7820683,6316.48889 30.5959262,6316.06693 30.2607617,6315.77855 C29.9283592,6315.48938 29.5130967,6315.34421 29.0176106,6315.34421 C28.478351,6315.34421 28.0619586,6315.49938 27.7660898,6315.80437 C27.4682123,6316.10874 27.2828653,6316.52254 27.2069103,6317.04644 L30.8213222,6317.04644 L30.8213222,6317.04639 Z" id="Behance"></path>
        </g>
    </g>
</svg>