<?xml version="1.0" encoding="UTF-8"?>
<svg width="8px" height="16px" viewBox="0 0 8 16" version="1.1" xmlns="http://www.w3.org/2000/svg" xmlns:xlink="http://www.w3.org/1999/xlink">
    <!-- Generator: Sketch 42 (36781) - http://www.bohemiancoding.com/sketch -->
    <title>facebook-logo</title>
    <desc>Created with Sketch.</desc>
    <defs></defs>
    <g id="Page-1" stroke="none" stroke-width="1" fill="none" fill-rule="evenodd">
        <g id="Desktop-HD-Copy" transform="translate(-20.000000, -5261.000000)" fill-rule="nonzero" fill="#000000">
            <g id="facebook-logo" transform="translate(20.000000, 5261.000000)">
                <path d="M7.56060377,0.00329896907 L5.67909434,0 C3.56528302,0 2.19924528,1.53154639 2.19924528,3.90202062 L2.19924528,5.7011134 L0.307471698,5.7011134 C0.144,5.7011134 0.0116226415,5.84593814 0.0116226415,6.02457732 L0.0116226415,8.63125773 C0.0116226415,8.80989691 0.144150943,8.9545567 0.307471698,8.9545567 L2.19924528,8.9545567 L2.19924528,15.5320412 C2.19924528,15.7106804 2.33162264,15.8553402 2.49509434,15.8553402 L4.96332075,15.8553402 C5.12679245,15.8553402 5.25916981,15.7105155 5.25916981,15.5320412 L5.25916981,8.9545567 L7.47109434,8.9545567 C7.63456604,8.9545567 7.7669434,8.80989691 7.7669434,8.63125773 L7.76784906,6.02457732 C7.76784906,5.93880412 7.73660377,5.85665979 7.68120755,5.79595876 C7.62581132,5.73525773 7.55033962,5.7011134 7.47184906,5.7011134 L5.25916981,5.7011134 L5.25916981,4.176 C5.25916981,3.44296907 5.41901887,3.07084536 6.29283019,3.07084536 L7.56030189,3.07035052 C7.72362264,3.07035052 7.856,2.92552577 7.856,2.74705155 L7.856,0.326597938 C7.856,0.14828866 7.72377358,0.00362886598 7.56060377,0.00329896907 Z" id="Shape"></path>
            </g>
        </g>
    </g>
</svg>