<?xml version="1.0" encoding="UTF-8"?>
<svg width="321px" height="84px" viewBox="0 0 321 84" version="1.1" xmlns="http://www.w3.org/2000/svg" xmlns:xlink="http://www.w3.org/1999/xlink">
    <!-- Generator: Sketch 46.1 (44463) - http://www.bohemiancoding.com/sketch -->
    <title>Page 1 Copy</title>
    <desc>Created with Sketch.</desc>
    <defs>
        <polygon id="path-1" points="1.23648274e-16 24.5778105 1.23648274e-16 0.334381675 35.1613296 0.334381675 35.1613296 24.5778105"></polygon>
        <polygon id="path-3" points="22.6562481 31.963595 22.6562481 0.0995777884 0.00491577357 0.0995777884 0.00491577357 31.963595"></polygon>
    </defs>
    <g id="Page-1" stroke="none" stroke-width="1" fill="none" fill-rule="evenodd">
        <g id="Desktop-HD-Copy-12" transform="translate(-895.000000, -1845.000000)">
            <g id="Page-1-Copy" transform="translate(895.000000, 1845.000000)">
                <g id="Group-21" transform="translate(0.000000, 26.955224)">
                    <g id="Group-3" transform="translate(0.000000, 10.011033)">
                        <mask id="mask-2" fill="white">
                            <use xlink:href="#path-1"></use>
                        </mask>
                        <g id="Clip-2"></g>
                        <path d="M11.0411621,0.334381675 C12.3365786,0.334381675 13.6076189,0.517261796 14.8560243,0.882147014 C16.1035592,1.24790726 17.1856846,1.79567259 18.1024007,2.52544303 C19.049587,1.89017524 20.1160421,1.36691059 21.3008955,0.953899023 C22.4857489,0.540887458 23.9143634,0.334381675 25.5893509,0.334381675 C26.7898746,0.334381675 27.9660223,0.493636135 29.1204055,0.810395004 C30.2730476,1.1280289 31.3003268,1.62854291 32.200502,2.31106203 C33.1006771,2.99445616 33.818902,3.8992315 34.3560472,5.02538803 C34.8923217,6.15329462 35.1613296,7.52708308 35.1613296,9.14587841 L35.1613296,24.1490485 C34.8461812,24.2444262 34.3473414,24.3398039 33.669163,24.4351815 C32.9892435,24.5296842 32.286689,24.5778105 31.5597583,24.5778105 C30.865039,24.5778105 30.2408363,24.5296842 29.6888914,24.4351815 C29.1352053,24.3398039 28.6694474,24.1490485 28.2898764,23.8637905 C27.911176,23.5767825 27.6186626,23.1891466 27.4140773,22.6965079 C27.2077509,22.2047441 27.1058936,21.5616011 27.1058936,20.7679539 L27.1058936,9.38388508 C27.1058936,8.43185842 26.8377563,7.74058906 26.2997406,7.31270208 C25.7625954,6.88306505 25.0365354,6.66868405 24.1198193,6.66868405 C23.6784375,6.66868405 23.2039738,6.77193694 22.6990399,6.97931775 C22.1932355,7.18582353 21.8136645,7.39932951 21.5611976,7.62158573 C21.5925383,7.74933931 21.6090793,7.86746762 21.6090793,7.97859573 L21.6090793,8.2883544 L21.6090793,24.1490485 C21.260849,24.2444262 20.7472094,24.3398039 20.069031,24.4351815 C19.3891115,24.5296842 18.7022273,24.5778105 18.007508,24.5778105 C17.3119181,24.5778105 16.6877154,24.5296842 16.1357705,24.4351815 C15.582955,24.3398039 15.117197,24.1490485 14.7376261,23.8637905 C14.3589257,23.5767825 14.0664123,23.1891466 13.8609564,22.6965079 C13.6555006,22.2047441 13.5536433,21.5616011 13.5536433,20.7679539 L13.5536433,9.38388508 C13.5536433,8.43185842 13.2611298,7.74058906 12.676103,7.31270208 C12.0910762,6.88306505 11.3885217,6.66868405 10.567569,6.66868405 C9.99908309,6.66868405 9.50894902,6.75706152 9.09890792,6.9311914 C8.68799624,7.10532127 8.339766,7.27332598 8.05595835,7.43083039 L8.05595835,24.1490485 C7.73993941,24.2444262 7.24284074,24.3398039 6.5629212,24.4351815 C5.88387223,24.5296842 5.18131773,24.5778105 4.45525768,24.5778105 C3.75966778,24.5778105 3.13546507,24.5296842 2.58264957,24.4351815 C2.02983406,24.3398039 1.56407612,24.1490485 1.18537573,23.8637905 C0.805804773,23.5767825 0.513291372,23.1891466 0.308706107,22.6965079 C0.103250266,22.2047441 -0.000348230239,21.5616011 -0.000348230239,20.7679539 L-0.000348230239,6.38342606 C-0.000348230239,5.52590205 0.18160207,4.84338294 0.544632094,4.3349937 C0.907662118,3.82747949 1.40563136,3.35146616 2.03766924,2.90607869 C3.11195953,2.14393235 4.44655192,1.524415 6.04231699,1.04840167 C7.63721149,0.57238834 9.30349318,0.334381675 11.0411621,0.334381675" id="Fill-1" fill="#FFFFFF" mask="url(#mask-2)"></path>
                    </g>
                    <path d="M50.9413829,16.2518301 C50.1831115,16.2518301 49.5266975,16.3787086 48.973882,16.6324657 C48.4210665,16.8870979 47.9709789,17.212607 47.6236193,17.6089931 C47.2762596,18.0062542 47.0150869,18.4507667 46.8418424,18.9425304 C46.6677273,19.4351692 46.5649993,19.9356832 46.5345292,20.4431974 L54.6369763,19.1096601 C54.5429541,18.4743923 54.1938533,17.8391245 53.5948973,17.2038567 C52.9942001,16.568589 52.1096953,16.2518301 50.9413829,16.2518301 M52.2672695,34.9703542 C50.4033672,34.9703542 48.674404,34.7078469 47.0786389,34.1837072 C45.4828739,33.6604426 44.0934352,32.8737955 42.9085818,31.8263912 C41.7237284,30.7789869 40.7922126,29.4612 40.1131636,27.8730305 C39.433244,26.285736 39.0945901,24.428059 39.0945901,22.2999994 C39.0945901,20.2051908 39.433244,18.4026403 40.1131636,16.8940981 C40.7922126,15.3873059 41.683682,14.1482712 42.7910541,13.178744 C43.8958146,12.2109669 45.1590198,11.4960719 46.5815403,11.035809 C48.0031902,10.5764212 49.4553103,10.3454147 50.9413829,10.3454147 C52.6154997,10.3454147 54.1398776,10.6000468 55.5136459,11.107561 C56.8882848,11.6159503 58.0722676,12.3142198 59.0682061,13.2032447 C60.063274,14.0922696 60.8363451,15.1562994 61.3900312,16.3944591 C61.9428467,17.6326187 62.2188192,18.9827816 62.2188192,20.4431974 C62.2188192,21.5221027 61.9184706,22.3481258 61.318644,22.9195168 C60.7179468,23.4909078 59.8813237,23.855793 58.8070334,24.0150475 L47.1030151,25.7773468 C47.4495041,26.8256262 48.1607644,27.6105231 49.2350547,28.1346628 C50.3084744,28.6588025 51.5403389,28.9213098 52.9315187,28.9213098 C54.2260646,28.9213098 55.4500939,28.7541802 56.6036066,28.4207958 C57.7562486,28.0874115 58.6955997,27.6989006 59.4234009,27.2535131 C59.9283348,27.5720221 60.3549168,28.0156595 60.703147,28.5879255 C61.0496361,29.1593165 61.2246218,29.7622084 61.2246218,30.3974762 C61.2246218,31.8263912 60.5603726,32.890421 59.2336154,33.5878155 C58.2220066,34.1294557 57.0850349,34.4934659 55.8218297,34.6833462 C54.5577539,34.8741015 53.3729005,34.9703542 52.2672695,34.9703542" id="Fill-4" fill="#FFFFFF"></path>
                    <path d="M74.3500289,34.1599065 C74.0026693,34.2229083 73.4890297,34.3104108 72.8091101,34.4224139 C72.1300612,34.533542 71.443177,34.5886685 70.7484577,34.5886685 C70.0528678,34.5886685 69.4295357,34.5414172 68.8767202,34.4460396 C68.3239047,34.3506619 67.8581467,34.1599065 67.4785758,33.8746486 C67.0998754,33.5885155 66.807362,33.2000047 66.6027767,32.7073659 C66.3964503,32.2156021 66.2937224,31.5724591 66.2937224,30.7788119 L66.2937224,11.392644 C66.6419526,11.3296423 67.1538511,11.2430148 67.8346412,11.1318867 C68.5128196,11.0207586 69.2005743,10.964757 69.8952936,10.964757 C70.5900129,10.964757 71.2142156,11.0120084 71.7670311,11.107386 C72.3198467,11.2027637 72.7864752,11.392644 73.1651756,11.6796521 C73.5438759,11.96491 73.8355188,12.3542959 74.0418452,12.8460597 C74.247301,13.3386985 74.3500289,13.9809665 74.3500289,14.7754887 L74.3500289,34.1599065 Z M65.915022,4.62957964 C65.915022,3.42379587 66.3172279,2.40789243 67.1233809,1.5818693 C67.9286633,0.755846165 68.9951184,0.343709624 70.3218757,0.343709624 C71.6486329,0.343709624 72.715088,0.755846165 73.5203704,1.5818693 C74.3265234,2.40789243 74.7295999,3.42379587 74.7295999,4.62957964 C74.7295999,5.83711345 74.3265234,6.8530169 73.5203704,7.678165 C72.715088,8.50418813 71.6486329,8.91632467 70.3218757,8.91632467 C68.9951184,8.91632467 67.9286633,8.50418813 67.1233809,7.678165 C66.3172279,6.8530169 65.915022,5.83711345 65.915022,4.62957964 L65.915022,4.62957964 Z" id="Fill-6" fill="#FFFFFF"></path>
                    <path d="M94.0629945,19.5383346 C94.0629945,18.553932 93.7861515,17.8320368 93.233336,17.3700239 C92.6805205,16.910636 91.9309549,16.6796296 90.9828981,16.6796296 C90.3499896,16.6796296 89.7275281,16.7592568 89.1111605,16.9185112 C88.494793,17.0768907 87.9654831,17.3157724 87.5232307,17.6325312 L87.5232307,34.159994 C87.2072117,34.2553717 86.7101131,34.3507494 86.0301935,34.4461271 C85.3511445,34.5415047 84.64859,34.588756 83.92253,34.588756 C83.2269401,34.588756 82.6027374,34.5415047 82.0499219,34.4461271 C81.4971064,34.3507494 81.0313484,34.159994 80.652648,33.8747361 C80.2730771,33.588603 79.9805637,33.2000922 79.7759784,32.7074534 C79.5705226,32.2156896 79.4669241,31.5725466 79.4669241,30.7788994 L79.4669241,16.4897492 C79.4669241,15.6322252 79.6488744,14.9339557 80.0119044,14.3940656 C80.3749344,13.8541754 80.8729037,13.3624117 81.5049416,12.9178992 C82.5792318,12.1548779 83.9294946,11.5353605 85.5566004,11.0602222 C87.1837062,10.5842089 88.9927623,10.3453272 90.9828981,10.3453272 C94.552258,10.3453272 97.3006652,11.1319742 99.2281196,12.7026432 C101.154703,14.2741872 102.118431,16.4582484 102.118431,19.2522016 L102.118431,34.159994 C101.803282,34.2553717 101.304442,34.3507494 100.626264,34.4461271 C99.9463444,34.5415047 99.2437899,34.588756 98.5168593,34.588756 C97.82214,34.588756 97.1979373,34.5415047 96.6459923,34.4461271 C96.0923063,34.3507494 95.6265483,34.159994 95.2469774,33.8747361 C94.868277,33.588603 94.5757636,33.2000922 94.3711783,32.7074534 C94.1648519,32.2156896 94.0629945,31.5725466 94.0629945,30.7788994 L94.0629945,19.5383346 Z" id="Fill-8" fill="#FFFFFF"></path>
                    <path d="M210.637594,12.0125989 C210.416468,11.6634641 210.211883,11.1874508 210.022097,10.5836839 C209.832312,9.98079198 209.737419,9.34464917 209.737419,8.6778805 C209.737419,7.43972083 210.013391,6.55157096 210.567077,6.01168084 C211.119022,5.4709157 211.838118,5.20140815 212.723493,5.20140815 L233.383993,5.20140815 C233.604249,5.55141795 233.809705,6.02743128 233.99949,6.63032316 C234.189276,7.23409007 234.284168,7.86935786 234.284168,8.5352515 C234.284168,9.77341117 234.007325,10.6633111 233.45451,11.2023262 C232.901694,11.7430913 232.182599,12.0125989 231.298094,12.0125989 L226.038076,12.0125989 L226.038076,34.01684 C225.690717,34.1130927 225.145736,34.2075954 224.404006,34.302973 C223.661405,34.3983507 222.926639,34.4464771 222.200579,34.4464771 C221.472778,34.4464771 220.833775,34.3896005 220.28096,34.2793474 C219.728144,34.1682193 219.262387,33.9695887 218.883686,33.6843307 C218.504115,33.3973227 218.219437,33.0009366 218.030522,32.4925473 C217.840737,31.9850331 217.745844,31.3182645 217.745844,30.4922413 L217.745844,12.0125989 L210.637594,12.0125989 Z" id="Fill-10" fill="#FFFFFF"></path>
                    <path d="M245.705511,34.1599065 C245.358151,34.2229083 244.844512,34.3104108 244.164592,34.4224139 C243.485543,34.533542 242.798659,34.5886685 242.10394,34.5886685 C241.40835,34.5886685 240.785018,34.5414172 240.232202,34.4460396 C239.679387,34.3506619 239.213629,34.1599065 238.834058,33.8746486 C238.455357,33.5885155 238.162844,33.2000047 237.958259,32.7073659 C237.751932,32.2156021 237.649204,31.5724591 237.649204,30.7788119 L237.649204,11.392644 C237.997435,11.3296423 238.509333,11.2430148 239.190123,11.1318867 C239.868302,11.0207586 240.556056,10.964757 241.250776,10.964757 C241.945495,10.964757 242.569698,11.0120084 243.122513,11.107386 C243.675329,11.2027637 244.141957,11.392644 244.520658,11.6796521 C244.899358,11.96491 245.191001,12.3542959 245.397327,12.8460597 C245.602783,13.3386985 245.705511,13.9809665 245.705511,14.7754887 L245.705511,34.1599065 Z M237.270504,4.62957964 C237.270504,3.42379587 237.67271,2.40789243 238.478863,1.5818693 C239.284145,0.755846165 240.3506,0.343709624 241.677358,0.343709624 C243.004115,0.343709624 244.07057,0.755846165 244.875852,1.5818693 C245.682005,2.40789243 246.085082,3.42379587 246.085082,4.62957964 C246.085082,5.83711345 245.682005,6.8530169 244.875852,7.678165 C244.07057,8.50418813 243.004115,8.91632467 241.677358,8.91632467 C240.3506,8.91632467 239.284145,8.50418813 238.478863,7.678165 C237.67271,6.8530169 237.270504,5.83711345 237.270504,4.62957964 L237.270504,4.62957964 Z" id="Fill-12" fill="#FFFFFF"></path>
                    <path d="M270.251651,27.301552 C270.251651,29.7148696 269.351476,31.6049225 267.550255,32.9699607 C265.749905,34.3341239 263.09639,35.0175181 259.589712,35.0175181 C258.262954,35.0175181 257.030219,34.9221404 255.893248,34.731385 C254.756276,34.5406297 253.784714,34.2466215 252.979431,33.8502354 C252.173278,33.4538493 251.54124,32.9542103 251.083318,32.3504434 C250.625395,31.7475515 250.396433,31.0335315 250.396433,30.2066333 C250.396433,29.444487 250.554008,28.802219 250.870027,28.2780793 C251.186045,27.7539397 251.564746,27.3181775 252.007869,26.9681677 C252.923714,27.4765569 253.974499,27.9289446 255.158482,28.3253307 C256.343335,28.7225918 257.710139,28.9212223 259.258022,28.9212223 C260.236549,28.9212223 260.986986,28.7777183 261.50846,28.4915853 C262.030806,28.2063273 262.290237,27.8256917 262.290237,27.3496783 C262.290237,26.9051659 262.101322,26.5551561 261.721751,26.300524 C261.343051,26.0467669 260.711013,25.8411361 259.826508,25.6818816 L258.405729,25.3957486 C255.656451,24.8567335 253.610599,24.0070847 252.268171,22.8476773 C250.925743,21.6891448 250.25453,20.0300984 250.25453,17.8714129 C250.25453,16.696255 250.506996,15.6322252 251.01193,14.6793235 C251.516864,13.7264219 252.228124,12.9336497 253.145711,12.2983819 C254.060686,11.6631141 255.158482,11.1713503 256.438228,10.8213405 C257.717974,10.4730808 259.131789,10.2972008 260.679672,10.2972008 C261.847985,10.2972008 262.945781,10.3855783 263.97306,10.5597082 C264.999468,10.7338381 265.891808,10.9963454 266.65008,11.3454802 C267.408351,11.69549 268.008178,12.1478777 268.451301,12.7026432 C268.892683,13.2591588 269.113809,13.9171772 269.113809,14.6793235 C269.113809,15.409969 268.97974,16.0373616 268.711603,16.5615013 C268.443466,17.0847659 268.10307,17.5214031 267.693029,17.8714129 C267.439692,17.7121585 267.060991,17.5459038 266.556058,17.3700239 C266.050253,17.196769 265.496567,17.0375146 264.897611,16.8940106 C264.296043,16.7513816 263.688382,16.6323782 263.072885,16.5370006 C262.456517,16.4424979 261.894996,16.3943716 261.390062,16.3943716 C260.347983,16.3943716 259.54183,16.5133749 258.973344,16.7513816 C258.405729,16.9902633 258.12018,17.3638987 258.12018,17.8714129 C258.12018,18.2205477 258.278625,18.5058057 258.594644,18.7280619 C258.910663,18.9503181 259.510489,19.1568239 260.395865,19.3475793 L261.863655,19.6809636 C264.897611,20.3801082 267.053156,21.3408851 268.332902,22.5624193 C269.612649,23.7848285 270.251651,25.3651228 270.251651,27.301552" id="Fill-14" fill="#FFFFFF"></path>
                    <path d="M287.357939,16.7278434 C286.568327,16.7278434 285.81702,16.855597 285.106631,17.1093541 C284.396241,17.3639862 283.780744,17.7358716 283.258399,18.2285104 C282.736924,18.7202742 282.318177,19.3319163 282.003029,20.0625618 C281.686139,20.7932072 281.529436,21.6498562 281.529436,22.6342588 C281.529436,24.6030639 282.089216,26.0801053 283.211388,27.0636328 C284.331818,28.0480354 285.699493,28.5397992 287.310058,28.5397992 C288.258114,28.5397992 289.079938,28.4286711 289.773786,28.2064148 C290.468506,27.9841586 291.084873,27.747027 291.622018,27.4923948 C292.254056,27.9377823 292.72852,28.4207958 293.043668,28.9449355 C293.359687,29.4690752 293.518132,30.0955927 293.518132,30.8262382 C293.518132,32.1291497 292.901765,33.1363029 291.6699,33.8503229 C290.438036,34.5652179 288.731707,34.9222279 286.551786,34.9222279 C284.56165,34.9222279 282.7613,34.6282197 281.149865,34.0410782 C279.5393,33.4539368 278.156826,32.6287887 277.003313,31.5647589 C275.8498,30.5007291 274.958331,29.2231933 274.326293,27.7304015 C273.694255,26.2376097 273.378236,24.5864385 273.378236,22.7768878 C273.378236,20.6812041 273.717761,18.8471528 274.39681,17.2756087 C275.076729,15.7040647 276.00041,14.4107785 277.169593,13.393125 C278.337905,12.3772216 279.688168,11.6159503 281.221252,11.107561 C282.753465,10.6000468 284.371865,10.3454147 286.078193,10.3454147 C288.353007,10.3454147 290.106346,10.7584263 291.338211,11.5835744 C292.570075,12.4095975 293.186443,13.4727523 293.186443,14.7756637 C293.186443,15.3785556 293.043668,15.9420714 292.759861,16.4653361 C292.476053,16.9903508 292.143493,17.4418634 291.764793,17.8233741 C291.226777,17.569617 290.579939,17.3237351 289.821668,17.0848534 C289.063397,16.8468467 288.242444,16.7278434 287.357939,16.7278434" id="Fill-16" fill="#FFFFFF"></path>
                    <g id="Group-20" transform="translate(297.635479, 2.625074)">
                        <mask id="mask-4" fill="white">
                            <use xlink:href="#path-3"></use>
                        </mask>
                        <g id="Clip-19"></g>
                        <path d="M22.6564223,31.534833 C22.3404033,31.6302107 21.8424341,31.7255884 21.1633851,31.820966 C20.4843361,31.9163437 19.7809111,31.963595 19.054851,31.963595 C18.3592611,31.963595 17.735929,31.9163437 17.1831135,31.820966 C16.630298,31.7255884 16.16454,31.534833 15.7849691,31.249575 C15.4062687,30.963442 15.1137553,30.5749312 14.90917,30.0822924 C14.7028436,29.5905286 14.6001157,28.9473856 14.6001157,28.1537384 L14.6001157,17.5799423 C14.6001157,16.2779058 14.2762615,15.3652553 13.6294239,14.8411156 C12.9817156,14.3169759 12.1842684,14.0544686 11.2362116,14.0544686 C10.6033031,14.0544686 10.0043471,14.1340958 9.43499065,14.2933502 C8.86650478,14.4526047 8.40858202,14.642485 8.06035178,14.8647412 L8.06035178,31.534833 C7.74520341,31.6302107 7.24723417,31.7255884 6.56905578,31.820966 C5.88826566,31.9163437 5.18658173,31.963595 4.45965111,31.963595 C3.76493178,31.963595 3.1398585,31.9163437 2.58791357,31.820966 C2.03509807,31.7255884 1.56846955,31.534833 1.18976916,31.249575 C0.810198201,30.963442 0.517684801,30.5749312 0.313099535,30.0822924 C0.107643694,29.5905286 0.00491577357,28.9473856 0.00491577357,28.1537384 L0.00491577357,0.52746477 C0.352275437,0.464463006 0.86591504,0.378710605 1.54496401,0.266707468 C2.22401297,0.155579357 2.91089712,0.0995777884 3.60648702,0.0995777884 C4.30120635,0.0995777884 4.92540905,0.147704136 5.47909513,0.242206782 C6.03016949,0.338459477 6.49679801,0.52746477 6.87636897,0.814472807 C7.25593993,1.09973079 7.54758275,1.4891167 7.75303859,1.98088047 C7.95762386,2.47351926 8.06035178,3.11666227 8.06035178,3.9103095 L8.06035178,8.57769019 C8.47126346,8.41931076 9.09546616,8.23643063 9.93295989,8.02992485 C10.769583,7.82341907 11.6932637,7.72016618 12.7048726,7.72016618 C15.8328507,7.72016618 18.2730741,8.50681321 20.0264134,10.0783572 C21.7797526,11.6490262 22.6564223,13.9914668 22.6564223,17.1030539 L22.6564223,31.534833 Z" id="Fill-18" fill="#FFFFFF" mask="url(#mask-4)"></path>
                    </g>
                </g>
                <path d="M157.882688,0 C154.621637,0.0209078747 151.364942,1.05671883 148.61343,3.10743287 L148.61343,3.10743287 L121.901381,23.0143431 C116.541203,27.0094894 114.299231,33.9631001 116.319096,40.3373884 L116.319096,40.3373884 L126.681469,73.0477583 C128.746627,79.5684017 134.797514,84 141.636662,84 L141.636662,84 L141.717666,84 C141.138446,79.1999004 140.498256,73.9563797 140.57055,73.9128216 L140.57055,73.9128216 C147.45499,69.7591239 172.444187,53.755017 178.672759,42.8480757 L178.672759,42.8480757 C178.019504,50.2363959 176.09632,72.4170374 175.092919,83.9695093 L175.092919,83.9695093 C181.618505,83.6558912 187.30444,79.32709 189.294692,73.0477583 L189.294692,73.0477583 L199.656193,40.3373884 C201.674317,33.9631001 199.434086,27.0094894 194.073908,23.0143431 L194.073908,23.0143431 L167.36186,3.10743287 C164.609477,1.05671883 161.353652,0.0209078747 158.09173,0 L158.09173,0 L157.882688,0 Z M151.681988,54.5530008 L151.291777,50.9080614 C150.970375,45.407548 154.853325,46.9704116 154.646897,43.0841604 L154.646897,43.0841604 C154.531053,40.8931894 154.221845,36.2751626 154.034579,32.7678666 L154.034579,32.7678666 C153.781987,27.9982577 152.596546,23.3018263 151.34665,19.5366666 L151.34665,19.5366666 C154.380368,17.3395974 156.921967,15.7140101 157.735488,15.2035095 L157.735488,15.2035095 C158.890444,15.8865001 160.338929,16.792508 161.932001,17.8509692 L161.932001,17.8509692 C161.155933,24.7035251 159.735321,38.3938272 160.526195,40.3591674 L160.526195,40.3591674 C161.376298,42.4647646 162.784717,44.1722411 164.481439,44.8020908 L164.481439,44.8020908 L163.710598,54.888398 C161.902387,56.3484646 159.962654,57.8468623 157.862655,59.3862045 L157.862655,59.3862045 C155.62678,57.7231573 153.575558,56.1141221 151.681988,54.5530008 L151.681988,54.5530008 Z M162.888367,36.4276158 L163.568623,18.9582154 C164.001514,19.2561526 164.440502,19.5628014 164.883844,19.8772907 L164.883844,19.8772907 L164.20533,36.4781432 L162.888367,36.4276158 Z M165.644233,36.5338975 L166.314038,20.9122305 C166.749542,21.2328179 167.185045,21.5603746 167.620549,21.8914159 L167.620549,21.8914159 L166.962938,36.5844249 L165.644233,36.5338975 Z M168.454974,36.6410504 L169.093422,23.0361221 C169.530668,23.3828443 169.961816,23.7356647 170.38861,24.0910986 L170.38861,24.0910986 L169.773679,36.6924489 L168.454974,36.6410504 Z M136.883576,35.7333001 C136.810411,32.9028966 139.885938,28.8014685 145.870628,23.7844498 L145.870628,23.7844498 C146.561337,35.1339411 147.412311,49.1744501 147.412311,49.1744501 L147.412311,49.1744501 L147.414924,49.1735789 L147.461087,50.9045767 C140.686393,44.7202016 137.024679,39.5394045 136.883576,35.7333001 L136.883576,35.7333001 Z M167.131914,44.9188264 C167.131914,44.9188264 167.153689,44.905759 167.1894,44.8892069 L167.1894,44.8892069 C168.914865,44.3752217 170.450451,42.7923213 171.46953,40.7764538 L171.46953,40.7764538 C172.148044,39.4383498 172.237758,32.1929 172.168948,25.6234716 L172.168948,25.6234716 C176.13116,29.1630005 179.186653,32.8602097 179.091713,35.7280732 L179.091713,35.7280732 C178.958449,39.7720046 174.734064,45.4136461 167.055265,52.0945832 L167.055265,52.0945832 L167.131914,44.9188264 Z M137.252883,41.9856258 C139.897261,47.2622507 146.241677,53.5267727 156.065767,61.164245 L156.065767,61.164245 C149.099452,66.4408699 142.537284,70.6372546 140.347572,72.0093339 L140.347572,72.0093339 C140.108916,69.9290003 138.082953,52.3271833 137.252883,41.9856258 L137.252883,41.9856258 Z" id="Fill-22" fill="#FFFFFF"></path>
            </g>
        </g>
    </g>
</svg>