<?xml version="1.0" encoding="UTF-8"?>
<svg width="6788px" height="1586px" viewBox="0 0 6788 1586" version="1.1" xmlns="http://www.w3.org/2000/svg" xmlns:xlink="http://www.w3.org/1999/xlink">
    <!-- Generator: Sketch 46.2 (44496) - http://www.bohemiancoding.com/sketch -->
    <title>projekte</title>
    <desc>Created with Sketch.</desc>
    <defs></defs>
    <g id="Page-1" stroke="none" stroke-width="1" fill="none" fill-rule="evenodd">
        <g id="projekte" fill-rule="nonzero" fill="#FFFFFF">
            <path d="M826.4,245.6 C905.333728,314.400344 944.8,411.199376 944.8,536 C944.8,668.267328 905.333728,770.932968 826.4,844 C747.466272,917.067032 636.534048,953.6 493.6,953.6 L293.6,953.6 L293.6,1264 L0.8,1264 L0.8,142.4 L493.6,142.4 C636.534048,142.4 747.466272,176.799656 826.4,245.6 Z M617.6,675.2 C650.133496,645.333184 666.4,602.133616 666.4,545.6 C666.4,491.199728 650.133496,449.33348 617.6,420 C585.066504,390.66652 538.933632,376 479.2,376 L293.6,376 L293.6,720 L479.2,720 C538.933632,720 585.066504,705.066816 617.6,675.2 Z M1489.6,427.2 C1537.0669,400.5332 1591.1997,387.2 1652,387.2 L1652,648 C1642.39995,646.933328 1628.0001,646.4 1608.8,646.4 C1541.59966,646.4 1487.20021,662.133176 1445.6,693.6 C1403.99979,725.066824 1380.00003,767.999728 1373.6,822.4 L1373.6,1264 L1088.8,1264 L1088.8,398.4 L1373.6,398.4 L1373.6,542.4 C1403.46682,492.266416 1442.1331,453.8668 1489.6,427.2 Z M2426.4,444 C2497.86702,480.800184 2553.33314,532.533 2592.8,599.2 C2632.26686,665.867 2652,742.932896 2652,830.4 C2652,918.933776 2632.26686,996.533 2592.8,1063.2 C2553.33314,1129.867 2497.86702,1181.59982 2426.4,1218.4 C2354.93298,1255.20018 2272.26714,1273.6 2178.4,1273.6 C2084.53286,1273.6 2001.86702,1255.20018 1930.4,1218.4 C1858.93298,1181.59982 1803.73353,1129.867 1764.8,1063.2 C1725.86647,996.533 1706.4,918.933776 1706.4,830.4 C1706.4,742.932896 1725.86647,665.867 1764.8,599.2 C1803.73353,532.533 1858.93298,480.800184 1930.4,444 C2001.86702,407.199816 2084.53286,388.8 2178.4,388.8 C2272.26714,388.8 2354.93298,407.199816 2426.4,444 Z M2044,678.4 C2009.8665,717.866864 1992.8,769.59968 1992.8,833.6 C1992.8,898.666992 2009.8665,950.93314 2044,990.4 C2078.1335,1029.86686 2122.93306,1049.6 2178.4,1049.6 C2234.93362,1049.6 2280.2665,1029.86686 2314.4,990.4 C2348.5335,950.93314 2365.6,898.666992 2365.6,833.6 C2365.6,769.59968 2348.26684,717.866864 2313.6,678.4 C2278.93316,638.933136 2233.86694,619.2 2178.4,619.2 C2122.93306,619.2 2078.1335,638.933136 2044,678.4 Z M2714.4,1360 C2742.13347,1360 2763.46659,1350.93342 2778.4,1332.8 C2793.33341,1314.66658 2800.8,1288.00018 2800.8,1252.8 L2800.8,398.4 L3085.6,398.4 L3085.6,1296 C3085.6,1385.60045 3058.13361,1456.26641 3003.2,1508 C2948.26639,1559.73359 2873.86714,1585.6 2780,1585.6 C2712.79966,1585.6 2648.8003,1574.40011 2588,1552 L2644,1348.8 C2671.73347,1356.2667 2695.1999,1360 2714.4,1360 Z M3046.4,42.4 C3074.66681,70.666808 3088.8,107.199776 3088.8,152 C3088.8,195.733552 3074.66681,231.999856 3046.4,260.8 C3018.13319,289.600144 2982.13355,304 2938.4,304 C2894.66645,304 2858.66681,289.600144 2830.4,260.8 C2802.13319,231.999856 2788,195.733552 2788,152 C2788,107.199776 2802.13319,70.666808 2830.4,42.4 C2858.66681,14.133192 2894.66645,0 2938.4,0 C2982.13355,0 3018.13319,14.133192 3046.4,42.4 Z M4002.4,513.6 C4078.13371,596.800416 4116,710.932608 4116,856 C4116,878.400112 4115.46667,895.466608 4114.4,907.2 L3512.8,907.2 C3526.66674,956.26691 3550.6665,993.86654 3584.8,1020 C3618.9335,1046.13346 3660.53309,1059.2 3709.6,1059.2 C3746.93352,1059.2 3782.93316,1051.73341 3817.6,1036.8 C3852.26684,1021.86659 3883.99986,1000.00014 3912.8,971.2 L4061.6,1120 C4016.79978,1170.13358 3962.66698,1208.26654 3899.2,1234.4 C3835.73302,1260.53346 3764.0004,1273.6 3684,1273.6 C3591.19954,1273.6 3510.13368,1255.46685 3440.8,1219.2 C3371.46632,1182.93315 3318.40018,1131.73366 3281.6,1065.6 C3244.79982,999.46634 3226.4,922.667104 3226.4,835.2 C3226.4,746.666224 3245.06648,668.533672 3282.4,600.8 C3319.73352,533.066328 3372.53299,480.800184 3440.8,444 C3509.06701,407.199816 3587.99955,388.8 3677.6,388.8 C3818.4007,388.8 3926.66629,430.399584 4002.4,513.6 Z M3839.2,755.2 C3839.2,705.066416 3824.53348,664.800152 3795.2,634.4 C3765.86652,603.999848 3727.20024,588.8 3679.2,588.8 C3634.39978,588.8 3596.80015,603.733184 3566.4,633.6 C3535.99985,663.466816 3516.00005,703.999744 3506.4,755.2 L3839.2,755.2 Z M4824.8,1264 L4642.4,937.6 L4554.4,1028.8 L4554.4,1264 L4269.6,1264 L4269.6,76.8 L4554.4,76.8 L4554.4,691.2 L4831.2,398.4 L5154.4,398.4 L4837.6,732.8 L5160.8,1264 L4824.8,1264 Z M5837.6,1219.2 C5805.59984,1237.33342 5768.80021,1251.46662 5727.2,1261.6 C5685.59979,1271.73338 5643.46688,1276.8 5600.8,1276.8 C5515.46624,1276.8 5446.40026,1252.26691 5393.6,1203.2 C5340.79974,1154.13309 5314.4,1086.40043 5314.4,1000 L5314.4,628.8 L5194.4,628.8 L5194.4,440 L5314.4,440 L5314.4,200 L5597.6,200 L5597.6,440 L5821.6,440 L5821.6,628.8 L5597.6,628.8 L5597.6,955.2 C5597.6,1016.0003 5622.66642,1046.4 5672.8,1046.4 C5703.73349,1046.4 5740.53312,1036.8001 5783.2,1017.6 L5837.6,1219.2 Z M6674.4,513.6 C6750.13371,596.800416 6788,710.932608 6788,856 C6788,878.400112 6787.46667,895.466608 6786.4,907.2 L6184.8,907.2 C6198.66674,956.26691 6222.6665,993.86654 6256.8,1020 C6290.9335,1046.13346 6332.53309,1059.2 6381.6,1059.2 C6418.93352,1059.2 6454.93316,1051.73341 6489.6,1036.8 C6524.26684,1021.86659 6555.99986,1000.00014 6584.8,971.2 L6733.6,1120 C6688.79978,1170.13358 6634.66698,1208.26654 6571.2,1234.4 C6507.73302,1260.53346 6436.0004,1273.6 6356,1273.6 C6263.19954,1273.6 6182.13368,1255.46685 6112.8,1219.2 C6043.46632,1182.93315 5990.40018,1131.73366 5953.6,1065.6 C5916.79982,999.46634 5898.4,922.667104 5898.4,835.2 C5898.4,746.666224 5917.06648,668.533672 5954.4,600.8 C5991.73352,533.066328 6044.53299,480.800184 6112.8,444 C6181.06701,407.199816 6259.99955,388.8 6349.6,388.8 C6490.4007,388.8 6598.66629,430.399584 6674.4,513.6 Z M6511.2,755.2 C6511.2,705.066416 6496.53348,664.800152 6467.2,634.4 C6437.86652,603.999848 6399.20024,588.8 6351.2,588.8 C6306.39978,588.8 6268.80015,603.733184 6238.4,633.6 C6207.99985,663.466816 6188.00005,703.999744 6178.4,755.2 L6511.2,755.2 Z" id="Projekte"></path>
        </g>
    </g>
</svg>