<?xml version="1.0" encoding="UTF-8"?>
<svg width="3395px" height="793px" viewBox="0 0 3395 793" version="1.1" xmlns="http://www.w3.org/2000/svg" xmlns:xlink="http://www.w3.org/1999/xlink">
    <!-- Generator: Sketch 46.1 (44463) - http://www.bohemiancoding.com/sketch -->
    <title>projekte</title>
    <desc>Created with Sketch.</desc>
    <defs></defs>
    <g id="Page-1" stroke="none" stroke-width="1" fill="none" fill-rule="evenodd">
        <g id="Desktop-HD-Copy-15" transform="translate(-927.000000, -59.000000)" fill="#FFFFFF">
            <path d="M1302.6,281 C1333.00015,299.400092 1356.59992,325.533164 1373.4,359.4 C1390.20008,393.266836 1398.6,432.333112 1398.6,476.6 C1398.6,520.333552 1390.46675,558.733168 1374.2,591.8 C1357.93325,624.866832 1334.73348,650.466576 1304.6,668.6 C1274.46652,686.733424 1239.66686,695.8 1200.2,695.8 C1172.99986,695.8 1148.33344,690.600052 1126.2,680.2 C1104.06656,669.799948 1085.26674,654.733432 1069.8,635 L1069.8,846.2 L927.4,846.2 L927.4,258.2 L1069.8,258.2 L1069.8,314.2 C1101.26682,273.666464 1143.6664,253.4 1197,253.4 C1237.0002,253.4 1272.19985,262.599908 1302.6,281 Z M1229.4,551 C1246.73342,531.266568 1255.4,505.40016 1255.4,473.4 C1255.4,441.39984 1246.73342,415.4001 1229.4,395.4 C1212.06658,375.3999 1189.53347,365.4 1161.8,365.4 C1134.59986,365.4 1112.46675,375.3999 1095.4,395.4 C1078.33325,415.4001 1069.8,441.39984 1069.8,473.4 C1069.8,505.40016 1078.33325,531.266568 1095.4,551 C1112.46675,570.733432 1134.59986,580.6 1161.8,580.6 C1189.53347,580.6 1212.06658,570.733432 1229.4,551 Z M1672.6,272.6 C1696.33345,259.2666 1723.39985,252.6 1753.8,252.6 L1753.8,383 C1748.99998,382.466664 1741.80005,382.2 1732.2,382.2 C1698.59983,382.2 1671.4001,390.066588 1650.6,405.8 C1629.7999,421.533412 1617.80002,442.999864 1614.6,470.2 L1614.6,691 L1472.2,691 L1472.2,258.2 L1614.6,258.2 L1614.6,330.2 C1629.53341,305.133208 1648.86655,285.9334 1672.6,272.6 Z M2141,281 C2176.73351,299.400092 2204.46657,325.2665 2224.2,358.6 C2243.93343,391.9335 2253.8,430.466448 2253.8,474.2 C2253.8,518.466888 2243.93343,557.2665 2224.2,590.6 C2204.46657,623.9335 2176.73351,649.799908 2141,668.2 C2105.26649,686.600092 2063.93357,695.8 2017,695.8 C1970.06643,695.8 1928.73351,686.600092 1893,668.2 C1857.26649,649.799908 1829.66676,623.9335 1810.2,590.6 C1790.73324,557.2665 1781,518.466888 1781,474.2 C1781,430.466448 1790.73324,391.9335 1810.2,358.6 C1829.66676,325.2665 1857.26649,299.400092 1893,281 C1928.73351,262.599908 1970.06643,253.4 2017,253.4 C2063.93357,253.4 2105.26649,262.599908 2141,281 Z M1949.8,398.2 C1932.73325,417.933432 1924.2,443.79984 1924.2,475.8 C1924.2,508.333496 1932.73325,534.466568 1949.8,554.2 C1966.86675,573.933432 1989.26653,583.8 2017,583.8 C2045.26681,583.8 2067.93325,573.933432 2085,554.2 C2102.06675,534.466568 2110.6,508.333496 2110.6,475.8 C2110.6,443.79984 2101.93342,417.933432 2084.6,398.2 C2067.26658,378.466568 2044.73347,368.6 2017,368.6 C1989.26653,368.6 1966.86675,378.466568 1949.8,398.2 Z M2285,739 C2298.86674,739 2309.5333,734.466712 2317,725.4 C2324.4667,716.333288 2328.2,703.000088 2328.2,685.4 L2328.2,258.2 L2470.6,258.2 L2470.6,707 C2470.6,751.800224 2456.8668,787.133204 2429.4,813 C2401.9332,838.866796 2364.73357,851.8 2317.8,851.8 C2284.19983,851.8 2252.20015,846.200056 2221.8,835 L2249.8,733.4 C2263.66674,737.133352 2275.39995,739 2285,739 Z M2451,80.2 C2465.1334,94.333404 2472.2,112.599888 2472.2,135 C2472.2,156.866776 2465.1334,174.999928 2451,189.4 C2436.8666,203.800072 2418.86678,211 2397,211 C2375.13322,211 2357.1334,203.800072 2343,189.4 C2328.8666,174.999928 2321.8,156.866776 2321.8,135 C2321.8,112.599888 2328.8666,94.333404 2343,80.2 C2357.1334,66.066596 2375.13322,59 2397,59 C2418.86678,59 2436.8666,66.066596 2451,80.2 Z M2929,315.8 C2966.86686,357.400208 2985.8,414.466304 2985.8,487 C2985.8,498.200056 2985.53334,506.733304 2985,512.6 L2684.2,512.6 C2691.13337,537.133456 2703.13325,555.933268 2720.2,569 C2737.26675,582.066732 2758.06654,588.6 2782.6,588.6 C2801.26676,588.6 2819.26658,584.866704 2836.6,577.4 C2853.93342,569.933296 2869.79993,559.000072 2884.2,544.6 L2958.6,619 C2936.19989,644.066792 2909.13349,663.133268 2877.4,676.2 C2845.66651,689.266732 2809.8002,695.8 2769.8,695.8 C2723.39977,695.8 2682.86684,686.733424 2648.2,668.6 C2613.53316,650.466576 2587.00009,624.866832 2568.6,591.8 C2550.19991,558.733168 2541,520.333552 2541,476.6 C2541,432.333112 2550.33324,393.266836 2569,359.4 C2587.66676,325.533164 2614.0665,299.400092 2648.2,281 C2682.3335,262.599908 2721.79978,253.4 2766.6,253.4 C2837.00035,253.4 2891.13314,274.199792 2929,315.8 Z M2847.4,436.6 C2847.4,411.533208 2840.06674,391.400076 2825.4,376.2 C2810.73326,360.999924 2791.40012,353.4 2767.4,353.4 C2744.99989,353.4 2726.20008,360.866592 2711,375.8 C2695.79992,390.733408 2685.80002,410.999872 2681,436.6 L2847.4,436.6 Z M3340.2,691 L3249,527.8 L3205,573.4 L3205,691 L3062.6,691 L3062.6,97.4 L3205,97.4 L3205,404.6 L3343.4,258.2 L3505,258.2 L3346.6,425.4 L3508.2,691 L3340.2,691 Z M3846.6,668.6 C3830.59992,677.666712 3812.2001,684.733308 3791.4,689.8 C3770.5999,694.866692 3749.53344,697.4 3728.2,697.4 C3685.53312,697.4 3651.00013,685.133456 3624.6,660.6 C3598.19987,636.066544 3585,602.200216 3585,559 L3585,373.4 L3525,373.4 L3525,279 L3585,279 L3585,159 L3726.6,159 L3726.6,279 L3838.6,279 L3838.6,373.4 L3726.6,373.4 L3726.6,536.6 C3726.6,567.000152 3739.13321,582.2 3764.2,582.2 C3779.66674,582.2 3798.06656,577.400048 3819.4,567.8 L3846.6,668.6 Z M4265,315.8 C4302.86686,357.400208 4321.8,414.466304 4321.8,487 C4321.8,498.200056 4321.53334,506.733304 4321,512.6 L4020.2,512.6 C4027.13337,537.133456 4039.13325,555.933268 4056.2,569 C4073.26675,582.066732 4094.06654,588.6 4118.6,588.6 C4137.26676,588.6 4155.26658,584.866704 4172.6,577.4 C4189.93342,569.933296 4205.79993,559.000072 4220.2,544.6 L4294.6,619 C4272.19989,644.066792 4245.13349,663.133268 4213.4,676.2 C4181.66651,689.266732 4145.8002,695.8 4105.8,695.8 C4059.39977,695.8 4018.86684,686.733424 3984.2,668.6 C3949.53316,650.466576 3923.00009,624.866832 3904.6,591.8 C3886.19991,558.733168 3877,520.333552 3877,476.6 C3877,432.333112 3886.33324,393.266836 3905,359.4 C3923.66676,325.533164 3950.0665,299.400092 3984.2,281 C4018.3335,262.599908 4057.79978,253.4 4102.6,253.4 C4173.00035,253.4 4227.13314,274.199792 4265,315.8 Z M4183.4,436.6 C4183.4,411.533208 4176.06674,391.400076 4161.4,376.2 C4146.73326,360.999924 4127.40012,353.4 4103.4,353.4 C4080.99989,353.4 4062.20008,360.866592 4047,375.8 C4031.79992,390.733408 4021.80002,410.999872 4017,436.6 L4183.4,436.6 Z" id="projekte"></path>
        </g>
    </g>
</svg>