<?xml version="1.0" encoding="UTF-8"?>
<svg width="26px" height="31px" viewBox="0 0 26 31" version="1.1" xmlns="http://www.w3.org/2000/svg" xmlns:xlink="http://www.w3.org/1999/xlink">
    <!-- Generator: Sketch 46.2 (44496) - http://www.bohemiancoding.com/sketch -->
    <title>Group 3</title>
    <desc>Created with Sketch.</desc>
    <defs>
        <path d="M6,0 L23,0 C24.1045695,-2.02906125e-16 25,0.8954305 25,2 L25,29 C25,30.1045695 24.1045695,31 23,31 L2,31 C0.8954305,31 1.3527075e-16,30.1045695 0,29 L0,6 L4,6 C5.1045695,6 6,5.1045695 6,4 L6,-4.4408921e-16 Z" id="path-1"></path>
    </defs>
    <g id="Page-1" stroke="none" stroke-width="1" fill="none" fill-rule="evenodd">
        <g id="Desktop-HD-Copy-17" transform="translate(-1150.000000, -2065.000000)">
            <g id="Group-3" transform="translate(1151.000000, 2065.000000)">
                <g id="Combined-Shape">
                    <use fill="#FFFFFF" fill-rule="evenodd" xlink:href="#path-1"></use>
                    <path stroke="#F28D01" stroke-width="1.5" d="M6.75,0.75 L6.75,4 C6.75,5.51878306 5.51878306,6.75 4,6.75 L0.75,6.75 L0.75,29 C0.75,29.6903559 1.30964406,30.25 2,30.25 L23,30.25 C23.6903559,30.25 24.25,29.6903559 24.25,29 L24.25,2 C24.25,1.30964406 23.6903559,0.75 23,0.75 L6.75,0.75 Z"></path>
                </g>
                <text id="€-copy" font-family="OpenSansCondensed-Bold, Open Sans Condensed" font-size="18" font-style="condensed" font-weight="bold" fill="#F28D01">
                    <tspan x="8" y="22">€</tspan>
                </text>
                <path d="M0.972307431,6.02769257 L5.5,1.5" id="Line" stroke="#F28D01" stroke-width="1.5" stroke-linecap="square"></path>
            </g>
        </g>
    </g>
</svg>