<?xml version="1.0" encoding="UTF-8"?>
<svg width="31px" height="29px" viewBox="0 0 31 29" version="1.1" xmlns="http://www.w3.org/2000/svg" xmlns:xlink="http://www.w3.org/1999/xlink">
    <!-- Generator: Sketch 46.2 (44496) - http://www.bohemiancoding.com/sketch -->
    <title>Group 2</title>
    <desc>Created with Sketch.</desc>
    <defs>
        <rect id="path-1" x="0" y="7" width="31" height="17" rx="2"></rect>
        <rect id="path-2" x="5" y="0" width="22" height="24" rx="2"></rect>
        <path d="M30.7427984,8.01813223 C30.9065539,8.30817147 31,8.64317298 31,9 L31,27 C31,28.1045695 30.1045695,29 29,29 L2,29 C0.8954305,29 1.3527075e-16,28.1045695 0,27 L0,9 L0,9 C-7.01176413e-17,8.42744601 0.240590616,7.91108497 0.626189251,7.54649947 L14.5060967,21.4264069 C15.2871452,22.2074555 16.5534752,22.2074555 17.3345238,21.4264069 L30.7427984,8.01813223 Z" id="path-3"></path>
    </defs>
    <g id="Page-1" stroke="none" stroke-width="1" fill="none" fill-rule="evenodd">
        <g id="Desktop-HD-Copy-17" transform="translate(-841.000000, -2065.000000)">
            <g id="Group-2" transform="translate(841.000000, 2065.000000)">
                <g id="Rectangle-3-Copy-7">
                    <use fill="#FFFFFF" fill-rule="evenodd" xlink:href="#path-1"></use>
                    <rect stroke="#F28D01" stroke-width="1.5" x="0.75" y="7.75" width="29.5" height="15.5" rx="2"></rect>
                </g>
                <g id="Rectangle-3-Copy-2">
                    <use fill="#FFFFFF" fill-rule="evenodd" xlink:href="#path-2"></use>
                    <rect stroke="#F28D01" stroke-width="1.5" x="5.75" y="0.75" width="20.5" height="22.5" rx="2"></rect>
                </g>
                <g id="Combined-Shape">
                    <use fill="#FFFFFF" fill-rule="evenodd" xlink:href="#path-3"></use>
                    <path stroke="#F28D01" stroke-width="1.5" d="M30.25,9.57159082 L17.8648539,21.956737 C16.7909121,23.0306788 15.0497084,23.0306788 13.9757666,21.956737 L0.773948295,8.75491868 C0.758149734,8.83461891 0.75,8.91660625 0.75,9 L0.75,27 C0.75,27.6903559 1.30964406,28.25 2,28.25 L29,28.25 C29.6903559,28.25 30.25,27.6903559 30.25,27 L30.25,9.57159082 Z"></path>
                </g>
                <path d="M9.54525553,5.75 L22.5691409,5.75" id="Line" stroke="#F28D01" stroke-width="1.5" stroke-linecap="square"></path>
                <path d="M9.54525553,8.875 L17.8964762,8.875" id="Line-Copy" stroke="#F28D01" stroke-width="1.5" stroke-linecap="square"></path>
            </g>
        </g>
    </g>
</svg>