<?xml version="1.0" encoding="UTF-8"?>
<svg width="30px" height="31px" viewBox="0 0 30 31" version="1.1" xmlns="http://www.w3.org/2000/svg" xmlns:xlink="http://www.w3.org/1999/xlink">
    <!-- Generator: Sketch 46.2 (44496) - http://www.bohemiancoding.com/sketch -->
    <title>exchanging</title>
    <desc>Created with Sketch.</desc>
    <defs></defs>
    <g id="Page-1" stroke="none" stroke-width="1" fill="none" fill-rule="evenodd">
        <g id="Desktop-HD-Copy-17" transform="translate(-1285.000000, -2065.000000)" fill-rule="nonzero" fill="#F38C01">
            <g id="exchanging" transform="translate(1285.000000, 2065.000000)">
                <path d="M0.783106961,19.7468031 L3.57173175,19.7468031 L3.57173175,30.213555 C3.57173175,30.6483376 3.92190153,31 4.35483871,31 L25.9125637,31 C26.3455008,31 26.6956706,30.6483376 26.6956706,30.213555 L26.6956706,24.9258312 L28.6629881,26.9015345 C28.8157895,27.0549872 29.0131579,27.1317136 29.216893,27.1317136 C29.4206282,27.1317136 29.6179966,27.0549872 29.770798,26.9015345 C30.0764007,26.5946292 30.0764007,26.1023018 29.770798,25.7953964 L26.4664686,22.4769821 C26.1608659,22.1700767 25.6706282,22.1700767 25.3650255,22.4769821 L22.0670628,25.7890026 C21.7614601,26.0959079 21.7614601,26.5882353 22.0670628,26.8951407 C22.3726655,27.202046 22.8629032,27.202046 23.1685059,26.8951407 L25.1358234,24.9194373 L25.1358234,29.42711 L5.13794567,29.42711 L5.13794567,19.7468031 L7.92657046,19.7468031 C8.35950764,19.7468031 8.70967742,19.3951407 8.70967742,18.9603581 L8.70967742,11.786445 C8.70967742,11.3516624 8.35950764,11 7.92657046,11 L0.783106961,11 C0.350169779,11 0,11.3516624 0,11.786445 L0,18.9603581 C0.00636672326,19.3951407 0.356536503,19.7468031 0.783106961,19.7468031 Z M1.56621392,12.57289 L7.14983022,12.57289 L7.14983022,18.1803069 L1.56621392,18.1803069 L1.56621392,12.57289 Z" id="Shape"></path>
                <path d="M10.7192982,11.005848 C10.3216374,11.005848 10,11.3274854 10,11.7251462 L10,18.2807018 C10,18.6783626 10.3216374,19 10.7192982,19 L17.2807018,19 C17.6783626,19 18,18.6783626 18,18.2807018 L18,11.7192982 C18,11.3216374 17.6783626,11 17.2807018,11 L10.7192982,11 L10.7192982,11.005848 Z M16.5614035,17.5672515 L11.4327485,17.5672515 L11.4327485,12.4385965 L16.5614035,12.4385965 L16.5614035,17.5672515 Z" id="Shape"></path>
                <path d="M3.52791339,8.51472471 C3.68074719,8.66837388 3.8781575,8.74519846 4.08193589,8.74519846 C4.28571429,8.74519846 4.4831246,8.66837388 4.6359584,8.51472471 L7.9346211,5.19846351 C8.24028869,4.89116517 8.24028869,4.39820743 7.9346211,4.09090909 C7.62895351,3.78361076 7.13861176,3.78361076 6.83294417,4.09090909 L4.86520909,6.06914213 L4.86520909,1.56209987 L24.8609637,1.56209987 L24.8609637,11.2483995 L22.071747,11.2483995 C21.6387179,11.2483995 21.2884738,11.6005122 21.2884738,12.0358515 L21.2884738,19.212548 C21.2884738,19.6478873 21.6387179,20 22.071747,20 L29.2167268,20 C29.6497559,20 30,19.6478873 30,19.212548 L30,12.0294494 C30,11.5941101 29.6497559,11.2419974 29.2167268,11.2419974 L26.4275101,11.2419974 L26.4275101,0.781049936 C26.4275101,0.345710627 26.077266,0 25.6442369,0 L4.08193589,0 C3.64890681,0 3.2986627,0.352112676 3.2986627,0.781049936 L3.2986627,6.06914213 L1.33092762,4.08450704 C1.02526003,3.77720871 0.534918276,3.77720871 0.22925069,4.08450704 C-0.0764168966,4.39180538 -0.0764168966,4.88476312 0.22925069,5.19206146 L3.52791339,8.51472471 Z M28.4334536,18.4314981 L22.8486521,18.4314981 L22.8486521,12.8169014 L28.4334536,12.8169014 L28.4334536,18.4314981 Z" id="Shape"></path>
            </g>
        </g>
    </g>
</svg>