<?xml version="1.0" encoding="UTF-8"?>
<svg width="34px" height="30px" viewBox="0 0 34 30" version="1.1" xmlns="http://www.w3.org/2000/svg" xmlns:xlink="http://www.w3.org/1999/xlink">
    <!-- Generator: Sketch 46.2 (44496) - http://www.bohemiancoding.com/sketch -->
    <title>Combined Shape</title>
    <desc>Created with Sketch.</desc>
    <defs></defs>
    <g id="Page-1" stroke="none" stroke-width="1" fill="none" fill-rule="evenodd">
        <g id="Desktop-HD-Copy-17" transform="translate(-983.000000, -2066.000000)" fill-rule="nonzero" fill="#F28D01">
            <path d="M996.493165,2086.4216 C994.294022,2089.92206 991.075087,2091.93209 987.654968,2091.94576 L983.846358,2091.94576 C983.381555,2091.94576 983,2091.56974 983,2091.10483 C983,2090.63993 983.374617,2090.2639 983.846358,2090.2639 L987.648031,2090.2639 C990.464599,2090.2639 993.156295,2088.54102 995.043256,2085.53965 L996.08386,2083.88514 C996.333605,2083.48861 996.860845,2083.36554 997.256274,2083.61167 C997.658641,2083.85779 997.783514,2084.37056 997.533769,2084.76709 L996.493165,2086.4216 Z M1016.74332,2070.31404 C1017.07631,2070.63537 1017.07631,2071.16864 1016.75026,2071.49681 L1012.62253,2075.56472 C1012.45603,2075.72881 1012.24097,2075.81085 1012.01898,2075.81085 C1011.79698,2075.81085 1011.58192,2075.72881 1011.41543,2075.56472 C1011.08243,2075.23655 1011.08243,2074.71012 1011.41543,2074.38195 L1014.09325,2071.74294 C1014.08631,2071.74294 1014.08631,2071.74294 1014.07937,2071.74294 L1010.15283,2071.74294 C1007.33626,2071.74294 1004.64456,2073.45898 1002.7576,2076.46035 L1002.11936,2077.47903 C1001.9598,2077.732 1001.68231,2077.87557 1001.39788,2077.87557 C1001.24526,2077.87557 1001.09263,2077.83455 1000.95389,2077.75251 C1000.55152,2077.50638 1000.42665,2076.99362 1000.67639,2076.59708 L1001.31463,2075.5784 C1003.51377,2072.07794 1006.73964,2070.06791 1010.15283,2070.06791 L1014.08631,2070.06791 C1014.09325,2070.06791 1014.09325,2070.06791 1014.10018,2070.06791 L1011.42236,2067.4289 C1011.08937,2067.10073 1011.08937,2066.57429 1011.42236,2066.24613 C1011.75536,2065.91796 1012.28953,2065.91796 1012.62253,2066.24613 L1016.74332,2070.31404 Z M1011.41543,2095.75387 C1011.08937,2095.42571 1011.08937,2094.89927 1011.41543,2094.58478 L1014.09325,2091.94576 C1014.08631,2091.94576 1014.08631,2091.94576 1014.07937,2091.94576 L1010.27076,2091.94576 C1006.85758,2091.94576 1003.63171,2089.93573 1001.43256,2086.42844 L995.175066,2076.46718 C993.288104,2073.47265 990.589472,2071.74977 987.779841,2071.74977 L983.846358,2071.74977 C983.381555,2071.74977 983,2071.37375 983,2070.90884 C983,2070.44394 983.374617,2070.06791 983.846358,2070.06791 L987.786778,2070.06791 C991.199959,2070.06791 994.425831,2072.0711 996.624974,2075.5784 L1002.88247,2085.53965 C1004.76943,2088.54102 1007.46807,2090.2639 1010.2777,2090.2639 L1014.08631,2090.2639 C1014.09325,2090.2639 1014.09325,2090.2639 1014.10018,2090.2639 L1011.42236,2087.62489 C1011.08937,2087.29672 1011.08937,2086.77028 1011.42236,2086.44211 C1011.75536,2086.11395 1012.28953,2086.11395 1012.62253,2086.44211 L1016.75026,2090.50319 C1017.08325,2090.83136 1017.08325,2091.35779 1016.75026,2091.68596 L1012.62253,2095.75387 C1012.45603,2095.91796 1012.24097,2096 1012.01898,2096 C1011.79698,2096 1011.58192,2095.91796 1011.41543,2095.75387 Z" id="Combined-Shape"></path>
        </g>
    </g>
</svg>