<?xml version="1.0" encoding="UTF-8"?>
<svg width="138px" height="67px" viewBox="0 0 138 67" version="1.1" xmlns="http://www.w3.org/2000/svg" xmlns:xlink="http://www.w3.org/1999/xlink">
    <!-- Generator: Sketch 47 (45396) - http://www.bohemiancoding.com/sketch -->
    <title>Group 11</title>
    <desc>Created with Sketch.</desc>
    <defs></defs>
    <g id="Page-1" stroke="none" stroke-width="1" fill="none" fill-rule="evenodd">
        <g id="Desktop-HD-Copy-13" transform="translate(-964.000000, -134.000000)">
            <g id="Group-11" transform="translate(964.000000, 118.000000)">
                <g id="9-copy">
                    <rect id="Rectangle-path" x="0" y="0" width="139" height="98"></rect>
                    <g id="Group" transform="translate(0.000000, 16.000000)" fill="#FFFFFF">
                        <g transform="translate(110.631933, 0.000000)" id="Shape">
                            <path d="M8.7902521,60.743554 C10.3905882,57.3818815 11.2487395,52.9696864 10.5993277,49.11777 C8.04806723,52.0592334 6.33176471,54.8372822 5.98386555,57.1250871 C5.63596639,59.412892 4.56907563,62.6111498 2.89915966,63.9418118 C6.37815126,64.5020906 13.4752941,64.2452962 17.1398319,61.3738676 C19.7838655,59.3195122 22.3119328,57.2418118 22.2191597,54.3003484 C20.8739496,55.5843206 19.6447059,56.6581882 17.0702521,57.5452962 C16.0265546,57.8954704 13.4752941,59.0627178 12.1532773,59.8097561 C10.8312605,60.5801394 9.55563025,60.8369338 8.7902521,60.743554 Z"></path>
                            <path d="M15.887395,52.5261324 C16.6527731,48.5574913 16.8847059,46.2696864 15.5163025,41.0404181 C14.3798319,43.3982578 12.547563,45.4292683 12.8954622,53.4365854 C12.8722689,54.5571429 12.8954622,56.0278746 12.8258824,57.4519164 C16.0729412,56.1912892 21.6161345,54.0902439 24.1210084,49.6780488 C26.6490756,45.2658537 26.1156303,44.1219512 25.8373109,41.997561 C24.4921008,43.795122 23.6803361,45.0557491 22.3119328,46.1529617 C19.32,48.5341463 17.9979832,50.6585366 16.6295798,52.9229965 C16.3280672,53.4365854 15.725042,53.2264808 15.887395,52.5261324 Z"></path>
                            <path d="M19.1344538,46.1529617 C18.3458824,42.7912892 18.067563,41.0637631 17.0006723,39.0094077 C15.9337815,36.9550523 15.2379832,32.7996516 16.3048739,30.0682927 C18.485042,33.4066202 20.0853782,36.3714286 20.0621849,41.1804878 C20.154958,41.6707317 20.410084,41.6707317 20.572437,41.2271777 C20.7347899,40.7836237 22.5670588,35.5076655 24.3529412,33.5933798 C25.7909244,32.0759582 27.1593277,30.0682927 27.2752941,29.4379791 C27.5072269,33.5233449 27.3912605,35.4843206 25.9068908,38.0522648 C24.422521,40.6202091 23.1236975,41.9508711 22.1959664,42.7445993 C21.2218487,43.5616725 20.2245378,44.5655052 19.1344538,46.1529617 Z"></path>
                            <path d="M25.5357983,16.7149826 C28.272605,25.5860627 25.1647059,29.3912892 24.167395,30.6519164 C23.1932773,31.8891986 22.2655462,32.9864111 21.2218487,35.274216 C20.9667227,34.0602787 18.6705882,30.1383275 17.6036975,28.597561 C16.5368067,27.0567944 14.8205042,23.5083624 14.7973109,21.5940767 C16.8615126,22.8313589 20.2013445,24.7689895 21.6393277,29.928223 C22.3351261,28.4341463 22.3119328,27.7804878 22.4278992,26.3797909 C22.5438655,25.002439 23.749916,21.454007 24.3761345,20.3334495 C25.0023529,19.212892 25.4894118,18.1390244 25.5357983,16.7149826 Z"></path>
                            <path d="M10.7384874,13.5867596 C11.6662185,16.1780488 14.7973109,18.5592334 16.3744538,19.4930314 C17.9747899,20.4268293 20.3405042,22.761324 21.1986555,23.9752613 C21.662521,22.5278746 25.3502521,14.1937282 17.7660504,6.23310105 C17.7428571,8.87108014 18.1603361,13.6334495 19.8302521,17.6721254 C19.9462185,18.2557491 20.0389916,19.3996516 19.6215126,19.8432056 C17.8588235,16.7149826 15.3307563,14.0069686 10.7384874,13.5867596 Z"></path>
                            <path d="M9.74117647,0.350174216 C13.8463866,2.5445993 16.56,7.09686411 16.6759664,13.8902439 C15.2147899,12.933101 13.7072269,12.3728223 12.0141176,11.9526132 C10.3210084,11.5324042 6.09983193,9.99163763 4.40672269,6.53658537 C6.07663866,6.81672474 12.0605042,8.70766551 13.8463866,10.5752613 C13.9623529,8.87108014 13.0578151,6.53658537 12.4547899,5.81289199 C11.8517647,5.08919861 9.76436975,1.70418118 9.74117647,0.350174216 Z"></path>
                            <path d="M1.41478992,0.0933797909 C2.11058824,1.86759582 4.03563025,3.50174216 5.45042017,4.38885017 C6.86521008,5.27595819 10.2514286,6.67665505 11.3415126,7.12020906 C10.3210084,5.41602787 8.76705882,3.36167247 7.2594958,2.33449477 C5.75193277,1.28397213 3.7805042,0.72369338 1.41478992,0.0933797909 Z"></path>
                            <g transform="translate(0.000000, 60.463415)">
                                <path d="M6.81882353,1.26062718 L1.15966387,5.43937282"></path>
                                <path d="M6.16941176,0.373519164 L0.533445378,4.55226481 C0.0463865546,4.90243902 -0.0463865546,5.57944251 0.301512605,6.06968641 C0.649411765,6.55993031 1.32201681,6.6533101 1.80907563,6.30313589 L7.44504202,2.12439024 C7.93210084,1.77421603 8.02487395,1.09721254 7.67697479,0.606968641 C7.32907563,0.140069686 6.65647059,0.0233449477 6.16941176,0.373519164 Z"></path>
                            </g>
                        </g>
                        <g id="Shape">
                            <path d="M18.647395,60.743554 C17.0470588,57.3818815 16.1889076,52.9696864 16.8383193,49.11777 C19.3895798,52.0592334 21.1058824,54.8372822 21.4537815,57.1250871 C21.8016807,59.412892 22.8685714,62.6111498 24.5384874,63.9418118 C21.0594958,64.5020906 13.9623529,64.2452962 10.2978151,61.3738676 C7.65378151,59.3195122 5.12571429,57.2418118 5.21848739,54.3003484 C6.56369748,55.5843206 7.79294118,56.6581882 10.367395,57.5452962 C11.4110924,57.8954704 13.9623529,59.0627178 15.2843697,59.8097561 C16.5831933,60.5801394 17.8588235,60.8369338 18.647395,60.743554 Z"></path>
                            <path d="M11.5502521,52.5261324 C10.8080672,48.5574913 10.5529412,46.2696864 11.9213445,41.0404181 C13.0578151,43.3982578 14.890084,45.4292683 14.5421849,53.4365854 C14.5653782,54.5571429 14.5653782,56.0278746 14.6117647,57.4519164 C11.3647059,56.1912892 5.82151261,54.0902439 3.31663866,49.6780488 C0.788571429,45.2658537 1.32201681,44.1219512 1.60033613,42.0209059 C2.94554622,43.8184669 3.75731092,45.0790941 5.12571429,46.1763066 C8.11764706,48.5574913 9.43966387,50.6818815 10.7848739,52.9463415 C11.1095798,53.4365854 11.712605,53.2264808 11.5502521,52.5261324 Z"></path>
                            <path d="M8.28,46.1529617 C9.06857143,42.7912892 9.34689076,41.0637631 10.4137815,39.0094077 C11.4806723,36.9550523 12.1764706,32.7996516 11.1095798,30.0682927 C8.92941176,33.4066202 7.32907563,36.3714286 7.35226891,41.1804878 C7.2594958,41.6707317 7.00436975,41.6707317 6.84201681,41.2271777 C6.67966387,40.7836237 4.84739496,35.5076655 3.06151261,33.5933798 C1.62352941,32.0759582 0.25512605,30.0682927 0.139159664,29.4379791 C-0.0927731092,33.5233449 0.0231932773,35.4843206 1.50756303,38.0522648 C2.99193277,40.6202091 4.2907563,41.9508711 5.21848739,42.7445993 C6.19260504,43.5616725 7.21310924,44.5655052 8.28,46.1529617 Z"></path>
                            <path d="M1.87865546,16.7149826 C-0.858151261,25.5860627 2.2497479,29.3912892 3.24705882,30.6519164 C4.22117647,31.8891986 5.14890756,32.9864111 6.19260504,35.274216 C6.44773109,34.0602787 8.74386555,30.1383275 9.8107563,28.597561 C10.8776471,27.0567944 12.5939496,23.5083624 12.6171429,21.5940767 C10.5529412,22.8313589 7.21310924,24.7689895 5.77512605,29.928223 C5.07932773,28.4341463 5.10252101,27.7804878 4.98655462,26.3797909 C4.87058824,25.002439 3.66453782,21.454007 3.03831933,20.3334495 C2.43529412,19.212892 1.94823529,18.1390244 1.87865546,16.7149826 Z"></path>
                            <path d="M16.6991597,13.5867596 C15.7714286,16.1780488 12.6403361,18.5592334 11.0631933,19.4930314 C9.46285714,20.4268293 7.09714286,22.761324 6.2389916,23.9752613 C5.77512605,22.5278746 2.08739496,14.1937282 9.67159664,6.23310105 C9.69478992,8.87108014 9.27731092,13.6334495 7.60739496,17.6721254 C7.49142857,18.2557491 7.39865546,19.3996516 7.81613445,19.8432056 C9.55563025,16.7149826 12.1068908,14.0069686 16.6991597,13.5867596 Z"></path>
                            <path d="M17.6964706,0.350174216 C13.5912605,2.5445993 10.8776471,7.09686411 10.7616807,13.8902439 C12.1996639,12.933101 13.7304202,12.3728223 15.4235294,11.9526132 C17.1166387,11.5324042 21.3378151,9.99163763 23.0309244,6.53658537 C21.3842017,6.81672474 15.3771429,8.70766551 13.5912605,10.5752613 C13.4752941,8.87108014 14.3798319,6.53658537 14.9828571,5.81289199 C15.5858824,5.08919861 17.6732773,1.70418118 17.6964706,0.350174216 Z"></path>
                            <path d="M26.0228571,0.0933797909 C25.3270588,1.86759582 23.4020168,3.50174216 21.9872269,4.38885017 C20.572437,5.27595819 17.1862185,6.67665505 16.0961345,7.12020906 C17.1166387,5.41602787 18.6705882,3.36167247 20.1781513,2.33449477 C21.662521,1.28397213 23.6571429,0.72369338 26.0228571,0.0933797909 Z"></path>
                            <g transform="translate(19.482353, 60.463415)">
                                <path d="M1.13647059,1.26062718 L6.77243697,5.43937282"></path>
                                <path d="M0.278319328,0.606968641 C-0.0695798319,1.09721254 0.0231932773,1.77421603 0.510252101,2.12439024 L6.14621849,6.30313589 C6.63327731,6.6533101 7.30588235,6.55993031 7.65378151,6.06968641 C8.00168067,5.57944251 7.90890756,4.90243902 7.42184874,4.55226481 L1.78588235,0.373519164 C1.29882353,0.0233449477 0.626218487,0.140069686 0.278319328,0.606968641 Z"></path>
                            </g>
                        </g>
                    </g>
                </g>
                <path d="M30.9725,28.289 L36.7365,28.289 L36.7255,29.895 L32.9855,29.895 L32.9855,31.611 L36.4395,31.611 L36.4395,33.217 L32.9855,33.217 L32.9855,36 L30.9725,36 L30.9725,28.289 Z M37.6495,28.289 L43.7325,28.289 L43.7325,29.895 L39.6625,29.895 L39.6625,31.336 L43.3365,31.336 L43.3365,32.931 L39.6625,32.942 L39.6625,34.394 L43.8425,34.394 L43.8425,36 L37.6495,36 L37.6495,28.289 Z M50.7395,36 L50.2115,34.636 L46.8785,34.636 L46.3395,36 L44.2715,36 L47.5825,28.289 L49.6505,28.289 L52.8845,36 L50.7395,36 Z M47.4835,33.096 L49.6175,33.096 L48.5615,30.346 L47.4835,33.096 Z M52.0815,28.289 L58.6925,28.289 L58.6925,29.95 L56.3825,29.95 L56.3825,36 L54.3695,36 L54.3695,29.95 L52.0815,29.95 L52.0815,28.289 Z M61.8165,33.987 C62.1025014,34.2803348 62.4654978,34.427 62.9055,34.427 C63.3381688,34.427 63.688332,34.2821681 63.956,33.9925 C64.223668,33.7028319 64.3575,33.3123358 64.3575,32.821 L64.3575,28.289 L66.3705,28.289 L66.3705,32.821 C66.3705,33.4883367 66.2293347,34.0731642 65.947,34.5755 C65.6646653,35.0778358 65.261336,35.4646653 64.737,35.736 C64.212664,36.0073347 63.5985035,36.143 62.8945,36.143 C62.1904965,36.143 61.5726693,36.0073347 61.041,35.736 C60.5093307,35.4646653 60.0986681,35.0778358 59.809,34.5755 C59.5193319,34.0731642 59.3745,33.4883367 59.3745,32.821 L59.3745,28.289 L61.3875,28.289 L61.3875,32.821 C61.3875,33.3050024 61.5304986,33.6936652 61.8165,33.987 Z M72.3765,36 L71.2545,33.866 L69.7585,33.866 L69.7585,36 L67.7455,36 L67.7455,28.289 L71.2105,28.289 C72.2298384,28.289 73.0199972,28.5254976 73.581,28.9985 C74.1420028,29.4715024 74.4225,30.1369957 74.4225,30.995 C74.4225,31.5743362 74.3051678,32.0748312 74.0705,32.4965 C73.8358322,32.9181688 73.4948356,33.2463322 73.0475,33.481 L74.6535,36 L72.3765,36 Z M69.7585,32.26 L71.2215,32.26 C71.6321687,32.26 71.9493322,32.1573344 72.173,31.952 C72.3966678,31.7466656 72.5085,31.4496686 72.5085,31.061 C72.5085,30.6869981 72.3966678,30.3991677 72.173,30.1975 C71.9493322,29.9958323 71.6321687,29.895 71.2215,29.895 L69.7585,29.895 L69.7585,32.26 Z M75.7095,28.289 L81.7925,28.289 L81.7925,29.895 L77.7225,29.895 L77.7225,31.336 L81.3965,31.336 L81.3965,32.931 L77.7225,32.942 L77.7225,34.394 L81.9025,34.394 L81.9025,36 L75.7095,36 L75.7095,28.289 Z M88.596,28.773 C89.2156698,29.0956683 89.6978316,29.5484971 90.0425,30.1315 C90.3871684,30.7145029 90.5595,31.3836629 90.5595,32.139 C90.5595,32.8943371 90.3853351,33.5653304 90.037,34.152 C89.6886649,34.7386696 89.1973365,35.1933317 88.563,35.516 C87.9286635,35.8386683 87.2008374,36 86.3795,36 L83.1345,36 L83.1345,28.289 L86.4565,28.289 C87.2631707,28.289 87.9763302,28.4503317 88.596,28.773 Z M87.5455,34.097 C87.8461682,33.9136658 88.0808325,33.653335 88.2495,33.316 C88.4181675,32.978665 88.5025,32.5936688 88.5025,32.161 C88.5025,31.7209978 88.4126676,31.332335 88.233,30.995 C88.0533324,30.657665 87.8058349,30.3955009 87.4905,30.2085 C87.1751651,30.0214991 86.8158353,29.928 86.4125,29.928 L85.1475,29.928 L85.1475,34.372 L86.5115,34.372 C86.9001686,34.372 87.2448318,34.2803342 87.5455,34.097 Z M99.805,28.685 C100.439337,29.0296684 100.937998,29.5026637 101.301,30.104 C101.664002,30.7053363 101.8455,31.3799963 101.8455,32.128 C101.8455,32.8833371 101.664002,33.5653303 101.301,34.174 C100.937998,34.7826697 100.439337,35.2629982 99.805,35.615 C99.1706635,35.9670018 98.4611706,36.143 97.6765,36.143 C96.8918294,36.143 96.1823365,35.9688351 95.548,35.6205 C94.9136635,35.2721649 94.4150018,34.7918364 94.052,34.1795 C93.6889982,33.5671636 93.5075,32.8833371 93.5075,32.128 C93.5075,31.3799963 93.6889982,30.7053363 94.052,30.104 C94.4150018,29.5026637 94.9136635,29.0296684 95.548,28.685 C96.1823365,28.3403316 96.8918294,28.168 97.6765,28.168 C98.4611706,28.168 99.1706635,28.3403316 99.805,28.685 Z M96.637,30.17 C96.310665,30.368001 96.0521676,30.6411649 95.8615,30.9895 C95.6708324,31.3378351 95.5755,31.7209979 95.5755,32.139 C95.5755,32.5643355 95.6726657,32.9511649 95.867,33.2995 C96.0613343,33.6478351 96.3198317,33.9228323 96.6425,34.1245 C96.9651683,34.3261677 97.3171648,34.427 97.6985,34.427 C98.0798352,34.427 98.4299984,34.3261677 98.749,34.1245 C99.0680016,33.9228323 99.3191657,33.6478351 99.5025,33.2995 C99.6858342,32.9511649 99.7775,32.5643355 99.7775,32.139 C99.7775,31.7209979 99.6858342,31.3378351 99.5025,30.9895 C99.3191657,30.6411649 99.0680016,30.368001 98.749,30.17 C98.4299984,29.971999 98.0798352,29.873 97.6985,29.873 C97.3171648,29.873 96.963335,29.971999 96.637,30.17 Z M102.8465,28.289 L108.6105,28.289 L108.5995,29.895 L104.8595,29.895 L104.8595,31.611 L108.3135,31.611 L108.3135,33.217 L104.8595,33.217 L104.8595,36 L102.8465,36 L102.8465,28.289 Z M45.1295,39.289 L51.7405,39.289 L51.7405,40.95 L49.4305,40.95 L49.4305,47 L47.4175,47 L47.4175,40.95 L45.1295,40.95 L45.1295,39.289 Z M52.5545,39.289 L54.5675,39.289 L54.5675,42.435 L57.6805,42.435 L57.6805,39.289 L59.6935,39.289 L59.6935,47 L57.6805,47 L57.6805,44.041 L54.5675,44.041 L54.5675,47 L52.5545,47 L52.5545,39.289 Z M61.1895,39.289 L67.2725,39.289 L67.2725,40.895 L63.2025,40.895 L63.2025,42.336 L66.8765,42.336 L66.8765,43.931 L63.2025,43.942 L63.2025,45.394 L67.3825,45.394 L67.3825,47 L61.1895,47 L61.1895,39.289 Z M76.518,39.773 C77.1376698,40.0956683 77.6198316,40.5484971 77.9645,41.1315 C78.3091684,41.7145029 78.4815,42.3836629 78.4815,43.139 C78.4815,43.8943371 78.3073351,44.5653304 77.959,45.152 C77.6106649,45.7386696 77.1193365,46.1933317 76.485,46.516 C75.8506635,46.8386683 75.1228374,47 74.3015,47 L71.0565,47 L71.0565,39.289 L74.3785,39.289 C75.1851707,39.289 75.8983302,39.4503317 76.518,39.773 Z M75.4675,45.097 C75.7681682,44.9136658 76.0028325,44.653335 76.1715,44.316 C76.3401675,43.978665 76.4245,43.5936688 76.4245,43.161 C76.4245,42.7209978 76.3346676,42.332335 76.155,41.995 C75.9753324,41.657665 75.7278349,41.3955009 75.4125,41.2085 C75.0971651,41.0214991 74.7378353,40.928 74.3345,40.928 L73.0695,40.928 L73.0695,45.372 L74.4335,45.372 C74.8221686,45.372 75.1668318,45.2803342 75.4675,45.097 Z M84.9385,47 L84.4105,45.636 L81.0775,45.636 L80.5385,47 L78.4705,47 L81.7815,39.289 L83.8495,39.289 L87.0835,47 L84.9385,47 Z M81.6825,44.096 L83.8165,44.096 L82.7605,41.346 L81.6825,44.096 Z M94.0025,39.289 L91.2195,44.536 L91.2195,47 L89.2065,47 L89.2065,44.591 L86.3685,39.289 L88.3815,39.289 L90.2075,42.6 L91.9895,39.289 L94.0025,39.289 Z" id="FEATURED-OF-THE-DAY" fill="#FFFFFF"></path>
                <path d="M33.876,61.4 L34.676,61.4 L32.78,67 L31.98,67 L30.532,62.376 L29.06,67 L28.268,67 L26.38,61.4 L27.204,61.4 L28.684,66.176 L30.156,61.4 L30.924,61.4 L32.404,66.176 L33.876,61.4 Z M42.244,61.4 L43.044,61.4 L41.148,67 L40.348,67 L38.9,62.376 L37.428,67 L36.636,67 L34.748,61.4 L35.572,61.4 L37.052,66.176 L38.524,61.4 L39.292,61.4 L40.772,66.176 L42.244,61.4 Z M50.612,61.4 L51.412,61.4 L49.516,67 L48.716,67 L47.268,62.376 L45.796,67 L45.004,67 L43.116,61.4 L43.94,61.4 L45.42,66.176 L46.892,61.4 L47.66,61.4 L49.14,66.176 L50.612,61.4 Z M52.568,66.28 C52.6506671,66.3653338 52.692,66.474666 52.692,66.608 C52.692,66.741334 52.6506671,66.8519996 52.568,66.94 C52.4853329,67.0280004 52.3826673,67.072 52.26,67.072 C52.1373327,67.072 52.0333338,67.0280004 51.948,66.94 C51.8626662,66.8519996 51.82,66.741334 51.82,66.608 C51.82,66.474666 51.8626662,66.3653338 51.948,66.28 C52.0333338,66.1946662 52.1373327,66.152 52.26,66.152 C52.3826673,66.152 52.4853329,66.1946662 52.568,66.28 Z M57.196,62.22 C56.9133319,62.094666 56.6226682,62.032 56.324,62.032 C55.9293314,62.032 55.5666683,62.127999 55.236,62.32 C54.9053317,62.512001 54.644001,62.7719984 54.452,63.1 C54.259999,63.4280016 54.164,63.7893314 54.164,64.184 C54.164,64.5733353 54.259999,64.9333317 54.452,65.264 C54.644001,65.5946683 54.9053317,65.855999 55.236,66.048 C55.5666683,66.240001 55.9293314,66.336 56.324,66.336 C56.6173348,66.336 56.9053319,66.2760006 57.188,66.156 C57.4706681,66.0359994 57.7213322,65.872001 57.94,65.664 L58.404,66.168 C58.1213319,66.4453347 57.7933352,66.6626659 57.42,66.82 C57.0466648,66.9773341 56.6680019,67.056 56.284,67.056 C55.750664,67.056 55.2626689,66.9293346 54.82,66.676 C54.3773311,66.4226654 54.0280013,66.0773355 53.772,65.64 C53.5159987,65.2026645 53.388,64.7200026 53.388,64.192 C53.388,63.6693307 53.517332,63.1906688 53.776,62.756 C54.034668,62.3213312 54.3879978,61.9786679 54.836,61.728 C55.2840022,61.4773321 55.7773306,61.352 56.316,61.352 C56.7053353,61.352 57.0826648,61.4253326 57.448,61.572 C57.8133352,61.7186674 58.129332,61.925332 58.396,62.192 L57.94,62.744 C57.7266656,62.5199989 57.4786681,62.345334 57.196,62.22 Z M61.936,62.196 C61.6559986,62.1133329 61.3986678,62.072 61.164,62.072 C60.838665,62.072 60.5786676,62.134666 60.384,62.26 C60.1893324,62.385334 60.092,62.5573322 60.092,62.776 C60.092,62.9733343 60.1506661,63.134666 60.268,63.26 C60.3853339,63.385334 60.5293325,63.4839996 60.7,63.556 C60.8706675,63.6280004 61.1079985,63.7119995 61.412,63.808 C61.7906686,63.9253339 62.0973322,64.0373328 62.332,64.144 C62.5666678,64.2506672 62.7666658,64.4093323 62.932,64.62 C63.0973342,64.8306677 63.18,65.1093316 63.18,65.456 C63.18,65.7760016 63.0933342,66.0559988 62.92,66.296 C62.7466658,66.5360012 62.5040016,66.7213327 62.192,66.852 C61.8799984,66.9826673 61.5213354,67.048 61.116,67.048 C60.7053313,67.048 60.3053353,66.9680008 59.916,66.808 C59.5266647,66.6479992 59.1906681,66.434668 58.908,66.168 L59.252,65.504 C59.518668,65.7653346 59.818665,65.966666 60.152,66.108 C60.485335,66.249334 60.8093318,66.32 61.124,66.32 C61.4973352,66.32 61.7919989,66.2466674 62.008,66.1 C62.2240011,65.9533326 62.332,65.7546679 62.332,65.504 C62.332,65.3066657 62.2733339,65.1440006 62.156,65.016 C62.0386661,64.8879994 61.8906676,64.786667 61.712,64.712 C61.5333324,64.637333 61.2920015,64.5546671 60.988,64.464 C60.6146648,64.3519994 60.3106678,64.2426672 60.076,64.136 C59.8413322,64.0293328 59.6426675,63.872001 59.48,63.664 C59.3173325,63.455999 59.236,63.181335 59.236,62.84 C59.236,62.5413318 59.3186658,62.2773345 59.484,62.048 C59.6493342,61.8186655 59.8813318,61.6426673 60.18,61.52 C60.4786682,61.3973327 60.8253314,61.336 61.22,61.336 C61.5560017,61.336 61.8853317,61.3853328 62.208,61.484 C62.5306683,61.5826672 62.8173321,61.7146658 63.068,61.88 L62.748,62.568 C62.4866654,62.4026658 62.2160014,62.2786671 61.936,62.196 Z M66.864,62.196 C66.5839986,62.1133329 66.3266678,62.072 66.092,62.072 C65.766665,62.072 65.5066676,62.134666 65.312,62.26 C65.1173324,62.385334 65.02,62.5573322 65.02,62.776 C65.02,62.9733343 65.0786661,63.134666 65.196,63.26 C65.3133339,63.385334 65.4573325,63.4839996 65.628,63.556 C65.7986675,63.6280004 66.0359985,63.7119995 66.34,63.808 C66.7186686,63.9253339 67.0253322,64.0373328 67.26,64.144 C67.4946678,64.2506672 67.6946658,64.4093323 67.86,64.62 C68.0253342,64.8306677 68.108,65.1093316 68.108,65.456 C68.108,65.7760016 68.0213342,66.0559988 67.848,66.296 C67.6746658,66.5360012 67.4320016,66.7213327 67.12,66.852 C66.8079984,66.9826673 66.4493354,67.048 66.044,67.048 C65.6333313,67.048 65.2333353,66.9680008 64.844,66.808 C64.4546647,66.6479992 64.1186681,66.434668 63.836,66.168 L64.18,65.504 C64.446668,65.7653346 64.746665,65.966666 65.08,66.108 C65.413335,66.249334 65.7373318,66.32 66.052,66.32 C66.4253352,66.32 66.7199989,66.2466674 66.936,66.1 C67.1520011,65.9533326 67.26,65.7546679 67.26,65.504 C67.26,65.3066657 67.2013339,65.1440006 67.084,65.016 C66.9666661,64.8879994 66.8186676,64.786667 66.64,64.712 C66.4613324,64.637333 66.2200015,64.5546671 65.916,64.464 C65.5426648,64.3519994 65.2386678,64.2426672 65.004,64.136 C64.7693322,64.0293328 64.5706675,63.872001 64.408,63.664 C64.2453325,63.455999 64.164,63.181335 64.164,62.84 C64.164,62.5413318 64.2466658,62.2773345 64.412,62.048 C64.5773342,61.8186655 64.8093318,61.6426673 65.108,61.52 C65.4066682,61.3973327 65.7533314,61.336 66.148,61.336 C66.4840017,61.336 66.8133317,61.3853328 67.136,61.484 C67.4586683,61.5826672 67.7453321,61.7146658 67.996,61.88 L67.676,62.568 C67.4146654,62.4026658 67.1440014,62.2786671 66.864,62.196 Z M69.332,61.4 L70.1,61.4 L70.1,66.304 L72.548,66.304 L72.548,67 L69.332,67 L69.332,61.4 Z M73.524,61.4 L74.292,61.4 L74.292,67 L73.524,67 L73.524,61.4 Z M79.764,64.264 L80.444,64.264 L80.444,66.32 C80.1613319,66.5440011 79.8306686,66.722666 79.452,66.856 C79.0733314,66.989334 78.6973352,67.056 78.324,67.056 C77.7853306,67.056 77.2920022,66.9293346 76.844,66.676 C76.3959978,66.4226654 76.042668,66.0760022 75.784,65.636 C75.525332,65.1959978 75.396,64.7146693 75.396,64.192 C75.396,63.6693307 75.5266654,63.1906688 75.788,62.756 C76.0493346,62.3213312 76.4066644,61.9786679 76.86,61.728 C77.3133356,61.4773321 77.8146639,61.352 78.364,61.352 C78.7533353,61.352 79.1333315,61.4213326 79.504,61.56 C79.8746685,61.6986674 80.1959986,61.8879988 80.468,62.128 L80.028,62.688 C79.8039989,62.479999 79.5466681,62.3186672 79.256,62.204 C78.9653319,62.0893328 78.6680015,62.032 78.364,62.032 C77.963998,62.032 77.5960017,62.127999 77.26,62.32 C76.9239983,62.512001 76.6586676,62.7733317 76.464,63.104 C76.2693324,63.4346683 76.172,63.7973314 76.172,64.192 C76.172,64.5866686 76.2706657,64.950665 76.468,65.284 C76.6653343,65.617335 76.9319983,65.8813324 77.268,66.076 C77.6040017,66.2706676 77.971998,66.368 78.372,66.368 C78.6066678,66.368 78.8453321,66.3293337 79.088,66.252 C79.3306679,66.1746663 79.555999,66.0666674 79.764,65.928 L79.764,64.264 Z M81.9,61.4 L82.668,61.4 L82.668,63.896 L85.868,63.896 L85.868,61.4 L86.644,61.4 L86.644,67 L85.868,67 L85.868,64.592 L82.668,64.592 L82.668,67 L81.9,67 L81.9,61.4 Z M87.524,61.4 L91.9,61.4 L91.9,62.104 L90.092,62.104 L90.092,67 L89.324,67 L89.324,62.104 L87.524,62.104 L87.524,61.4 Z M92.672,66.28 C92.7546671,66.3653338 92.796,66.474666 92.796,66.608 C92.796,66.741334 92.7546671,66.8519996 92.672,66.94 C92.5893329,67.0280004 92.4866673,67.072 92.364,67.072 C92.2413327,67.072 92.1373338,67.0280004 92.052,66.94 C91.9666662,66.8519996 91.924,66.741334 91.924,66.608 C91.924,66.474666 91.9666662,66.3653338 92.052,66.28 C92.1373338,66.1946662 92.2413327,66.152 92.364,66.152 C92.4866673,66.152 92.5893329,66.1946662 92.672,66.28 Z M97.3,62.22 C97.0173319,62.094666 96.7266682,62.032 96.428,62.032 C96.0333314,62.032 95.6706683,62.127999 95.34,62.32 C95.0093317,62.512001 94.748001,62.7719984 94.556,63.1 C94.363999,63.4280016 94.268,63.7893314 94.268,64.184 C94.268,64.5733353 94.363999,64.9333317 94.556,65.264 C94.748001,65.5946683 95.0093317,65.855999 95.34,66.048 C95.6706683,66.240001 96.0333314,66.336 96.428,66.336 C96.7213348,66.336 97.0093319,66.2760006 97.292,66.156 C97.5746681,66.0359994 97.8253322,65.872001 98.044,65.664 L98.508,66.168 C98.2253319,66.4453347 97.8973352,66.6626659 97.524,66.82 C97.1506648,66.9773341 96.7720019,67.056 96.388,67.056 C95.854664,67.056 95.3666689,66.9293346 94.924,66.676 C94.4813311,66.4226654 94.1320013,66.0773355 93.876,65.64 C93.6199987,65.2026645 93.492,64.7200026 93.492,64.192 C93.492,63.6693307 93.621332,63.1906688 93.88,62.756 C94.138668,62.3213312 94.4919978,61.9786679 94.94,61.728 C95.3880022,61.4773321 95.8813306,61.352 96.42,61.352 C96.8093353,61.352 97.1866648,61.4253326 97.552,61.572 C97.9173352,61.7186674 98.233332,61.925332 98.5,62.192 L98.044,62.744 C97.8306656,62.5199989 97.5826681,62.345334 97.3,62.22 Z M103.384,61.728 C103.834669,61.9786679 104.190665,62.3213312 104.452,62.756 C104.713335,63.1906688 104.844,63.6693307 104.844,64.192 C104.844,64.7146693 104.713335,65.1959978 104.452,65.636 C104.190665,66.0760022 103.834669,66.4226654 103.384,66.676 C102.933331,66.9293346 102.438669,67.056 101.9,67.056 C101.361331,67.056 100.866669,66.9293346 100.416,66.676 C99.9653311,66.4226654 99.6093346,66.0760022 99.348,65.636 C99.0866654,65.1959978 98.956,64.7146693 98.956,64.192 C98.956,63.6693307 99.0866654,63.1906688 99.348,62.756 C99.6093346,62.3213312 99.9639978,61.9786679 100.412,61.728 C100.860002,61.4773321 101.355997,61.352 101.9,61.352 C102.438669,61.352 102.933331,61.4773321 103.384,61.728 Z M100.824,62.328 C100.490665,62.520001 100.225334,62.7799984 100.028,63.108 C99.8306657,63.4360016 99.732,63.7973314 99.732,64.192 C99.732,64.5866686 99.8306657,64.9493317 100.028,65.28 C100.225334,65.6106683 100.490665,65.8733324 100.824,66.068 C101.157335,66.2626676 101.518665,66.36 101.908,66.36 C102.297335,66.36 102.655998,66.2626676 102.984,66.068 C103.312002,65.8733324 103.573332,65.6106683 103.768,65.28 C103.962668,64.9493317 104.06,64.5866686 104.06,64.192 C104.06,63.7973314 103.962668,63.4360016 103.768,63.108 C103.573332,62.7799984 103.312002,62.520001 102.984,62.328 C102.655998,62.135999 102.297335,62.04 101.908,62.04 C101.518665,62.04 101.157335,62.135999 100.824,62.328 Z M105.948,61.4 L106.86,61.4 L108.908,65.336 L110.94,61.4 L111.86,61.4 L111.86,67 L111.14,67 L111.132,62.528 L109.14,66.408 L108.668,66.408 L106.66,62.528 L106.66,67 L105.948,67 L105.948,61.4 Z" id="www.csslight.com" fill="#FFFFFF"></path>
            </g>
        </g>
    </g>
</svg>