<?xml version="1.0" encoding="UTF-8"?>
<svg width="138px" height="67px" viewBox="0 0 138 67" version="1.1" xmlns="http://www.w3.org/2000/svg" xmlns:xlink="http://www.w3.org/1999/xlink">
    <!-- Generator: Sketch 47 (45396) - http://www.bohemiancoding.com/sketch -->
    <title>Group 9</title>
    <desc>Created with Sketch.</desc>
    <defs></defs>
    <g id="Page-1" stroke="none" stroke-width="1" fill="none" fill-rule="evenodd">
        <g id="Desktop-HD-Copy-13" transform="translate(-781.000000, -134.000000)">
            <g id="Group-9" transform="translate(781.000000, 118.000000)">
                <g id="9">
                    <rect id="Rectangle-path" x="0" y="0" width="139" height="98"></rect>
                    <g id="Group" transform="translate(0.000000, 16.000000)" fill="#FFFFFF">
                        <g transform="translate(110.631933, 0.000000)" id="Shape">
                            <path d="M8.7902521,60.743554 C10.3905882,57.3818815 11.2487395,52.9696864 10.5993277,49.11777 C8.04806723,52.0592334 6.33176471,54.8372822 5.98386555,57.1250871 C5.63596639,59.412892 4.56907563,62.6111498 2.89915966,63.9418118 C6.37815126,64.5020906 13.4752941,64.2452962 17.1398319,61.3738676 C19.7838655,59.3195122 22.3119328,57.2418118 22.2191597,54.3003484 C20.8739496,55.5843206 19.6447059,56.6581882 17.0702521,57.5452962 C16.0265546,57.8954704 13.4752941,59.0627178 12.1532773,59.8097561 C10.8312605,60.5801394 9.55563025,60.8369338 8.7902521,60.743554 Z"></path>
                            <path d="M15.887395,52.5261324 C16.6527731,48.5574913 16.8847059,46.2696864 15.5163025,41.0404181 C14.3798319,43.3982578 12.547563,45.4292683 12.8954622,53.4365854 C12.8722689,54.5571429 12.8954622,56.0278746 12.8258824,57.4519164 C16.0729412,56.1912892 21.6161345,54.0902439 24.1210084,49.6780488 C26.6490756,45.2658537 26.1156303,44.1219512 25.8373109,41.997561 C24.4921008,43.795122 23.6803361,45.0557491 22.3119328,46.1529617 C19.32,48.5341463 17.9979832,50.6585366 16.6295798,52.9229965 C16.3280672,53.4365854 15.725042,53.2264808 15.887395,52.5261324 Z"></path>
                            <path d="M19.1344538,46.1529617 C18.3458824,42.7912892 18.067563,41.0637631 17.0006723,39.0094077 C15.9337815,36.9550523 15.2379832,32.7996516 16.3048739,30.0682927 C18.485042,33.4066202 20.0853782,36.3714286 20.0621849,41.1804878 C20.154958,41.6707317 20.410084,41.6707317 20.572437,41.2271777 C20.7347899,40.7836237 22.5670588,35.5076655 24.3529412,33.5933798 C25.7909244,32.0759582 27.1593277,30.0682927 27.2752941,29.4379791 C27.5072269,33.5233449 27.3912605,35.4843206 25.9068908,38.0522648 C24.422521,40.6202091 23.1236975,41.9508711 22.1959664,42.7445993 C21.2218487,43.5616725 20.2245378,44.5655052 19.1344538,46.1529617 Z"></path>
                            <path d="M25.5357983,16.7149826 C28.272605,25.5860627 25.1647059,29.3912892 24.167395,30.6519164 C23.1932773,31.8891986 22.2655462,32.9864111 21.2218487,35.274216 C20.9667227,34.0602787 18.6705882,30.1383275 17.6036975,28.597561 C16.5368067,27.0567944 14.8205042,23.5083624 14.7973109,21.5940767 C16.8615126,22.8313589 20.2013445,24.7689895 21.6393277,29.928223 C22.3351261,28.4341463 22.3119328,27.7804878 22.4278992,26.3797909 C22.5438655,25.002439 23.749916,21.454007 24.3761345,20.3334495 C25.0023529,19.212892 25.4894118,18.1390244 25.5357983,16.7149826 Z"></path>
                            <path d="M10.7384874,13.5867596 C11.6662185,16.1780488 14.7973109,18.5592334 16.3744538,19.4930314 C17.9747899,20.4268293 20.3405042,22.761324 21.1986555,23.9752613 C21.662521,22.5278746 25.3502521,14.1937282 17.7660504,6.23310105 C17.7428571,8.87108014 18.1603361,13.6334495 19.8302521,17.6721254 C19.9462185,18.2557491 20.0389916,19.3996516 19.6215126,19.8432056 C17.8588235,16.7149826 15.3307563,14.0069686 10.7384874,13.5867596 Z"></path>
                            <path d="M9.74117647,0.350174216 C13.8463866,2.5445993 16.56,7.09686411 16.6759664,13.8902439 C15.2147899,12.933101 13.7072269,12.3728223 12.0141176,11.9526132 C10.3210084,11.5324042 6.09983193,9.99163763 4.40672269,6.53658537 C6.07663866,6.81672474 12.0605042,8.70766551 13.8463866,10.5752613 C13.9623529,8.87108014 13.0578151,6.53658537 12.4547899,5.81289199 C11.8517647,5.08919861 9.76436975,1.70418118 9.74117647,0.350174216 Z"></path>
                            <path d="M1.41478992,0.0933797909 C2.11058824,1.86759582 4.03563025,3.50174216 5.45042017,4.38885017 C6.86521008,5.27595819 10.2514286,6.67665505 11.3415126,7.12020906 C10.3210084,5.41602787 8.76705882,3.36167247 7.2594958,2.33449477 C5.75193277,1.28397213 3.7805042,0.72369338 1.41478992,0.0933797909 Z"></path>
                            <g transform="translate(0.000000, 60.463415)">
                                <path d="M6.81882353,1.26062718 L1.15966387,5.43937282"></path>
                                <path d="M6.16941176,0.373519164 L0.533445378,4.55226481 C0.0463865546,4.90243902 -0.0463865546,5.57944251 0.301512605,6.06968641 C0.649411765,6.55993031 1.32201681,6.6533101 1.80907563,6.30313589 L7.44504202,2.12439024 C7.93210084,1.77421603 8.02487395,1.09721254 7.67697479,0.606968641 C7.32907563,0.140069686 6.65647059,0.0233449477 6.16941176,0.373519164 Z"></path>
                            </g>
                        </g>
                        <g id="Shape">
                            <path d="M18.647395,60.743554 C17.0470588,57.3818815 16.1889076,52.9696864 16.8383193,49.11777 C19.3895798,52.0592334 21.1058824,54.8372822 21.4537815,57.1250871 C21.8016807,59.412892 22.8685714,62.6111498 24.5384874,63.9418118 C21.0594958,64.5020906 13.9623529,64.2452962 10.2978151,61.3738676 C7.65378151,59.3195122 5.12571429,57.2418118 5.21848739,54.3003484 C6.56369748,55.5843206 7.79294118,56.6581882 10.367395,57.5452962 C11.4110924,57.8954704 13.9623529,59.0627178 15.2843697,59.8097561 C16.5831933,60.5801394 17.8588235,60.8369338 18.647395,60.743554 Z"></path>
                            <path d="M11.5502521,52.5261324 C10.8080672,48.5574913 10.5529412,46.2696864 11.9213445,41.0404181 C13.0578151,43.3982578 14.890084,45.4292683 14.5421849,53.4365854 C14.5653782,54.5571429 14.5653782,56.0278746 14.6117647,57.4519164 C11.3647059,56.1912892 5.82151261,54.0902439 3.31663866,49.6780488 C0.788571429,45.2658537 1.32201681,44.1219512 1.60033613,42.0209059 C2.94554622,43.8184669 3.75731092,45.0790941 5.12571429,46.1763066 C8.11764706,48.5574913 9.43966387,50.6818815 10.7848739,52.9463415 C11.1095798,53.4365854 11.712605,53.2264808 11.5502521,52.5261324 Z"></path>
                            <path d="M8.28,46.1529617 C9.06857143,42.7912892 9.34689076,41.0637631 10.4137815,39.0094077 C11.4806723,36.9550523 12.1764706,32.7996516 11.1095798,30.0682927 C8.92941176,33.4066202 7.32907563,36.3714286 7.35226891,41.1804878 C7.2594958,41.6707317 7.00436975,41.6707317 6.84201681,41.2271777 C6.67966387,40.7836237 4.84739496,35.5076655 3.06151261,33.5933798 C1.62352941,32.0759582 0.25512605,30.0682927 0.139159664,29.4379791 C-0.0927731092,33.5233449 0.0231932773,35.4843206 1.50756303,38.0522648 C2.99193277,40.6202091 4.2907563,41.9508711 5.21848739,42.7445993 C6.19260504,43.5616725 7.21310924,44.5655052 8.28,46.1529617 Z"></path>
                            <path d="M1.87865546,16.7149826 C-0.858151261,25.5860627 2.2497479,29.3912892 3.24705882,30.6519164 C4.22117647,31.8891986 5.14890756,32.9864111 6.19260504,35.274216 C6.44773109,34.0602787 8.74386555,30.1383275 9.8107563,28.597561 C10.8776471,27.0567944 12.5939496,23.5083624 12.6171429,21.5940767 C10.5529412,22.8313589 7.21310924,24.7689895 5.77512605,29.928223 C5.07932773,28.4341463 5.10252101,27.7804878 4.98655462,26.3797909 C4.87058824,25.002439 3.66453782,21.454007 3.03831933,20.3334495 C2.43529412,19.212892 1.94823529,18.1390244 1.87865546,16.7149826 Z"></path>
                            <path d="M16.6991597,13.5867596 C15.7714286,16.1780488 12.6403361,18.5592334 11.0631933,19.4930314 C9.46285714,20.4268293 7.09714286,22.761324 6.2389916,23.9752613 C5.77512605,22.5278746 2.08739496,14.1937282 9.67159664,6.23310105 C9.69478992,8.87108014 9.27731092,13.6334495 7.60739496,17.6721254 C7.49142857,18.2557491 7.39865546,19.3996516 7.81613445,19.8432056 C9.55563025,16.7149826 12.1068908,14.0069686 16.6991597,13.5867596 Z"></path>
                            <path d="M17.6964706,0.350174216 C13.5912605,2.5445993 10.8776471,7.09686411 10.7616807,13.8902439 C12.1996639,12.933101 13.7304202,12.3728223 15.4235294,11.9526132 C17.1166387,11.5324042 21.3378151,9.99163763 23.0309244,6.53658537 C21.3842017,6.81672474 15.3771429,8.70766551 13.5912605,10.5752613 C13.4752941,8.87108014 14.3798319,6.53658537 14.9828571,5.81289199 C15.5858824,5.08919861 17.6732773,1.70418118 17.6964706,0.350174216 Z"></path>
                            <path d="M26.0228571,0.0933797909 C25.3270588,1.86759582 23.4020168,3.50174216 21.9872269,4.38885017 C20.572437,5.27595819 17.1862185,6.67665505 16.0961345,7.12020906 C17.1166387,5.41602787 18.6705882,3.36167247 20.1781513,2.33449477 C21.662521,1.28397213 23.6571429,0.72369338 26.0228571,0.0933797909 Z"></path>
                            <g transform="translate(19.482353, 60.463415)">
                                <path d="M1.13647059,1.26062718 L6.77243697,5.43937282"></path>
                                <path d="M0.278319328,0.606968641 C-0.0695798319,1.09721254 0.0231932773,1.77421603 0.510252101,2.12439024 L6.14621849,6.30313589 C6.63327731,6.6533101 7.30588235,6.55993031 7.65378151,6.06968641 C8.00168067,5.57944251 7.90890756,4.90243902 7.42184874,4.55226481 L1.78588235,0.373519164 C1.29882353,0.0233449477 0.626218487,0.140069686 0.278319328,0.606968641 Z"></path>
                            </g>
                        </g>
                    </g>
                </g>
                <path d="M52.868,30.016 C52.402331,29.8619992 52.0118349,29.785 51.6965,29.785 C51.4471654,29.785 51.2510007,29.8308329 51.108,29.9225 C50.9649993,30.0141671 50.8935,30.1479991 50.8935,30.324 C50.8935,30.4926675 50.9558327,30.6338328 51.0805,30.7475 C51.2051673,30.8611672 51.3591657,30.952833 51.5425,31.0225 C51.7258342,31.092167 51.9971649,31.1819994 52.3565,31.292 C52.891836,31.4460008 53.3336649,31.5999992 53.682,31.754 C54.0303351,31.9080008 54.3291654,32.1444984 54.5785,32.4635 C54.8278346,32.7825016 54.9525,33.1986641 54.9525,33.712 C54.9525,34.2253359 54.8168347,34.6634982 54.5455,35.0265 C54.2741653,35.3895018 53.9020024,35.6626658 53.429,35.846 C52.9559976,36.0293342 52.4298362,36.121 51.8505,36.121 C51.2124968,36.121 50.5763365,36.0091678 49.942,35.7855 C49.3076635,35.5618322 48.7595023,35.2556686 48.2975,34.867 L49.0785,33.294 C49.4671686,33.6386684 49.9273307,33.9209989 50.459,34.141 C50.9906693,34.3610011 51.4618313,34.471 51.8725,34.471 C52.1731682,34.471 52.4096658,34.4160006 52.582,34.306 C52.7543342,34.1959995 52.8405,34.0346677 52.8405,33.822 C52.8405,33.6459991 52.776334,33.4993339 52.648,33.382 C52.519666,33.2646661 52.3583343,33.171167 52.164,33.1015 C51.9696657,33.031833 51.6965018,32.9493338 51.3445,32.854 C50.8164974,32.7073326 50.3801684,32.5588341 50.0355,32.4085 C49.6908316,32.2581659 49.3956679,32.0308349 49.15,31.7265 C48.9043321,31.4221651 48.7815,31.0170025 48.7815,30.511 C48.7815,30.0343309 48.9079987,29.6163351 49.161,29.257 C49.4140013,28.8976649 49.773331,28.6208343 50.239,28.4265 C50.704669,28.2321657 51.2454969,28.135 51.8615,28.135 C52.4188361,28.135 52.9688306,28.2138325 53.5115,28.3715 C54.0541694,28.5291675 54.5308313,28.7399987 54.9415,29.004 L54.1825,30.61 C53.7718313,30.3679988 53.333669,30.1700008 52.868,30.016 Z M55.9755,28.289 L57.9885,28.289 L57.9885,36 L55.9755,36 L55.9755,28.289 Z M58.8135,28.289 L65.4245,28.289 L65.4245,29.95 L63.1145,29.95 L63.1145,36 L61.1015,36 L61.1015,29.95 L58.8135,29.95 L58.8135,28.289 Z M66.2385,28.289 L72.3215,28.289 L72.3215,29.895 L68.2515,29.895 L68.2515,31.336 L71.9255,31.336 L71.9255,32.931 L68.2515,32.942 L68.2515,34.394 L72.4315,34.394 L72.4315,36 L66.2385,36 L66.2385,28.289 Z M81.908,28.685 C82.5423365,29.0296684 83.0409982,29.5026637 83.404,30.104 C83.7670018,30.7053363 83.9485,31.3799963 83.9485,32.128 C83.9485,32.8833371 83.7670018,33.5653303 83.404,34.174 C83.0409982,34.7826697 82.5423365,35.2629982 81.908,35.615 C81.2736635,35.9670018 80.5641706,36.143 79.7795,36.143 C78.9948294,36.143 78.2853365,35.9688351 77.651,35.6205 C77.0166635,35.2721649 76.5180018,34.7918364 76.155,34.1795 C75.7919982,33.5671636 75.6105,32.8833371 75.6105,32.128 C75.6105,31.3799963 75.7919982,30.7053363 76.155,30.104 C76.5180018,29.5026637 77.0166635,29.0296684 77.651,28.685 C78.2853365,28.3403316 78.9948294,28.168 79.7795,28.168 C80.5641706,28.168 81.2736635,28.3403316 81.908,28.685 Z M78.74,30.17 C78.413665,30.368001 78.1551676,30.6411649 77.9645,30.9895 C77.7738324,31.3378351 77.6785,31.7209979 77.6785,32.139 C77.6785,32.5643355 77.7756657,32.9511649 77.97,33.2995 C78.1643343,33.6478351 78.4228317,33.9228323 78.7455,34.1245 C79.0681683,34.3261677 79.4201648,34.427 79.8015,34.427 C80.1828352,34.427 80.5329984,34.3261677 80.852,34.1245 C81.1710016,33.9228323 81.4221657,33.6478351 81.6055,33.2995 C81.7888342,32.9511649 81.8805,32.5643355 81.8805,32.139 C81.8805,31.7209979 81.7888342,31.3378351 81.6055,30.9895 C81.4221657,30.6411649 81.1710016,30.368001 80.852,30.17 C80.5329984,29.971999 80.1828352,29.873 79.8015,29.873 C79.4201648,29.873 79.066335,29.971999 78.74,30.17 Z M84.9495,28.289 L90.7135,28.289 L90.7025,29.895 L86.9625,29.895 L86.9625,31.611 L90.4165,31.611 L90.4165,33.217 L86.9625,33.217 L86.9625,36 L84.9495,36 L84.9495,28.289 Z M45.1295,39.289 L51.7405,39.289 L51.7405,40.95 L49.4305,40.95 L49.4305,47 L47.4175,47 L47.4175,40.95 L45.1295,40.95 L45.1295,39.289 Z M52.5545,39.289 L54.5675,39.289 L54.5675,42.435 L57.6805,42.435 L57.6805,39.289 L59.6935,39.289 L59.6935,47 L57.6805,47 L57.6805,44.041 L54.5675,44.041 L54.5675,47 L52.5545,47 L52.5545,39.289 Z M61.1895,39.289 L67.2725,39.289 L67.2725,40.895 L63.2025,40.895 L63.2025,42.336 L66.8765,42.336 L66.8765,43.931 L63.2025,43.942 L63.2025,45.394 L67.3825,45.394 L67.3825,47 L61.1895,47 L61.1895,39.289 Z M76.518,39.773 C77.1376698,40.0956683 77.6198316,40.5484971 77.9645,41.1315 C78.3091684,41.7145029 78.4815,42.3836629 78.4815,43.139 C78.4815,43.8943371 78.3073351,44.5653304 77.959,45.152 C77.6106649,45.7386696 77.1193365,46.1933317 76.485,46.516 C75.8506635,46.8386683 75.1228374,47 74.3015,47 L71.0565,47 L71.0565,39.289 L74.3785,39.289 C75.1851707,39.289 75.8983302,39.4503317 76.518,39.773 Z M75.4675,45.097 C75.7681682,44.9136658 76.0028325,44.653335 76.1715,44.316 C76.3401675,43.978665 76.4245,43.5936688 76.4245,43.161 C76.4245,42.7209978 76.3346676,42.332335 76.155,41.995 C75.9753324,41.657665 75.7278349,41.3955009 75.4125,41.2085 C75.0971651,41.0214991 74.7378354,40.928 74.3345,40.928 L73.0695,40.928 L73.0695,45.372 L74.4335,45.372 C74.8221686,45.372 75.1668318,45.2803342 75.4675,45.097 Z M84.9385,47 L84.4105,45.636 L81.0775,45.636 L80.5385,47 L78.4705,47 L81.7815,39.289 L83.8495,39.289 L87.0835,47 L84.9385,47 Z M81.6825,44.096 L83.8165,44.096 L82.7605,41.346 L81.6825,44.096 Z M94.0025,39.289 L91.2195,44.536 L91.2195,47 L89.2065,47 L89.2065,44.591 L86.3685,39.289 L88.3815,39.289 L90.2075,42.6 L91.9895,39.289 L94.0025,39.289 Z" id="SITE-OF-THE-DAY" fill="#FFFFFF"></path>
                <path d="M40.736,61.4 L41.536,61.4 L39.64,67 L38.84,67 L37.392,62.376 L35.92,67 L35.128,67 L33.24,61.4 L34.064,61.4 L35.544,66.176 L37.016,61.4 L37.784,61.4 L39.264,66.176 L40.736,61.4 Z M49.104,61.4 L49.904,61.4 L48.008,67 L47.208,67 L45.76,62.376 L44.288,67 L43.496,67 L41.608,61.4 L42.432,61.4 L43.912,66.176 L45.384,61.4 L46.152,61.4 L47.632,66.176 L49.104,61.4 Z M57.472,61.4 L58.272,61.4 L56.376,67 L55.576,67 L54.128,62.376 L52.656,67 L51.864,67 L49.976,61.4 L50.8,61.4 L52.28,66.176 L53.752,61.4 L54.52,61.4 L56,66.176 L57.472,61.4 Z M59.428,66.28 C59.5106671,66.3653338 59.552,66.474666 59.552,66.608 C59.552,66.741334 59.5106671,66.8519996 59.428,66.94 C59.3453329,67.0280004 59.2426673,67.072 59.12,67.072 C58.9973327,67.072 58.8933338,67.0280004 58.808,66.94 C58.7226662,66.8519996 58.68,66.741334 58.68,66.608 C58.68,66.474666 58.7226662,66.3653338 58.808,66.28 C58.8933338,66.1946662 58.9973327,66.152 59.12,66.152 C59.2426673,66.152 59.3453329,66.1946662 59.428,66.28 Z M64.484,61.772 C64.8120016,62.0200012 64.976,62.3626645 64.976,62.8 C64.976,63.1200016 64.8853342,63.3906656 64.704,63.612 C64.5226658,63.8333344 64.2746682,63.981333 63.96,64.056 C64.3493353,64.114667 64.6546656,64.2706654 64.876,64.524 C65.0973344,64.7773346 65.208,65.0933314 65.208,65.472 C65.208,65.9520024 65.0280018,66.3266653 64.668,66.596 C64.3079982,66.8653347 63.8106698,67 63.176,67 L60.744,67 L60.744,61.4 L63.136,61.4 C63.7066695,61.4 64.1559984,61.5239988 64.484,61.772 Z M63.9,63.556 C64.0893343,63.4093326 64.184,63.2000014 64.184,62.928 C64.184,62.661332 64.0893343,62.4560007 63.9,62.312 C63.7106657,62.1679993 63.4426684,62.0986666 63.096,62.104 L61.512,62.104 L61.512,63.776 L63.096,63.776 C63.4426684,63.776 63.7106657,63.7026674 63.9,63.556 Z M64.072,66.06 C64.3066678,65.8973325 64.424,65.6693348 64.424,65.376 C64.424,65.0933319 64.3066678,64.8720008 64.072,64.712 C63.8373322,64.5519992 63.5120021,64.472 63.096,64.472 L61.512,64.472 L61.512,66.296 L63.096,66.296 C63.5120021,66.3013334 63.8373322,66.2226675 64.072,66.06 Z M66.44,61.4 L70.328,61.4 L70.328,62.096 L67.208,62.096 L67.208,63.824 L70,63.824 L70,64.52 L67.208,64.52 L67.208,66.304 L70.424,66.304 L70.424,67 L66.44,67 L66.44,61.4 Z M74.124,62.196 C73.8439986,62.1133329 73.5866678,62.072 73.352,62.072 C73.026665,62.072 72.7666676,62.134666 72.572,62.26 C72.3773324,62.385334 72.28,62.5573322 72.28,62.776 C72.28,62.9733343 72.3386661,63.134666 72.456,63.26 C72.5733339,63.385334 72.7173325,63.4839996 72.888,63.556 C73.0586675,63.6280004 73.2959985,63.7119995 73.6,63.808 C73.9786686,63.9253339 74.2853322,64.0373328 74.52,64.144 C74.7546678,64.2506672 74.9546658,64.4093323 75.12,64.62 C75.2853342,64.8306677 75.368,65.1093316 75.368,65.456 C75.368,65.7760016 75.2813342,66.0559988 75.108,66.296 C74.9346658,66.5360012 74.6920016,66.7213327 74.38,66.852 C74.0679984,66.9826673 73.7093354,67.048 73.304,67.048 C72.8933313,67.048 72.4933353,66.9680008 72.104,66.808 C71.7146647,66.6479992 71.3786681,66.434668 71.096,66.168 L71.44,65.504 C71.706668,65.7653346 72.006665,65.966666 72.34,66.108 C72.673335,66.249334 72.9973318,66.32 73.312,66.32 C73.6853352,66.32 73.9799989,66.2466674 74.196,66.1 C74.4120011,65.9533326 74.52,65.7546679 74.52,65.504 C74.52,65.3066657 74.4613339,65.1440006 74.344,65.016 C74.2266661,64.8879994 74.0786676,64.786667 73.9,64.712 C73.7213324,64.637333 73.4800015,64.5546671 73.176,64.464 C72.8026648,64.3519994 72.4986678,64.2426672 72.264,64.136 C72.0293322,64.0293328 71.8306675,63.872001 71.668,63.664 C71.5053325,63.455999 71.424,63.181335 71.424,62.84 C71.424,62.5413318 71.5066658,62.2773345 71.672,62.048 C71.8373342,61.8186655 72.0693318,61.6426673 72.368,61.52 C72.6666682,61.3973327 73.0133314,61.336 73.408,61.336 C73.7440017,61.336 74.0733317,61.3853328 74.396,61.484 C74.7186683,61.5826672 75.0053321,61.7146658 75.256,61.88 L74.936,62.568 C74.6746654,62.4026658 74.4040014,62.2786671 74.124,62.196 Z M75.872,61.4 L80.248,61.4 L80.248,62.104 L78.44,62.104 L78.44,67 L77.672,67 L77.672,62.104 L75.872,62.104 L75.872,61.4 Z M84.088,62.22 C83.8053319,62.094666 83.5146682,62.032 83.216,62.032 C82.8213314,62.032 82.4586683,62.127999 82.128,62.32 C81.7973317,62.512001 81.536001,62.7719984 81.344,63.1 C81.151999,63.4280016 81.056,63.7893314 81.056,64.184 C81.056,64.5733353 81.151999,64.9333317 81.344,65.264 C81.536001,65.5946683 81.7973317,65.855999 82.128,66.048 C82.4586683,66.240001 82.8213314,66.336 83.216,66.336 C83.5093348,66.336 83.7973319,66.2760006 84.08,66.156 C84.3626681,66.0359994 84.6133322,65.872001 84.832,65.664 L85.296,66.168 C85.0133319,66.4453347 84.6853352,66.6626659 84.312,66.82 C83.9386648,66.9773341 83.5600019,67.056 83.176,67.056 C82.642664,67.056 82.1546689,66.9293346 81.712,66.676 C81.2693311,66.4226654 80.9200013,66.0773355 80.664,65.64 C80.4079987,65.2026645 80.28,64.7200026 80.28,64.192 C80.28,63.6693307 80.409332,63.1906688 80.668,62.756 C80.926668,62.3213312 81.2799978,61.9786679 81.728,61.728 C82.1760022,61.4773321 82.6693306,61.352 83.208,61.352 C83.5973353,61.352 83.9746648,61.4253326 84.34,61.572 C84.7053352,61.7186674 85.021332,61.925332 85.288,62.192 L84.832,62.744 C84.6186656,62.5199989 84.3706681,62.345334 84.088,62.22 Z M88.828,62.196 C88.5479986,62.1133329 88.2906678,62.072 88.056,62.072 C87.730665,62.072 87.4706676,62.134666 87.276,62.26 C87.0813324,62.385334 86.984,62.5573322 86.984,62.776 C86.984,62.9733343 87.0426661,63.134666 87.16,63.26 C87.2773339,63.385334 87.4213325,63.4839996 87.592,63.556 C87.7626675,63.6280004 87.9999985,63.7119995 88.304,63.808 C88.6826686,63.9253339 88.9893322,64.0373328 89.224,64.144 C89.4586678,64.2506672 89.6586658,64.4093323 89.824,64.62 C89.9893342,64.8306677 90.072,65.1093316 90.072,65.456 C90.072,65.7760016 89.9853342,66.0559988 89.812,66.296 C89.6386658,66.5360012 89.3960016,66.7213327 89.084,66.852 C88.7719984,66.9826673 88.4133354,67.048 88.008,67.048 C87.5973313,67.048 87.1973353,66.9680008 86.808,66.808 C86.4186647,66.6479992 86.0826681,66.434668 85.8,66.168 L86.144,65.504 C86.410668,65.7653346 86.710665,65.966666 87.044,66.108 C87.377335,66.249334 87.7013318,66.32 88.016,66.32 C88.3893352,66.32 88.6839989,66.2466674 88.9,66.1 C89.1160011,65.9533326 89.224,65.7546679 89.224,65.504 C89.224,65.3066657 89.1653339,65.1440006 89.048,65.016 C88.9306661,64.8879994 88.7826676,64.786667 88.604,64.712 C88.4253324,64.637333 88.1840015,64.5546671 87.88,64.464 C87.5066648,64.3519994 87.2026678,64.2426672 86.968,64.136 C86.7333322,64.0293328 86.5346675,63.872001 86.372,63.664 C86.2093325,63.455999 86.128,63.181335 86.128,62.84 C86.128,62.5413318 86.2106658,62.2773345 86.376,62.048 C86.5413342,61.8186655 86.7733318,61.6426673 87.072,61.52 C87.3706682,61.3973327 87.7173314,61.336 88.112,61.336 C88.4480017,61.336 88.7773317,61.3853328 89.1,61.484 C89.4226683,61.5826672 89.7093321,61.7146658 89.96,61.88 L89.64,62.568 C89.3786654,62.4026658 89.1080014,62.2786671 88.828,62.196 Z M93.756,62.196 C93.4759986,62.1133329 93.2186678,62.072 92.984,62.072 C92.658665,62.072 92.3986676,62.134666 92.204,62.26 C92.0093324,62.385334 91.912,62.5573322 91.912,62.776 C91.912,62.9733343 91.9706661,63.134666 92.088,63.26 C92.2053339,63.385334 92.3493325,63.4839996 92.52,63.556 C92.6906675,63.6280004 92.9279985,63.7119995 93.232,63.808 C93.6106686,63.9253339 93.9173322,64.0373328 94.152,64.144 C94.3866678,64.2506672 94.5866658,64.4093323 94.752,64.62 C94.9173342,64.8306677 95,65.1093316 95,65.456 C95,65.7760016 94.9133342,66.0559988 94.74,66.296 C94.5666658,66.5360012 94.3240016,66.7213327 94.012,66.852 C93.6999984,66.9826673 93.3413354,67.048 92.936,67.048 C92.5253313,67.048 92.1253353,66.9680008 91.736,66.808 C91.3466647,66.6479992 91.0106681,66.434668 90.728,66.168 L91.072,65.504 C91.338668,65.7653346 91.638665,65.966666 91.972,66.108 C92.305335,66.249334 92.6293318,66.32 92.944,66.32 C93.3173352,66.32 93.6119989,66.2466674 93.828,66.1 C94.0440011,65.9533326 94.152,65.7546679 94.152,65.504 C94.152,65.3066657 94.0933339,65.1440006 93.976,65.016 C93.8586661,64.8879994 93.7106676,64.786667 93.532,64.712 C93.3533324,64.637333 93.1120015,64.5546671 92.808,64.464 C92.4346648,64.3519994 92.1306678,64.2426672 91.896,64.136 C91.6613322,64.0293328 91.4626675,63.872001 91.3,63.664 C91.1373325,63.455999 91.056,63.181335 91.056,62.84 C91.056,62.5413318 91.1386658,62.2773345 91.304,62.048 C91.4693342,61.8186655 91.7013318,61.6426673 92,61.52 C92.2986682,61.3973327 92.6453314,61.336 93.04,61.336 C93.3760017,61.336 93.7053317,61.3853328 94.028,61.484 C94.3506683,61.5826672 94.6373321,61.7146658 94.888,61.88 L94.568,62.568 C94.3066654,62.4026658 94.0360014,62.2786671 93.756,62.196 Z M96.564,66.28 C96.6466671,66.3653338 96.688,66.474666 96.688,66.608 C96.688,66.741334 96.6466671,66.8519996 96.564,66.94 C96.4813329,67.0280004 96.3786673,67.072 96.256,67.072 C96.1333327,67.072 96.0293338,67.0280004 95.944,66.94 C95.8586662,66.8519996 95.816,66.741334 95.816,66.608 C95.816,66.474666 95.8586662,66.3653338 95.944,66.28 C96.0293338,66.1946662 96.1333327,66.152 96.256,66.152 C96.3786673,66.152 96.4813329,66.1946662 96.564,66.28 Z M97.88,61.4 L98.648,61.4 L98.648,67 L97.88,67 L97.88,61.4 Z M104.232,61.4 L104.992,61.4 L104.992,67 L104.216,67 L101.016,62.664 L101.016,67 L100.248,67 L100.248,61.4 L101.024,61.4 L104.232,65.744 L104.232,61.4 Z" id="www.bestcss.in" fill="#FFFFFF"></path>
            </g>
        </g>
    </g>
</svg>