<?xml version="1.0" encoding="UTF-8"?>
<svg width="138px" height="67px" viewBox="0 0 138 67" version="1.1" xmlns="http://www.w3.org/2000/svg" xmlns:xlink="http://www.w3.org/1999/xlink">
    <!-- Generator: Sketch 47 (45396) - http://www.bohemiancoding.com/sketch -->
    <title>Group 12</title>
    <desc>Created with Sketch.</desc>
    <defs></defs>
    <g id="Page-1" stroke="none" stroke-width="1" fill="none" fill-rule="evenodd">
        <g id="Desktop-HD-Copy-13" transform="translate(-1149.000000, -134.000000)">
            <g id="Group-12" transform="translate(1149.000000, 118.000000)">
                <g id="9-copy-2">
                    <rect id="Rectangle-path" x="0" y="0" width="139" height="98"></rect>
                    <g id="Group" transform="translate(0.000000, 16.000000)" fill="#FFFFFF">
                        <g transform="translate(110.631933, 0.000000)" id="Shape">
                            <path d="M8.7902521,60.743554 C10.3905882,57.3818815 11.2487395,52.9696864 10.5993277,49.11777 C8.04806723,52.0592334 6.33176471,54.8372822 5.98386555,57.1250871 C5.63596639,59.412892 4.56907563,62.6111498 2.89915966,63.9418118 C6.37815126,64.5020906 13.4752941,64.2452962 17.1398319,61.3738676 C19.7838655,59.3195122 22.3119328,57.2418118 22.2191597,54.3003484 C20.8739496,55.5843206 19.6447059,56.6581882 17.0702521,57.5452962 C16.0265546,57.8954704 13.4752941,59.0627178 12.1532773,59.8097561 C10.8312605,60.5801394 9.55563025,60.8369338 8.7902521,60.743554 Z"></path>
                            <path d="M15.887395,52.5261324 C16.6527731,48.5574913 16.8847059,46.2696864 15.5163025,41.0404181 C14.3798319,43.3982578 12.547563,45.4292683 12.8954622,53.4365854 C12.8722689,54.5571429 12.8954622,56.0278746 12.8258824,57.4519164 C16.0729412,56.1912892 21.6161345,54.0902439 24.1210084,49.6780488 C26.6490756,45.2658537 26.1156303,44.1219512 25.8373109,41.997561 C24.4921008,43.795122 23.6803361,45.0557491 22.3119328,46.1529617 C19.32,48.5341463 17.9979832,50.6585366 16.6295798,52.9229965 C16.3280672,53.4365854 15.725042,53.2264808 15.887395,52.5261324 Z"></path>
                            <path d="M19.1344538,46.1529617 C18.3458824,42.7912892 18.067563,41.0637631 17.0006723,39.0094077 C15.9337815,36.9550523 15.2379832,32.7996516 16.3048739,30.0682927 C18.485042,33.4066202 20.0853782,36.3714286 20.0621849,41.1804878 C20.154958,41.6707317 20.410084,41.6707317 20.572437,41.2271777 C20.7347899,40.7836237 22.5670588,35.5076655 24.3529412,33.5933798 C25.7909244,32.0759582 27.1593277,30.0682927 27.2752941,29.4379791 C27.5072269,33.5233449 27.3912605,35.4843206 25.9068908,38.0522648 C24.422521,40.6202091 23.1236975,41.9508711 22.1959664,42.7445993 C21.2218487,43.5616725 20.2245378,44.5655052 19.1344538,46.1529617 Z"></path>
                            <path d="M25.5357983,16.7149826 C28.272605,25.5860627 25.1647059,29.3912892 24.167395,30.6519164 C23.1932773,31.8891986 22.2655462,32.9864111 21.2218487,35.274216 C20.9667227,34.0602787 18.6705882,30.1383275 17.6036975,28.597561 C16.5368067,27.0567944 14.8205042,23.5083624 14.7973109,21.5940767 C16.8615126,22.8313589 20.2013445,24.7689895 21.6393277,29.928223 C22.3351261,28.4341463 22.3119328,27.7804878 22.4278992,26.3797909 C22.5438655,25.002439 23.749916,21.454007 24.3761345,20.3334495 C25.0023529,19.212892 25.4894118,18.1390244 25.5357983,16.7149826 Z"></path>
                            <path d="M10.7384874,13.5867596 C11.6662185,16.1780488 14.7973109,18.5592334 16.3744538,19.4930314 C17.9747899,20.4268293 20.3405042,22.761324 21.1986555,23.9752613 C21.662521,22.5278746 25.3502521,14.1937282 17.7660504,6.23310105 C17.7428571,8.87108014 18.1603361,13.6334495 19.8302521,17.6721254 C19.9462185,18.2557491 20.0389916,19.3996516 19.6215126,19.8432056 C17.8588235,16.7149826 15.3307563,14.0069686 10.7384874,13.5867596 Z"></path>
                            <path d="M9.74117647,0.350174216 C13.8463866,2.5445993 16.56,7.09686411 16.6759664,13.8902439 C15.2147899,12.933101 13.7072269,12.3728223 12.0141176,11.9526132 C10.3210084,11.5324042 6.09983193,9.99163763 4.40672269,6.53658537 C6.07663866,6.81672474 12.0605042,8.70766551 13.8463866,10.5752613 C13.9623529,8.87108014 13.0578151,6.53658537 12.4547899,5.81289199 C11.8517647,5.08919861 9.76436975,1.70418118 9.74117647,0.350174216 Z"></path>
                            <path d="M1.41478992,0.0933797909 C2.11058824,1.86759582 4.03563025,3.50174216 5.45042017,4.38885017 C6.86521008,5.27595819 10.2514286,6.67665505 11.3415126,7.12020906 C10.3210084,5.41602787 8.76705882,3.36167247 7.2594958,2.33449477 C5.75193277,1.28397213 3.7805042,0.72369338 1.41478992,0.0933797909 Z"></path>
                            <g transform="translate(0.000000, 60.463415)">
                                <path d="M6.81882353,1.26062718 L1.15966387,5.43937282"></path>
                                <path d="M6.16941176,0.373519164 L0.533445378,4.55226481 C0.0463865546,4.90243902 -0.0463865546,5.57944251 0.301512605,6.06968641 C0.649411765,6.55993031 1.32201681,6.6533101 1.80907563,6.30313589 L7.44504202,2.12439024 C7.93210084,1.77421603 8.02487395,1.09721254 7.67697479,0.606968641 C7.32907563,0.140069686 6.65647059,0.0233449477 6.16941176,0.373519164 Z"></path>
                            </g>
                        </g>
                        <g id="Shape">
                            <path d="M18.647395,60.743554 C17.0470588,57.3818815 16.1889076,52.9696864 16.8383193,49.11777 C19.3895798,52.0592334 21.1058824,54.8372822 21.4537815,57.1250871 C21.8016807,59.412892 22.8685714,62.6111498 24.5384874,63.9418118 C21.0594958,64.5020906 13.9623529,64.2452962 10.2978151,61.3738676 C7.65378151,59.3195122 5.12571429,57.2418118 5.21848739,54.3003484 C6.56369748,55.5843206 7.79294118,56.6581882 10.367395,57.5452962 C11.4110924,57.8954704 13.9623529,59.0627178 15.2843697,59.8097561 C16.5831933,60.5801394 17.8588235,60.8369338 18.647395,60.743554 Z"></path>
                            <path d="M11.5502521,52.5261324 C10.8080672,48.5574913 10.5529412,46.2696864 11.9213445,41.0404181 C13.0578151,43.3982578 14.890084,45.4292683 14.5421849,53.4365854 C14.5653782,54.5571429 14.5653782,56.0278746 14.6117647,57.4519164 C11.3647059,56.1912892 5.82151261,54.0902439 3.31663866,49.6780488 C0.788571429,45.2658537 1.32201681,44.1219512 1.60033613,42.0209059 C2.94554622,43.8184669 3.75731092,45.0790941 5.12571429,46.1763066 C8.11764706,48.5574913 9.43966387,50.6818815 10.7848739,52.9463415 C11.1095798,53.4365854 11.712605,53.2264808 11.5502521,52.5261324 Z"></path>
                            <path d="M8.28,46.1529617 C9.06857143,42.7912892 9.34689076,41.0637631 10.4137815,39.0094077 C11.4806723,36.9550523 12.1764706,32.7996516 11.1095798,30.0682927 C8.92941176,33.4066202 7.32907563,36.3714286 7.35226891,41.1804878 C7.2594958,41.6707317 7.00436975,41.6707317 6.84201681,41.2271777 C6.67966387,40.7836237 4.84739496,35.5076655 3.06151261,33.5933798 C1.62352941,32.0759582 0.25512605,30.0682927 0.139159664,29.4379791 C-0.0927731092,33.5233449 0.0231932773,35.4843206 1.50756303,38.0522648 C2.99193277,40.6202091 4.2907563,41.9508711 5.21848739,42.7445993 C6.19260504,43.5616725 7.21310924,44.5655052 8.28,46.1529617 Z"></path>
                            <path d="M1.87865546,16.7149826 C-0.858151261,25.5860627 2.2497479,29.3912892 3.24705882,30.6519164 C4.22117647,31.8891986 5.14890756,32.9864111 6.19260504,35.274216 C6.44773109,34.0602787 8.74386555,30.1383275 9.8107563,28.597561 C10.8776471,27.0567944 12.5939496,23.5083624 12.6171429,21.5940767 C10.5529412,22.8313589 7.21310924,24.7689895 5.77512605,29.928223 C5.07932773,28.4341463 5.10252101,27.7804878 4.98655462,26.3797909 C4.87058824,25.002439 3.66453782,21.454007 3.03831933,20.3334495 C2.43529412,19.212892 1.94823529,18.1390244 1.87865546,16.7149826 Z"></path>
                            <path d="M16.6991597,13.5867596 C15.7714286,16.1780488 12.6403361,18.5592334 11.0631933,19.4930314 C9.46285714,20.4268293 7.09714286,22.761324 6.2389916,23.9752613 C5.77512605,22.5278746 2.08739496,14.1937282 9.67159664,6.23310105 C9.69478992,8.87108014 9.27731092,13.6334495 7.60739496,17.6721254 C7.49142857,18.2557491 7.39865546,19.3996516 7.81613445,19.8432056 C9.55563025,16.7149826 12.1068908,14.0069686 16.6991597,13.5867596 Z"></path>
                            <path d="M17.6964706,0.350174216 C13.5912605,2.5445993 10.8776471,7.09686411 10.7616807,13.8902439 C12.1996639,12.933101 13.7304202,12.3728223 15.4235294,11.9526132 C17.1166387,11.5324042 21.3378151,9.99163763 23.0309244,6.53658537 C21.3842017,6.81672474 15.3771429,8.70766551 13.5912605,10.5752613 C13.4752941,8.87108014 14.3798319,6.53658537 14.9828571,5.81289199 C15.5858824,5.08919861 17.6732773,1.70418118 17.6964706,0.350174216 Z"></path>
                            <path d="M26.0228571,0.0933797909 C25.3270588,1.86759582 23.4020168,3.50174216 21.9872269,4.38885017 C20.572437,5.27595819 17.1862185,6.67665505 16.0961345,7.12020906 C17.1166387,5.41602787 18.6705882,3.36167247 20.1781513,2.33449477 C21.662521,1.28397213 23.6571429,0.72369338 26.0228571,0.0933797909 Z"></path>
                            <g transform="translate(19.482353, 60.463415)">
                                <path d="M1.13647059,1.26062718 L6.77243697,5.43937282"></path>
                                <path d="M0.278319328,0.606968641 C-0.0695798319,1.09721254 0.0231932773,1.77421603 0.510252101,2.12439024 L6.14621849,6.30313589 C6.63327731,6.6533101 7.30588235,6.55993031 7.65378151,6.06968641 C8.00168067,5.57944251 7.90890756,4.90243902 7.42184874,4.55226481 L1.78588235,0.373519164 C1.29882353,0.0233449477 0.626218487,0.140069686 0.278319328,0.606968641 Z"></path>
                            </g>
                        </g>
                    </g>
                </g>
                <path d="M52.868,30.016 C52.402331,29.8619992 52.0118349,29.785 51.6965,29.785 C51.4471654,29.785 51.2510007,29.8308329 51.108,29.9225 C50.9649993,30.0141671 50.8935,30.1479991 50.8935,30.324 C50.8935,30.4926675 50.9558327,30.6338328 51.0805,30.7475 C51.2051673,30.8611672 51.3591657,30.952833 51.5425,31.0225 C51.7258343,31.092167 51.9971649,31.1819994 52.3565,31.292 C52.891836,31.4460008 53.3336649,31.5999992 53.682,31.754 C54.0303351,31.9080008 54.3291654,32.1444984 54.5785,32.4635 C54.8278346,32.7825016 54.9525,33.1986641 54.9525,33.712 C54.9525,34.2253359 54.8168347,34.6634982 54.5455,35.0265 C54.2741653,35.3895018 53.9020024,35.6626658 53.429,35.846 C52.9559976,36.0293342 52.4298362,36.121 51.8505,36.121 C51.2124968,36.121 50.5763365,36.0091678 49.942,35.7855 C49.3076635,35.5618322 48.7595023,35.2556686 48.2975,34.867 L49.0785,33.294 C49.4671686,33.6386684 49.9273307,33.9209989 50.459,34.141 C50.9906693,34.3610011 51.4618313,34.471 51.8725,34.471 C52.1731682,34.471 52.4096658,34.4160006 52.582,34.306 C52.7543342,34.1959995 52.8405,34.0346677 52.8405,33.822 C52.8405,33.6459991 52.776334,33.4993339 52.648,33.382 C52.519666,33.2646661 52.3583343,33.171167 52.164,33.1015 C51.9696657,33.031833 51.6965018,32.9493338 51.3445,32.854 C50.8164974,32.7073326 50.3801684,32.5588341 50.0355,32.4085 C49.6908316,32.2581659 49.3956679,32.0308349 49.15,31.7265 C48.9043321,31.4221651 48.7815,31.0170025 48.7815,30.511 C48.7815,30.0343309 48.9079987,29.6163351 49.161,29.257 C49.4140013,28.8976649 49.773331,28.6208343 50.239,28.4265 C50.704669,28.2321657 51.2454969,28.135 51.8615,28.135 C52.4188361,28.135 52.9688306,28.2138325 53.5115,28.3715 C54.0541694,28.5291675 54.5308313,28.7399987 54.9415,29.004 L54.1825,30.61 C53.7718313,30.3679988 53.333669,30.1700008 52.868,30.016 Z M55.9755,28.289 L57.9885,28.289 L57.9885,36 L55.9755,36 L55.9755,28.289 Z M58.8135,28.289 L65.4245,28.289 L65.4245,29.95 L63.1145,29.95 L63.1145,36 L61.1015,36 L61.1015,29.95 L58.8135,29.95 L58.8135,28.289 Z M66.2385,28.289 L72.3215,28.289 L72.3215,29.895 L68.2515,29.895 L68.2515,31.336 L71.9255,31.336 L71.9255,32.931 L68.2515,32.942 L68.2515,34.394 L72.4315,34.394 L72.4315,36 L66.2385,36 L66.2385,28.289 Z M81.908,28.685 C82.5423365,29.0296684 83.0409982,29.5026637 83.404,30.104 C83.7670018,30.7053363 83.9485,31.3799963 83.9485,32.128 C83.9485,32.8833371 83.7670018,33.5653303 83.404,34.174 C83.0409982,34.7826697 82.5423365,35.2629982 81.908,35.615 C81.2736635,35.9670018 80.5641706,36.143 79.7795,36.143 C78.9948294,36.143 78.2853365,35.9688351 77.651,35.6205 C77.0166635,35.2721649 76.5180018,34.7918364 76.155,34.1795 C75.7919982,33.5671636 75.6105,32.8833371 75.6105,32.128 C75.6105,31.3799963 75.7919982,30.7053363 76.155,30.104 C76.5180018,29.5026637 77.0166635,29.0296684 77.651,28.685 C78.2853365,28.3403316 78.9948294,28.168 79.7795,28.168 C80.5641706,28.168 81.2736635,28.3403316 81.908,28.685 Z M78.74,30.17 C78.413665,30.368001 78.1551676,30.6411649 77.9645,30.9895 C77.7738324,31.3378351 77.6785,31.7209979 77.6785,32.139 C77.6785,32.5643355 77.7756657,32.9511649 77.97,33.2995 C78.1643343,33.6478351 78.4228317,33.9228323 78.7455,34.1245 C79.0681683,34.3261677 79.4201648,34.427 79.8015,34.427 C80.1828352,34.427 80.5329984,34.3261677 80.852,34.1245 C81.1710016,33.9228323 81.4221657,33.6478351 81.6055,33.2995 C81.7888343,32.9511649 81.8805,32.5643355 81.8805,32.139 C81.8805,31.7209979 81.7888343,31.3378351 81.6055,30.9895 C81.4221657,30.6411649 81.1710016,30.368001 80.852,30.17 C80.5329984,29.971999 80.1828352,29.873 79.8015,29.873 C79.4201648,29.873 79.066335,29.971999 78.74,30.17 Z M84.9495,28.289 L90.7135,28.289 L90.7025,29.895 L86.9625,29.895 L86.9625,31.611 L90.4165,31.611 L90.4165,33.217 L86.9625,33.217 L86.9625,36 L84.9495,36 L84.9495,28.289 Z M45.1295,39.289 L51.7405,39.289 L51.7405,40.95 L49.4305,40.95 L49.4305,47 L47.4175,47 L47.4175,40.95 L45.1295,40.95 L45.1295,39.289 Z M52.5545,39.289 L54.5675,39.289 L54.5675,42.435 L57.6805,42.435 L57.6805,39.289 L59.6935,39.289 L59.6935,47 L57.6805,47 L57.6805,44.041 L54.5675,44.041 L54.5675,47 L52.5545,47 L52.5545,39.289 Z M61.1895,39.289 L67.2725,39.289 L67.2725,40.895 L63.2025,40.895 L63.2025,42.336 L66.8765,42.336 L66.8765,43.931 L63.2025,43.942 L63.2025,45.394 L67.3825,45.394 L67.3825,47 L61.1895,47 L61.1895,39.289 Z M76.518,39.773 C77.1376698,40.0956683 77.6198316,40.5484971 77.9645,41.1315 C78.3091684,41.7145029 78.4815,42.3836629 78.4815,43.139 C78.4815,43.8943371 78.3073351,44.5653304 77.959,45.152 C77.6106649,45.7386696 77.1193365,46.1933317 76.485,46.516 C75.8506635,46.8386683 75.1228374,47 74.3015,47 L71.0565,47 L71.0565,39.289 L74.3785,39.289 C75.1851707,39.289 75.8983302,39.4503317 76.518,39.773 Z M75.4675,45.097 C75.7681682,44.9136658 76.0028325,44.653335 76.1715,44.316 C76.3401675,43.978665 76.4245,43.5936688 76.4245,43.161 C76.4245,42.7209978 76.3346676,42.332335 76.155,41.995 C75.9753324,41.657665 75.7278349,41.3955009 75.4125,41.2085 C75.0971651,41.0214991 74.7378353,40.928 74.3345,40.928 L73.0695,40.928 L73.0695,45.372 L74.4335,45.372 C74.8221686,45.372 75.1668318,45.2803342 75.4675,45.097 Z M84.9385,47 L84.4105,45.636 L81.0775,45.636 L80.5385,47 L78.4705,47 L81.7815,39.289 L83.8495,39.289 L87.0835,47 L84.9385,47 Z M81.6825,44.096 L83.8165,44.096 L82.7605,41.346 L81.6825,44.096 Z M94.0025,39.289 L91.2195,44.536 L91.2195,47 L89.2065,47 L89.2065,44.591 L86.3685,39.289 L88.3815,39.289 L90.2075,42.6 L91.9895,39.289 L94.0025,39.289 Z" id="SITE-OF-THE-DAY-Copy" fill="#FFFFFF"></path>
                <path d="M37.228,55.4 L38.028,55.4 L36.132,61 L35.332,61 L33.884,56.376 L32.412,61 L31.62,61 L29.732,55.4 L30.556,55.4 L32.036,60.176 L33.508,55.4 L34.276,55.4 L35.756,60.176 L37.228,55.4 Z M45.596,55.4 L46.396,55.4 L44.5,61 L43.7,61 L42.252,56.376 L40.78,61 L39.988,61 L38.1,55.4 L38.924,55.4 L40.404,60.176 L41.876,55.4 L42.644,55.4 L44.124,60.176 L45.596,55.4 Z M53.964,55.4 L54.764,55.4 L52.868,61 L52.068,61 L50.62,56.376 L49.148,61 L48.356,61 L46.468,55.4 L47.292,55.4 L48.772,60.176 L50.244,55.4 L51.012,55.4 L52.492,60.176 L53.964,55.4 Z M55.92,60.28 C56.0026671,60.3653338 56.044,60.474666 56.044,60.608 C56.044,60.741334 56.0026671,60.8519996 55.92,60.94 C55.8373329,61.0280004 55.7346673,61.072 55.612,61.072 C55.4893327,61.072 55.3853338,61.0280004 55.3,60.94 C55.2146662,60.8519996 55.172,60.741334 55.172,60.608 C55.172,60.474666 55.2146662,60.3653338 55.3,60.28 C55.3853338,60.1946662 55.4893327,60.152 55.612,60.152 C55.7346673,60.152 55.8373329,60.1946662 55.92,60.28 Z M60.992,55.764 C61.4320022,56.0066679 61.7773321,56.3413312 62.028,56.768 C62.2786679,57.1946688 62.404,57.6719974 62.404,58.2 C62.404,58.7280026 62.2773346,59.2053312 62.024,59.632 C61.7706654,60.0586688 61.4226689,60.3933321 60.98,60.636 C60.5373311,60.8786679 60.0413361,61 59.492,61 L57.236,61 L57.236,55.4 L59.516,55.4 C60.0600027,55.4 60.5519978,55.5213321 60.992,55.764 Z M60.592,60.032 C60.9093349,59.8506658 61.1599991,59.6000016 61.344,59.28 C61.5280009,58.9599984 61.62,58.6026686 61.62,58.208 C61.62,57.807998 61.5266676,57.4480016 61.34,57.128 C61.1533324,56.8079984 60.8986683,56.5560009 60.576,56.372 C60.2533317,56.1879991 59.8946686,56.096 59.5,56.096 L58.004,56.096 L58.004,60.304 L59.532,60.304 C59.9213353,60.304 60.2746651,60.2133342 60.592,60.032 Z M63.5,55.4 L67.388,55.4 L67.388,56.096 L64.268,56.096 L64.268,57.824 L67.06,57.824 L67.06,58.52 L64.268,58.52 L64.268,60.304 L67.484,60.304 L67.484,61 L63.5,61 L63.5,55.4 Z M71.184,56.196 C70.9039986,56.1133329 70.6466678,56.072 70.412,56.072 C70.086665,56.072 69.8266676,56.134666 69.632,56.26 C69.4373324,56.385334 69.34,56.5573322 69.34,56.776 C69.34,56.9733343 69.3986661,57.134666 69.516,57.26 C69.6333339,57.385334 69.7773325,57.4839996 69.948,57.556 C70.1186675,57.6280004 70.3559985,57.7119995 70.66,57.808 C71.0386686,57.9253339 71.3453322,58.0373328 71.58,58.144 C71.8146678,58.2506672 72.0146658,58.4093323 72.18,58.62 C72.3453342,58.8306677 72.428,59.1093316 72.428,59.456 C72.428,59.7760016 72.3413342,60.0559988 72.168,60.296 C71.9946658,60.5360012 71.7520016,60.7213327 71.44,60.852 C71.1279984,60.9826673 70.7693354,61.048 70.364,61.048 C69.9533313,61.048 69.5533353,60.9680008 69.164,60.808 C68.7746647,60.6479992 68.4386681,60.434668 68.156,60.168 L68.5,59.504 C68.766668,59.7653346 69.066665,59.966666 69.4,60.108 C69.733335,60.249334 70.0573318,60.32 70.372,60.32 C70.7453352,60.32 71.0399989,60.2466674 71.256,60.1 C71.4720011,59.9533326 71.58,59.7546679 71.58,59.504 C71.58,59.3066657 71.5213339,59.1440006 71.404,59.016 C71.2866661,58.8879994 71.1386676,58.786667 70.96,58.712 C70.7813324,58.637333 70.5400015,58.5546671 70.236,58.464 C69.8626648,58.3519994 69.5586678,58.2426672 69.324,58.136 C69.0893322,58.0293328 68.8906675,57.872001 68.728,57.664 C68.5653325,57.455999 68.484,57.181335 68.484,56.84 C68.484,56.5413318 68.5666658,56.2773345 68.732,56.048 C68.8973342,55.8186655 69.1293318,55.6426673 69.428,55.52 C69.7266682,55.3973327 70.0733314,55.336 70.468,55.336 C70.8040017,55.336 71.1333317,55.3853328 71.456,55.484 C71.7786683,55.5826672 72.0653321,55.7146658 72.316,55.88 L71.996,56.568 C71.7346654,56.4026658 71.4640014,56.2786671 71.184,56.196 Z M73.652,55.4 L74.42,55.4 L74.42,61 L73.652,61 L73.652,55.4 Z M79.892,58.264 L80.572,58.264 L80.572,60.32 C80.2893319,60.5440011 79.9586686,60.722666 79.58,60.856 C79.2013314,60.989334 78.8253352,61.056 78.452,61.056 C77.9133306,61.056 77.4200022,60.9293346 76.972,60.676 C76.5239978,60.4226654 76.170668,60.0760022 75.912,59.636 C75.653332,59.1959978 75.524,58.7146693 75.524,58.192 C75.524,57.6693307 75.6546654,57.1906688 75.916,56.756 C76.1773346,56.3213312 76.5346644,55.9786679 76.988,55.728 C77.4413356,55.4773321 77.9426639,55.352 78.492,55.352 C78.8813353,55.352 79.2613315,55.4213326 79.632,55.56 C80.0026685,55.6986674 80.3239986,55.8879988 80.596,56.128 L80.156,56.688 C79.9319989,56.479999 79.6746681,56.3186672 79.384,56.204 C79.0933319,56.0893328 78.7960015,56.032 78.492,56.032 C78.091998,56.032 77.7240017,56.127999 77.388,56.32 C77.0519983,56.512001 76.7866676,56.7733317 76.592,57.104 C76.3973324,57.4346683 76.3,57.7973314 76.3,58.192 C76.3,58.5866686 76.3986657,58.950665 76.596,59.284 C76.7933343,59.617335 77.0599983,59.8813324 77.396,60.076 C77.7320017,60.2706676 78.099998,60.368 78.5,60.368 C78.7346678,60.368 78.9733321,60.3293337 79.216,60.252 C79.4586679,60.1746663 79.683999,60.0666674 79.892,59.928 L79.892,58.264 Z M86.012,55.4 L86.772,55.4 L86.772,61 L85.996,61 L82.796,56.664 L82.796,61 L82.028,61 L82.028,55.4 L82.804,55.4 L86.012,59.744 L86.012,55.4 Z M92.364,55.4 L93.124,55.4 L93.124,61 L92.348,61 L89.148,56.664 L89.148,61 L88.38,61 L88.38,55.4 L89.156,55.4 L92.364,59.744 L92.364,55.4 Z M98.664,55.728 C99.1146689,55.9786679 99.4706654,56.3213312 99.732,56.756 C99.9933346,57.1906688 100.124,57.6693307 100.124,58.192 C100.124,58.7146693 99.9933346,59.1959978 99.732,59.636 C99.4706654,60.0760022 99.1146689,60.4226654 98.664,60.676 C98.2133311,60.9293346 97.7186694,61.056 97.18,61.056 C96.6413306,61.056 96.1466689,60.9293346 95.696,60.676 C95.2453311,60.4226654 94.8893346,60.0760022 94.628,59.636 C94.3666654,59.1959978 94.236,58.7146693 94.236,58.192 C94.236,57.6693307 94.3666654,57.1906688 94.628,56.756 C94.8893346,56.3213312 95.2439978,55.9786679 95.692,55.728 C96.1400022,55.4773321 96.6359973,55.352 97.18,55.352 C97.7186694,55.352 98.2133311,55.4773321 98.664,55.728 Z M96.104,56.328 C95.770665,56.520001 95.5053343,56.7799984 95.308,57.108 C95.1106657,57.4360016 95.012,57.7973314 95.012,58.192 C95.012,58.5866686 95.1106657,58.9493317 95.308,59.28 C95.5053343,59.6106683 95.770665,59.8733324 96.104,60.068 C96.437335,60.2626676 96.7986647,60.36 97.188,60.36 C97.5773353,60.36 97.9359984,60.2626676 98.264,60.068 C98.5920016,59.8733324 98.8533324,59.6106683 99.048,59.28 C99.2426676,58.9493317 99.34,58.5866686 99.34,58.192 C99.34,57.7973314 99.2426676,57.4360016 99.048,57.108 C98.8533324,56.7799984 98.5920016,56.520001 98.264,56.328 C97.9359984,56.135999 97.5773353,56.04 97.188,56.04 C96.7986647,56.04 96.437335,56.135999 96.104,56.328 Z M101.228,55.4 L102.14,55.4 L104.188,59.336 L106.22,55.4 L107.14,55.4 L107.14,61 L106.42,61 L106.412,56.528 L104.42,60.408 L103.948,60.408 L101.94,56.528 L101.94,61 L101.228,61 L101.228,55.4 Z M108.74,55.4 L109.508,55.4 L109.508,61 L108.74,61 L108.74,55.4 Z M53.356,64.4 L54.116,64.4 L54.116,70 L53.34,70 L50.14,65.664 L50.14,70 L49.372,70 L49.372,64.4 L50.148,64.4 L53.356,68.744 L53.356,64.4 Z M55.724,64.4 L59.612,64.4 L59.612,65.096 L56.492,65.096 L56.492,66.824 L59.284,66.824 L59.284,67.52 L56.492,67.52 L56.492,69.304 L59.708,69.304 L59.708,70 L55.724,70 L55.724,64.4 Z M60.948,64.4 L64.836,64.4 L64.836,65.096 L61.716,65.096 L61.716,66.824 L64.508,66.824 L64.508,67.52 L61.716,67.52 L61.716,69.304 L64.932,69.304 L64.932,70 L60.948,70 L60.948,64.4 Z M68.632,65.196 C68.3519986,65.1133329 68.0946678,65.072 67.86,65.072 C67.534665,65.072 67.2746676,65.134666 67.08,65.26 C66.8853324,65.385334 66.788,65.5573322 66.788,65.776 C66.788,65.9733343 66.8466661,66.134666 66.964,66.26 C67.0813339,66.385334 67.2253325,66.4839996 67.396,66.556 C67.5666675,66.6280004 67.8039985,66.7119995 68.108,66.808 C68.4866686,66.9253339 68.7933322,67.0373328 69.028,67.144 C69.2626678,67.2506672 69.4626658,67.4093323 69.628,67.62 C69.7933342,67.8306677 69.876,68.1093316 69.876,68.456 C69.876,68.7760016 69.7893342,69.0559988 69.616,69.296 C69.4426658,69.5360012 69.2000016,69.7213327 68.888,69.852 C68.5759984,69.9826673 68.2173354,70.048 67.812,70.048 C67.4013313,70.048 67.0013353,69.9680008 66.612,69.808 C66.2226647,69.6479992 65.8866681,69.434668 65.604,69.168 L65.948,68.504 C66.214668,68.7653346 66.514665,68.966666 66.848,69.108 C67.181335,69.249334 67.5053318,69.32 67.82,69.32 C68.1933352,69.32 68.4879989,69.2466674 68.704,69.1 C68.9200011,68.9533326 69.028,68.7546679 69.028,68.504 C69.028,68.3066657 68.9693339,68.1440006 68.852,68.016 C68.7346661,67.8879994 68.5866676,67.786667 68.408,67.712 C68.2293324,67.637333 67.9880015,67.5546671 67.684,67.464 C67.3106648,67.3519994 67.0066678,67.2426672 66.772,67.136 C66.5373322,67.0293328 66.3386675,66.872001 66.176,66.664 C66.0133325,66.455999 65.932,66.181335 65.932,65.84 C65.932,65.5413318 66.0146658,65.2773345 66.18,65.048 C66.3453342,64.8186655 66.5773318,64.6426673 66.876,64.52 C67.1746682,64.3973327 67.5213314,64.336 67.916,64.336 C68.2520017,64.336 68.5813317,64.3853328 68.904,64.484 C69.2266683,64.5826672 69.5133321,64.7146658 69.764,64.88 L69.444,65.568 C69.1826654,65.4026658 68.9120014,65.2786671 68.632,65.196 Z M71.44,69.28 C71.5226671,69.3653338 71.564,69.474666 71.564,69.608 C71.564,69.741334 71.5226671,69.8519996 71.44,69.94 C71.3573329,70.0280004 71.2546673,70.072 71.132,70.072 C71.0093327,70.072 70.9053338,70.0280004 70.82,69.94 C70.7346662,69.8519996 70.692,69.741334 70.692,69.608 C70.692,69.474666 70.7346662,69.3653338 70.82,69.28 C70.9053338,69.1946662 71.0093327,69.152 71.132,69.152 C71.2546673,69.152 71.3573329,69.1946662 71.44,69.28 Z M76.068,65.22 C75.7853319,65.094666 75.4946682,65.032 75.196,65.032 C74.8013314,65.032 74.4386683,65.127999 74.108,65.32 C73.7773317,65.512001 73.516001,65.7719984 73.324,66.1 C73.131999,66.4280016 73.036,66.7893314 73.036,67.184 C73.036,67.5733353 73.131999,67.9333317 73.324,68.264 C73.516001,68.5946683 73.7773317,68.855999 74.108,69.048 C74.4386683,69.240001 74.8013314,69.336 75.196,69.336 C75.4893348,69.336 75.7773319,69.2760006 76.06,69.156 C76.3426681,69.0359994 76.5933322,68.872001 76.812,68.664 L77.276,69.168 C76.9933319,69.4453347 76.6653352,69.6626659 76.292,69.82 C75.9186648,69.9773341 75.5400019,70.056 75.156,70.056 C74.622664,70.056 74.1346689,69.9293346 73.692,69.676 C73.2493311,69.4226654 72.9000013,69.0773355 72.644,68.64 C72.3879987,68.2026645 72.26,67.7200026 72.26,67.192 C72.26,66.6693307 72.389332,66.1906688 72.648,65.756 C72.906668,65.3213312 73.2599978,64.9786679 73.708,64.728 C74.1560022,64.4773321 74.6493306,64.352 75.188,64.352 C75.5773353,64.352 75.9546648,64.4253326 76.32,64.572 C76.6853352,64.7186674 77.001332,64.925332 77.268,65.192 L76.812,65.744 C76.5986656,65.5199989 76.3506681,65.345334 76.068,65.22 Z M82.152,64.728 C82.6026689,64.9786679 82.9586654,65.3213312 83.22,65.756 C83.4813346,66.1906688 83.612,66.6693307 83.612,67.192 C83.612,67.7146693 83.4813346,68.1959978 83.22,68.636 C82.9586654,69.0760022 82.6026689,69.4226654 82.152,69.676 C81.7013311,69.9293346 81.2066694,70.056 80.668,70.056 C80.1293306,70.056 79.6346689,69.9293346 79.184,69.676 C78.7333311,69.4226654 78.3773346,69.0760022 78.116,68.636 C77.8546654,68.1959978 77.724,67.7146693 77.724,67.192 C77.724,66.6693307 77.8546654,66.1906688 78.116,65.756 C78.3773346,65.3213312 78.7319978,64.9786679 79.18,64.728 C79.6280022,64.4773321 80.1239973,64.352 80.668,64.352 C81.2066694,64.352 81.7013311,64.4773321 82.152,64.728 Z M79.592,65.328 C79.258665,65.520001 78.9933343,65.7799984 78.796,66.108 C78.5986657,66.4360016 78.5,66.7973314 78.5,67.192 C78.5,67.5866686 78.5986657,67.9493317 78.796,68.28 C78.9933343,68.6106683 79.258665,68.8733324 79.592,69.068 C79.925335,69.2626676 80.2866647,69.36 80.676,69.36 C81.0653353,69.36 81.4239984,69.2626676 81.752,69.068 C82.0800016,68.8733324 82.3413324,68.6106683 82.536,68.28 C82.7306676,67.9493317 82.828,67.5866686 82.828,67.192 C82.828,66.7973314 82.7306676,66.4360016 82.536,66.108 C82.3413324,65.7799984 82.0800016,65.520001 81.752,65.328 C81.4239984,65.135999 81.0653353,65.04 80.676,65.04 C80.2866647,65.04 79.925335,65.135999 79.592,65.328 Z M84.716,64.4 L85.628,64.4 L87.676,68.336 L89.708,64.4 L90.628,64.4 L90.628,70 L89.908,70 L89.9,65.528 L87.908,69.408 L87.436,69.408 L85.428,65.528 L85.428,70 L84.716,70 L84.716,64.4 Z" id="www.designnominees.c" fill="#FFFFFF"></path>
            </g>
        </g>
    </g>
</svg>