<?xml version="1.0" encoding="UTF-8"?>
<svg width="138px" height="67px" viewBox="0 0 138 67" version="1.1" xmlns="http://www.w3.org/2000/svg" xmlns:xlink="http://www.w3.org/1999/xlink">
    <!-- Generator: Sketch 47 (45396) - http://www.bohemiancoding.com/sketch -->
    <title>Group 13</title>
    <desc>Created with Sketch.</desc>
    <defs></defs>
    <g id="Page-1" stroke="none" stroke-width="1" fill="none" fill-rule="evenodd">
        <g id="Desktop-HD" transform="translate(-986.000000, -1624.000000)">
            <g id="Group-13" transform="translate(986.000000, 1608.000000)">
                <g id="9-copy-4">
                    <rect id="Rectangle-path" x="0" y="0" width="139" height="98"></rect>
                    <g id="Group" transform="translate(0.000000, 16.000000)" fill="#FFFFFF">
                        <g transform="translate(110.631933, 0.000000)" id="Shape">
                            <path d="M8.7902521,60.743554 C10.3905882,57.3818815 11.2487395,52.9696864 10.5993277,49.11777 C8.04806723,52.0592334 6.33176471,54.8372822 5.98386555,57.1250871 C5.63596639,59.412892 4.56907563,62.6111498 2.89915966,63.9418118 C6.37815126,64.5020906 13.4752941,64.2452962 17.1398319,61.3738676 C19.7838655,59.3195122 22.3119328,57.2418118 22.2191597,54.3003484 C20.8739496,55.5843206 19.6447059,56.6581882 17.0702521,57.5452962 C16.0265546,57.8954704 13.4752941,59.0627178 12.1532773,59.8097561 C10.8312605,60.5801394 9.55563025,60.8369338 8.7902521,60.743554 Z"></path>
                            <path d="M15.887395,52.5261324 C16.6527731,48.5574913 16.8847059,46.2696864 15.5163025,41.0404181 C14.3798319,43.3982578 12.547563,45.4292683 12.8954622,53.4365854 C12.8722689,54.5571429 12.8954622,56.0278746 12.8258824,57.4519164 C16.0729412,56.1912892 21.6161345,54.0902439 24.1210084,49.6780488 C26.6490756,45.2658537 26.1156303,44.1219512 25.8373109,41.997561 C24.4921008,43.795122 23.6803361,45.0557491 22.3119328,46.1529617 C19.32,48.5341463 17.9979832,50.6585366 16.6295798,52.9229965 C16.3280672,53.4365854 15.725042,53.2264808 15.887395,52.5261324 Z"></path>
                            <path d="M19.1344538,46.1529617 C18.3458824,42.7912892 18.067563,41.0637631 17.0006723,39.0094077 C15.9337815,36.9550523 15.2379832,32.7996516 16.3048739,30.0682927 C18.485042,33.4066202 20.0853782,36.3714286 20.0621849,41.1804878 C20.154958,41.6707317 20.410084,41.6707317 20.572437,41.2271777 C20.7347899,40.7836237 22.5670588,35.5076655 24.3529412,33.5933798 C25.7909244,32.0759582 27.1593277,30.0682927 27.2752941,29.4379791 C27.5072269,33.5233449 27.3912605,35.4843206 25.9068908,38.0522648 C24.422521,40.6202091 23.1236975,41.9508711 22.1959664,42.7445993 C21.2218487,43.5616725 20.2245378,44.5655052 19.1344538,46.1529617 Z"></path>
                            <path d="M25.5357983,16.7149826 C28.272605,25.5860627 25.1647059,29.3912892 24.167395,30.6519164 C23.1932773,31.8891986 22.2655462,32.9864111 21.2218487,35.274216 C20.9667227,34.0602787 18.6705882,30.1383275 17.6036975,28.597561 C16.5368067,27.0567944 14.8205042,23.5083624 14.7973109,21.5940767 C16.8615126,22.8313589 20.2013445,24.7689895 21.6393277,29.928223 C22.3351261,28.4341463 22.3119328,27.7804878 22.4278992,26.3797909 C22.5438655,25.002439 23.749916,21.454007 24.3761345,20.3334495 C25.0023529,19.212892 25.4894118,18.1390244 25.5357983,16.7149826 Z"></path>
                            <path d="M10.7384874,13.5867596 C11.6662185,16.1780488 14.7973109,18.5592334 16.3744538,19.4930314 C17.9747899,20.4268293 20.3405042,22.761324 21.1986555,23.9752613 C21.662521,22.5278746 25.3502521,14.1937282 17.7660504,6.23310105 C17.7428571,8.87108014 18.1603361,13.6334495 19.8302521,17.6721254 C19.9462185,18.2557491 20.0389916,19.3996516 19.6215126,19.8432056 C17.8588235,16.7149826 15.3307563,14.0069686 10.7384874,13.5867596 Z"></path>
                            <path d="M9.74117647,0.350174216 C13.8463866,2.5445993 16.56,7.09686411 16.6759664,13.8902439 C15.2147899,12.933101 13.7072269,12.3728223 12.0141176,11.9526132 C10.3210084,11.5324042 6.09983193,9.99163763 4.40672269,6.53658537 C6.07663866,6.81672474 12.0605042,8.70766551 13.8463866,10.5752613 C13.9623529,8.87108014 13.0578151,6.53658537 12.4547899,5.81289199 C11.8517647,5.08919861 9.76436975,1.70418118 9.74117647,0.350174216 Z"></path>
                            <path d="M1.41478992,0.0933797909 C2.11058824,1.86759582 4.03563025,3.50174216 5.45042017,4.38885017 C6.86521008,5.27595819 10.2514286,6.67665505 11.3415126,7.12020906 C10.3210084,5.41602787 8.76705882,3.36167247 7.2594958,2.33449477 C5.75193277,1.28397213 3.7805042,0.72369338 1.41478992,0.0933797909 Z"></path>
                            <g transform="translate(0.000000, 60.463415)">
                                <path d="M6.81882353,1.26062718 L1.15966387,5.43937282"></path>
                                <path d="M6.16941176,0.373519164 L0.533445378,4.55226481 C0.0463865546,4.90243902 -0.0463865546,5.57944251 0.301512605,6.06968641 C0.649411765,6.55993031 1.32201681,6.6533101 1.80907563,6.30313589 L7.44504202,2.12439024 C7.93210084,1.77421603 8.02487395,1.09721254 7.67697479,0.606968641 C7.32907563,0.140069686 6.65647059,0.0233449477 6.16941176,0.373519164 Z"></path>
                            </g>
                        </g>
                        <g id="Shape">
                            <path d="M18.647395,60.743554 C17.0470588,57.3818815 16.1889076,52.9696864 16.8383193,49.11777 C19.3895798,52.0592334 21.1058824,54.8372822 21.4537815,57.1250871 C21.8016807,59.412892 22.8685714,62.6111498 24.5384874,63.9418118 C21.0594958,64.5020906 13.9623529,64.2452962 10.2978151,61.3738676 C7.65378151,59.3195122 5.12571429,57.2418118 5.21848739,54.3003484 C6.56369748,55.5843206 7.79294118,56.6581882 10.367395,57.5452962 C11.4110924,57.8954704 13.9623529,59.0627178 15.2843697,59.8097561 C16.5831933,60.5801394 17.8588235,60.8369338 18.647395,60.743554 Z"></path>
                            <path d="M11.5502521,52.5261324 C10.8080672,48.5574913 10.5529412,46.2696864 11.9213445,41.0404181 C13.0578151,43.3982578 14.890084,45.4292683 14.5421849,53.4365854 C14.5653782,54.5571429 14.5653782,56.0278746 14.6117647,57.4519164 C11.3647059,56.1912892 5.82151261,54.0902439 3.31663866,49.6780488 C0.788571429,45.2658537 1.32201681,44.1219512 1.60033613,42.0209059 C2.94554622,43.8184669 3.75731092,45.0790941 5.12571429,46.1763066 C8.11764706,48.5574913 9.43966387,50.6818815 10.7848739,52.9463415 C11.1095798,53.4365854 11.712605,53.2264808 11.5502521,52.5261324 Z"></path>
                            <path d="M8.28,46.1529617 C9.06857143,42.7912892 9.34689076,41.0637631 10.4137815,39.0094077 C11.4806723,36.9550523 12.1764706,32.7996516 11.1095798,30.0682927 C8.92941176,33.4066202 7.32907563,36.3714286 7.35226891,41.1804878 C7.2594958,41.6707317 7.00436975,41.6707317 6.84201681,41.2271777 C6.67966387,40.7836237 4.84739496,35.5076655 3.06151261,33.5933798 C1.62352941,32.0759582 0.25512605,30.0682927 0.139159664,29.4379791 C-0.0927731092,33.5233449 0.0231932773,35.4843206 1.50756303,38.0522648 C2.99193277,40.6202091 4.2907563,41.9508711 5.21848739,42.7445993 C6.19260504,43.5616725 7.21310924,44.5655052 8.28,46.1529617 Z"></path>
                            <path d="M1.87865546,16.7149826 C-0.858151261,25.5860627 2.2497479,29.3912892 3.24705882,30.6519164 C4.22117647,31.8891986 5.14890756,32.9864111 6.19260504,35.274216 C6.44773109,34.0602787 8.74386555,30.1383275 9.8107563,28.597561 C10.8776471,27.0567944 12.5939496,23.5083624 12.6171429,21.5940767 C10.5529412,22.8313589 7.21310924,24.7689895 5.77512605,29.928223 C5.07932773,28.4341463 5.10252101,27.7804878 4.98655462,26.3797909 C4.87058824,25.002439 3.66453782,21.454007 3.03831933,20.3334495 C2.43529412,19.212892 1.94823529,18.1390244 1.87865546,16.7149826 Z"></path>
                            <path d="M16.6991597,13.5867596 C15.7714286,16.1780488 12.6403361,18.5592334 11.0631933,19.4930314 C9.46285714,20.4268293 7.09714286,22.761324 6.2389916,23.9752613 C5.77512605,22.5278746 2.08739496,14.1937282 9.67159664,6.23310105 C9.69478992,8.87108014 9.27731092,13.6334495 7.60739496,17.6721254 C7.49142857,18.2557491 7.39865546,19.3996516 7.81613445,19.8432056 C9.55563025,16.7149826 12.1068908,14.0069686 16.6991597,13.5867596 Z"></path>
                            <path d="M17.6964706,0.350174216 C13.5912605,2.5445993 10.8776471,7.09686411 10.7616807,13.8902439 C12.1996639,12.933101 13.7304202,12.3728223 15.4235294,11.9526132 C17.1166387,11.5324042 21.3378151,9.99163763 23.0309244,6.53658537 C21.3842017,6.81672474 15.3771429,8.70766551 13.5912605,10.5752613 C13.4752941,8.87108014 14.3798319,6.53658537 14.9828571,5.81289199 C15.5858824,5.08919861 17.6732773,1.70418118 17.6964706,0.350174216 Z"></path>
                            <path d="M26.0228571,0.0933797909 C25.3270588,1.86759582 23.4020168,3.50174216 21.9872269,4.38885017 C20.572437,5.27595819 17.1862185,6.67665505 16.0961345,7.12020906 C17.1166387,5.41602787 18.6705882,3.36167247 20.1781513,2.33449477 C21.662521,1.28397213 23.6571429,0.72369338 26.0228571,0.0933797909 Z"></path>
                            <g transform="translate(19.482353, 60.463415)">
                                <path d="M1.13647059,1.26062718 L6.77243697,5.43937282"></path>
                                <path d="M0.278319328,0.606968641 C-0.0695798319,1.09721254 0.0231932773,1.77421603 0.510252101,2.12439024 L6.14621849,6.30313589 C6.63327731,6.6533101 7.30588235,6.55993031 7.65378151,6.06968641 C8.00168067,5.57944251 7.90890756,4.90243902 7.42184874,4.55226481 L1.78588235,0.373519164 C1.29882353,0.0233449477 0.626218487,0.140069686 0.278319328,0.606968641 Z"></path>
                            </g>
                        </g>
                    </g>
                </g>
                <path d="M59.4955,37.016 C59.029831,36.8619992 58.6393349,36.785 58.324,36.785 C58.0746654,36.785 57.8785007,36.8308329 57.7355,36.9225 C57.5924993,37.0141671 57.521,37.1479991 57.521,37.324 C57.521,37.4926675 57.5833327,37.6338328 57.708,37.7475 C57.8326673,37.8611672 57.9866658,37.952833 58.17,38.0225 C58.3533343,38.092167 58.6246649,38.1819994 58.984,38.292 C59.519336,38.4460008 59.9611649,38.5999992 60.3095,38.754 C60.6578351,38.9080008 60.9566654,39.1444984 61.206,39.4635 C61.4553346,39.7825016 61.58,40.1986641 61.58,40.712 C61.58,41.2253359 61.4443347,41.6634982 61.173,42.0265 C60.9016653,42.3895018 60.5295024,42.6626658 60.0565,42.846 C59.5834976,43.0293342 59.0573362,43.121 58.478,43.121 C57.8399968,43.121 57.2038365,43.0091678 56.5695,42.7855 C55.9351635,42.5618322 55.3870023,42.2556686 54.925,41.867 L55.706,40.294 C56.0946686,40.6386684 56.5548307,40.9209989 57.0865,41.141 C57.6181693,41.3610011 58.0893313,41.471 58.5,41.471 C58.8006682,41.471 59.0371658,41.4160006 59.2095,41.306 C59.3818342,41.1959995 59.468,41.0346677 59.468,40.822 C59.468,40.6459991 59.403834,40.4993339 59.2755,40.382 C59.147166,40.2646661 58.9858343,40.171167 58.7915,40.1015 C58.5971657,40.031833 58.3240018,39.9493338 57.972,39.854 C57.4439974,39.7073326 57.0076684,39.5588341 56.663,39.4085 C56.3183316,39.2581659 56.0231679,39.0308349 55.7775,38.7265 C55.5318321,38.4221651 55.409,38.0170025 55.409,37.511 C55.409,37.0343309 55.5354987,36.6163351 55.7885,36.257 C56.0415013,35.8976649 56.400831,35.6208343 56.8665,35.4265 C57.332169,35.2321657 57.8729969,35.135 58.489,35.135 C59.0463361,35.135 59.5963306,35.2138325 60.139,35.3715 C60.6816694,35.5291675 61.1583313,35.7399987 61.569,36.004 L60.81,37.61 C60.3993313,37.3679988 59.961169,37.1700008 59.4955,37.016 Z M61.932,35.289 L68.543,35.289 L68.543,36.95 L66.233,36.95 L66.233,43 L64.22,43 L64.22,36.95 L61.932,36.95 L61.932,35.289 Z M74.197,43 L73.669,41.636 L70.336,41.636 L69.797,43 L67.729,43 L71.04,35.289 L73.108,35.289 L76.342,43 L74.197,43 Z M70.941,40.096 L73.075,40.096 L72.019,37.346 L70.941,40.096 Z M81.666,43 L80.544,40.866 L79.048,40.866 L79.048,43 L77.035,43 L77.035,35.289 L80.5,35.289 C81.5193384,35.289 82.3094972,35.5254976 82.8705,35.9985 C83.4315028,36.4715024 83.712,37.1369957 83.712,37.995 C83.712,38.5743362 83.5946678,39.0748312 83.36,39.4965 C83.1253322,39.9181688 82.7843356,40.2463322 82.337,40.481 L83.943,43 L81.666,43 Z M79.048,39.26 L80.511,39.26 C80.9216687,39.26 81.2388322,39.1573344 81.4625,38.952 C81.6861678,38.7466656 81.798,38.4496686 81.798,38.061 C81.798,37.6869981 81.6861678,37.3991677 81.4625,37.1975 C81.2388322,36.9958323 80.9216687,36.895 80.511,36.895 L79.048,36.895 L79.048,39.26 Z" id="STAR-Copy" fill="#FFFFFF"></path>
                <path d="M38.1,56.22 C37.8173319,56.094666 37.5266682,56.032 37.228,56.032 C36.8333314,56.032 36.4706683,56.127999 36.14,56.32 C35.8093317,56.512001 35.548001,56.7719984 35.356,57.1 C35.163999,57.4280016 35.068,57.7893314 35.068,58.184 C35.068,58.5733353 35.163999,58.9333317 35.356,59.264 C35.548001,59.5946683 35.8093317,59.855999 36.14,60.048 C36.4706683,60.240001 36.8333314,60.336 37.228,60.336 C37.5213348,60.336 37.8093319,60.2760006 38.092,60.156 C38.3746681,60.0359994 38.6253322,59.872001 38.844,59.664 L39.308,60.168 C39.0253319,60.4453347 38.6973352,60.6626659 38.324,60.82 C37.9506648,60.9773341 37.5720019,61.056 37.188,61.056 C36.654664,61.056 36.1666689,60.9293346 35.724,60.676 C35.2813311,60.4226654 34.9320013,60.0773355 34.676,59.64 C34.4199987,59.2026645 34.292,58.7200026 34.292,58.192 C34.292,57.6693307 34.421332,57.1906688 34.68,56.756 C34.938668,56.3213312 35.2919978,55.9786679 35.74,55.728 C36.1880022,55.4773321 36.6813306,55.352 37.22,55.352 C37.6093353,55.352 37.9866648,55.4253326 38.352,55.572 C38.7173352,55.7186674 39.033332,55.925332 39.3,56.192 L38.844,56.744 C38.6306656,56.5199989 38.3826681,56.345334 38.1,56.22 Z M42.84,56.196 C42.5599986,56.1133329 42.3026678,56.072 42.068,56.072 C41.742665,56.072 41.4826676,56.134666 41.288,56.26 C41.0933324,56.385334 40.996,56.5573322 40.996,56.776 C40.996,56.9733343 41.0546661,57.134666 41.172,57.26 C41.2893339,57.385334 41.4333325,57.4839996 41.604,57.556 C41.7746675,57.6280004 42.0119985,57.7119995 42.316,57.808 C42.6946686,57.9253339 43.0013322,58.0373328 43.236,58.144 C43.4706678,58.2506672 43.6706658,58.4093323 43.836,58.62 C44.0013342,58.8306677 44.084,59.1093316 44.084,59.456 C44.084,59.7760016 43.9973342,60.0559988 43.824,60.296 C43.6506658,60.5360012 43.4080016,60.7213327 43.096,60.852 C42.7839984,60.9826673 42.4253354,61.048 42.02,61.048 C41.6093313,61.048 41.2093353,60.9680008 40.82,60.808 C40.4306647,60.6479992 40.0946681,60.434668 39.812,60.168 L40.156,59.504 C40.422668,59.7653346 40.722665,59.966666 41.056,60.108 C41.389335,60.249334 41.7133318,60.32 42.028,60.32 C42.4013352,60.32 42.6959989,60.2466674 42.912,60.1 C43.1280011,59.9533326 43.236,59.7546679 43.236,59.504 C43.236,59.3066657 43.1773339,59.1440006 43.06,59.016 C42.9426661,58.8879994 42.7946676,58.786667 42.616,58.712 C42.4373324,58.637333 42.1960015,58.5546671 41.892,58.464 C41.5186648,58.3519994 41.2146678,58.2426672 40.98,58.136 C40.7453322,58.0293328 40.5466675,57.872001 40.384,57.664 C40.2213325,57.455999 40.14,57.181335 40.14,56.84 C40.14,56.5413318 40.2226658,56.2773345 40.388,56.048 C40.5533342,55.8186655 40.7853318,55.6426673 41.084,55.52 C41.3826682,55.3973327 41.7293314,55.336 42.124,55.336 C42.4600017,55.336 42.7893317,55.3853328 43.112,55.484 C43.4346683,55.5826672 43.7213321,55.7146658 43.972,55.88 L43.652,56.568 C43.3906654,56.4026658 43.1200014,56.2786671 42.84,56.196 Z M47.768,56.196 C47.4879986,56.1133329 47.2306678,56.072 46.996,56.072 C46.670665,56.072 46.4106676,56.134666 46.216,56.26 C46.0213324,56.385334 45.924,56.5573322 45.924,56.776 C45.924,56.9733343 45.9826661,57.134666 46.1,57.26 C46.2173339,57.385334 46.3613325,57.4839996 46.532,57.556 C46.7026675,57.6280004 46.9399985,57.7119995 47.244,57.808 C47.6226686,57.9253339 47.9293322,58.0373328 48.164,58.144 C48.3986678,58.2506672 48.5986658,58.4093323 48.764,58.62 C48.9293342,58.8306677 49.012,59.1093316 49.012,59.456 C49.012,59.7760016 48.9253342,60.0559988 48.752,60.296 C48.5786658,60.5360012 48.3360016,60.7213327 48.024,60.852 C47.7119984,60.9826673 47.3533354,61.048 46.948,61.048 C46.5373313,61.048 46.1373353,60.9680008 45.748,60.808 C45.3586647,60.6479992 45.0226681,60.434668 44.74,60.168 L45.084,59.504 C45.350668,59.7653346 45.650665,59.966666 45.984,60.108 C46.317335,60.249334 46.6413318,60.32 46.956,60.32 C47.3293352,60.32 47.6239989,60.2466674 47.84,60.1 C48.0560011,59.9533326 48.164,59.7546679 48.164,59.504 C48.164,59.3066657 48.1053339,59.1440006 47.988,59.016 C47.8706661,58.8879994 47.7226676,58.786667 47.544,58.712 C47.3653324,58.637333 47.1240015,58.5546671 46.82,58.464 C46.4466648,58.3519994 46.1426678,58.2426672 45.908,58.136 C45.6733322,58.0293328 45.4746675,57.872001 45.312,57.664 C45.1493325,57.455999 45.068,57.181335 45.068,56.84 C45.068,56.5413318 45.1506658,56.2773345 45.316,56.048 C45.4813342,55.8186655 45.7133318,55.6426673 46.012,55.52 C46.3106682,55.3973327 46.6573314,55.336 47.052,55.336 C47.3880017,55.336 47.7173317,55.3853328 48.04,55.484 C48.3626683,55.5826672 48.6493321,55.7146658 48.9,55.88 L48.58,56.568 C48.3186654,56.4026658 48.0480014,56.2786671 47.768,56.196 Z M56.972,55.4 L57.772,55.4 L55.876,61 L55.076,61 L53.628,56.376 L52.156,61 L51.364,61 L49.476,55.4 L50.3,55.4 L51.78,60.176 L53.252,55.4 L54.02,55.4 L55.5,60.176 L56.972,55.4 Z M58.604,55.4 L59.372,55.4 L59.372,61 L58.604,61 L58.604,55.4 Z M64.956,55.4 L65.716,55.4 L65.716,61 L64.94,61 L61.74,56.664 L61.74,61 L60.972,61 L60.972,55.4 L61.748,55.4 L64.956,59.744 L64.956,55.4 Z M71.308,55.4 L72.068,55.4 L72.068,61 L71.292,61 L68.092,56.664 L68.092,61 L67.324,61 L67.324,55.4 L68.1,55.4 L71.308,59.744 L71.308,55.4 Z M73.676,55.4 L77.564,55.4 L77.564,56.096 L74.444,56.096 L74.444,57.824 L77.236,57.824 L77.236,58.52 L74.444,58.52 L74.444,60.304 L77.66,60.304 L77.66,61 L73.676,61 L73.676,55.4 Z M82.516,61 L81.404,59.24 C81.2759994,59.2506667 81.1720004,59.256 81.092,59.256 L79.668,59.256 L79.668,61 L78.9,61 L78.9,55.4 L81.092,55.4 C81.8013369,55.4 82.3493314,55.5639984 82.736,55.892 C83.1226686,56.2200016 83.316,56.6853303 83.316,57.288 C83.316,57.7413356 83.2106677,58.1226651 83,58.432 C82.7893323,58.7413349 82.4866686,58.9653326 82.092,59.104 L83.396,61 L82.516,61 Z M81.092,58.56 C81.5720024,58.56 81.9399987,58.4546677 82.196,58.244 C82.4520013,58.0333323 82.58,57.7226687 82.58,57.312 C82.58,56.911998 82.4520013,56.6093344 82.196,56.404 C81.9399987,56.1986656 81.5720024,56.096 81.092,56.096 L79.668,56.096 L79.668,58.56 L81.092,58.56 Z M85.024,60.28 C85.1066671,60.3653338 85.148,60.474666 85.148,60.608 C85.148,60.741334 85.1066671,60.8519996 85.024,60.94 C84.9413329,61.0280004 84.8386673,61.072 84.716,61.072 C84.5933327,61.072 84.4893338,61.0280004 84.404,60.94 C84.3186662,60.8519996 84.276,60.741334 84.276,60.608 C84.276,60.474666 84.3186662,60.3653338 84.404,60.28 C84.4893338,60.1946662 84.5933327,60.152 84.716,60.152 C84.8386673,60.152 84.9413329,60.1946662 85.024,60.28 Z M89.652,56.22 C89.3693319,56.094666 89.0786682,56.032 88.78,56.032 C88.3853314,56.032 88.0226683,56.127999 87.692,56.32 C87.3613317,56.512001 87.100001,56.7719984 86.908,57.1 C86.715999,57.4280016 86.62,57.7893314 86.62,58.184 C86.62,58.5733353 86.715999,58.9333317 86.908,59.264 C87.100001,59.5946683 87.3613317,59.855999 87.692,60.048 C88.0226683,60.240001 88.3853314,60.336 88.78,60.336 C89.0733348,60.336 89.3613319,60.2760006 89.644,60.156 C89.9266681,60.0359994 90.1773322,59.872001 90.396,59.664 L90.86,60.168 C90.5773319,60.4453347 90.2493352,60.6626659 89.876,60.82 C89.5026648,60.9773341 89.1240019,61.056 88.74,61.056 C88.206664,61.056 87.7186689,60.9293346 87.276,60.676 C86.8333311,60.4226654 86.4840013,60.0773355 86.228,59.64 C85.9719987,59.2026645 85.844,58.7200026 85.844,58.192 C85.844,57.6693307 85.973332,57.1906688 86.232,56.756 C86.490668,56.3213312 86.8439978,55.9786679 87.292,55.728 C87.7400022,55.4773321 88.2333306,55.352 88.772,55.352 C89.1613353,55.352 89.5386648,55.4253326 89.904,55.572 C90.2693352,55.7186674 90.585332,55.925332 90.852,56.192 L90.396,56.744 C90.1826656,56.5199989 89.9346681,56.345334 89.652,56.22 Z M95.736,55.728 C96.1866689,55.9786679 96.5426654,56.3213312 96.804,56.756 C97.0653346,57.1906688 97.196,57.6693307 97.196,58.192 C97.196,58.7146693 97.0653346,59.1959978 96.804,59.636 C96.5426654,60.0760022 96.1866689,60.4226654 95.736,60.676 C95.2853311,60.9293346 94.7906694,61.056 94.252,61.056 C93.7133306,61.056 93.2186689,60.9293346 92.768,60.676 C92.3173311,60.4226654 91.9613346,60.0760022 91.7,59.636 C91.4386654,59.1959978 91.308,58.7146693 91.308,58.192 C91.308,57.6693307 91.4386654,57.1906688 91.7,56.756 C91.9613346,56.3213312 92.3159978,55.9786679 92.764,55.728 C93.2120022,55.4773321 93.7079973,55.352 94.252,55.352 C94.7906694,55.352 95.2853311,55.4773321 95.736,55.728 Z M93.176,56.328 C92.842665,56.520001 92.5773343,56.7799984 92.38,57.108 C92.1826657,57.4360016 92.084,57.7973314 92.084,58.192 C92.084,58.5866686 92.1826657,58.9493317 92.38,59.28 C92.5773343,59.6106683 92.842665,59.8733324 93.176,60.068 C93.509335,60.2626676 93.8706647,60.36 94.26,60.36 C94.6493353,60.36 95.0079984,60.2626676 95.336,60.068 C95.6640016,59.8733324 95.9253324,59.6106683 96.12,59.28 C96.3146676,58.9493317 96.412,58.5866686 96.412,58.192 C96.412,57.7973314 96.3146676,57.4360016 96.12,57.108 C95.9253324,56.7799984 95.6640016,56.520001 95.336,56.328 C95.0079984,56.135999 94.6493353,56.04 94.26,56.04 C93.8706647,56.04 93.509335,56.135999 93.176,56.328 Z M98.3,55.4 L99.212,55.4 L101.26,59.336 L103.292,55.4 L104.212,55.4 L104.212,61 L103.492,61 L103.484,56.528 L101.492,60.408 L101.02,60.408 L99.012,56.528 L99.012,61 L98.3,61 L98.3,55.4 Z" id="CSSWINNER.COM-Copy" fill="#FFFFFF"></path>
            </g>
        </g>
    </g>
</svg>