<?xml version="1.0" encoding="UTF-8"?>
<svg width="1049px" height="1062px" viewBox="0 0 1049 1062" version="1.1" xmlns="http://www.w3.org/2000/svg" xmlns:xlink="http://www.w3.org/1999/xlink">
    <!-- Generator: Sketch 46.1 (44463) - http://www.bohemiancoding.com/sketch -->
    <title>Combined Shape</title>
    <desc>Created with Sketch.</desc>
    <defs></defs>
    <g id="Page-1" stroke="none" stroke-width="1" fill="none" fill-rule="evenodd">
        <g id="potential-leben-copy" transform="translate(-212.000000, -152.000000)" fill-rule="nonzero" fill="#FFFFFF">
            <path d="M1005.17202,883.877125 C886.864972,1073.69089 743.0245,1214 657.746805,1214 C473.394177,1214 212.021192,658.26406 212.021192,413.379496 C212.021192,374.875882 220.278531,344.616478 234.023258,325.344979 C297.325143,248.311495 495.422498,187.766432 660.4905,168.521188 C641.205873,185.022737 627.487401,204.281108 627.487401,262.056222 C627.487401,418.89314 825.558501,890.125921 960.406482,890.125921 C976.842393,890.125921 989.405624,888.524339 1005.17202,883.877125 Z M919.098786,152 C1089.68043,152 1260.28833,179.51571 1260.28833,275.807565 C1260.28833,471.161226 1136.48077,707.775323 1073.19201,707.775323 C960.398605,707.775323 820.076364,394.140869 820.076364,237.303951 C820.076364,165.770982 847.592073,152 919.098786,152 Z" id="Combined-Shape"></path>
        </g>
    </g>
</svg>